<mxfile host="app.diagrams.net" modified="2024-09-06T17:13:47.168Z" agent="Mozilla/5.0 (Windows NT 10.0; Win64; x64) AppleWebKit/537.36 (KHTML, like Gecko) Chrome/128.0.0.0 Safari/537.36" etag="0h7kauEA28kvJL1WeErC" version="24.4.6" type="device">
  <diagram name="Страница — 1" id="exi6Xplv51dkyVEAZNHr">
    <mxGraphModel dx="1647" dy="839" grid="1" gridSize="10" guides="1" tooltips="1" connect="1" arrows="1" fold="1" page="1" pageScale="1" pageWidth="827" pageHeight="1169" math="0" shadow="0">
      <root>
        <mxCell id="0" />
        <mxCell id="1" parent="0" />
        <mxCell id="Z5jCUyBaBGFLvtda2WER-1" value="" style="rounded=1;whiteSpace=wrap;html=1;arcSize=6;fillColor=#f5f5f5;fontColor=#333333;strokeColor=#666666;" vertex="1" parent="1">
          <mxGeometry x="163" y="70" width="500" height="930" as="geometry" />
        </mxCell>
        <mxCell id="Z5jCUyBaBGFLvtda2WER-3" value="" style="rounded=1;whiteSpace=wrap;html=1;arcSize=41;labelBackgroundColor=none;labelBorderColor=none;" vertex="1" parent="1">
          <mxGeometry x="253" y="72.5" width="320" height="45" as="geometry" />
        </mxCell>
        <mxCell id="Z5jCUyBaBGFLvtda2WER-4" value="&lt;b&gt;Услуги&lt;/b&gt;" style="rounded=1;whiteSpace=wrap;html=1;fillColor=#dae8fc;strokeColor=#6c8ebf;arcSize=50;gradientColor=#7ea6e0;" vertex="1" parent="1">
          <mxGeometry x="270" y="85" width="50" height="20" as="geometry" />
        </mxCell>
        <mxCell id="Z5jCUyBaBGFLvtda2WER-5" value="&lt;b&gt;Схема работы&lt;/b&gt;" style="rounded=1;whiteSpace=wrap;html=1;fillColor=#dae8fc;strokeColor=#6c8ebf;arcSize=50;gradientColor=#7ea6e0;" vertex="1" parent="1">
          <mxGeometry x="350" y="85" width="100" height="20" as="geometry" />
        </mxCell>
        <mxCell id="Z5jCUyBaBGFLvtda2WER-6" value="&lt;b&gt;Контакты&lt;/b&gt;" style="rounded=1;whiteSpace=wrap;html=1;fillColor=#dae8fc;strokeColor=#6c8ebf;arcSize=50;gradientColor=#7ea6e0;" vertex="1" parent="1">
          <mxGeometry x="480" y="85" width="80" height="20" as="geometry" />
        </mxCell>
        <mxCell id="Z5jCUyBaBGFLvtda2WER-13" value="" style="endArrow=classic;html=1;rounded=0;exitX=0;exitY=0;exitDx=0;exitDy=0;entryX=1;entryY=1;entryDx=0;entryDy=0;" edge="1" parent="1" source="Z5jCUyBaBGFLvtda2WER-12" target="Z5jCUyBaBGFLvtda2WER-12">
          <mxGeometry width="50" height="50" relative="1" as="geometry">
            <mxPoint x="360" y="400" as="sourcePoint" />
            <mxPoint x="390" y="360" as="targetPoint" />
          </mxGeometry>
        </mxCell>
        <mxCell id="Z5jCUyBaBGFLvtda2WER-23" value="" style="rounded=1;whiteSpace=wrap;html=1;arcSize=6;" vertex="1" parent="1">
          <mxGeometry x="181" y="320" width="465" height="220" as="geometry" />
        </mxCell>
        <mxCell id="Z5jCUyBaBGFLvtda2WER-18" value="&lt;font style=&quot;font-size: 19px;&quot;&gt;ПОЧЕМУ НАС ВЫБИРАЮТ?&lt;/font&gt;&lt;div&gt;&lt;span style=&quot;font-size: 19px;&quot;&gt;&lt;br&gt;&lt;/span&gt;&lt;div&gt;&lt;div style=&quot;text-align: justify; font-size: 12px;&quot;&gt;&lt;span style=&quot;font-weight: 400;&quot;&gt;&lt;span style=&quot;white-space: pre;&quot;&gt;&#x9;&lt;/span&gt;Наша компания проектирует, поставляет и реализует проекты любой сложности на протяжении 5 лет.&lt;/span&gt;&lt;/div&gt;&lt;/div&gt;&lt;/div&gt;" style="rounded=1;whiteSpace=wrap;html=1;arcSize=8;fontSize=21;fontStyle=1;fillColor=#dae8fc;strokeColor=#6c8ebf;gradientColor=#7ea6e0;spacingLeft=6;spacingBottom=0;spacingRight=6;spacingTop=10;" vertex="1" parent="1">
          <mxGeometry x="190" y="330" width="160" height="190" as="geometry" />
        </mxCell>
        <mxCell id="Z5jCUyBaBGFLvtda2WER-19" value="&lt;div style=&quot;&quot;&gt;&lt;span style=&quot;font-size: 10px; background-color: initial;&quot;&gt;Подбор и монтаж системы видеонаблюдения в короткие сроки&lt;/span&gt;&lt;/div&gt;" style="rounded=1;whiteSpace=wrap;html=1;fillColor=#dae8fc;gradientColor=#7ea6e0;strokeColor=#6c8ebf;fontSize=15;fontStyle=1;fontFamily=Helvetica;horizontal=1;verticalAlign=top;align=center;" vertex="1" parent="1">
          <mxGeometry x="390" y="330" width="110" height="90" as="geometry" />
        </mxCell>
        <mxCell id="Z5jCUyBaBGFLvtda2WER-20" value="&lt;div style=&quot;&quot;&gt;&lt;b style=&quot;background-color: initial;&quot;&gt;&lt;font style=&quot;font-size: 10px;&quot;&gt;Оборудование от надёжных брендов систем безопасности с гарантией от 3-х лет&lt;/font&gt;&lt;/b&gt;&lt;/div&gt;" style="rounded=1;whiteSpace=wrap;html=1;fillColor=#dae8fc;gradientColor=#7ea6e0;strokeColor=#6c8ebf;align=center;" vertex="1" parent="1">
          <mxGeometry x="520" y="330" width="110" height="90" as="geometry" />
        </mxCell>
        <mxCell id="Z5jCUyBaBGFLvtda2WER-21" value="&lt;font style=&quot;font-size: 10px;&quot;&gt;&lt;b&gt;Обязательный выезд специалиста на объект до начала работ, для точного расчёта стоимости&lt;/b&gt;&lt;/font&gt;" style="rounded=1;whiteSpace=wrap;html=1;fillColor=#dae8fc;gradientColor=#7ea6e0;strokeColor=#6c8ebf;" vertex="1" parent="1">
          <mxGeometry x="390" y="430" width="110" height="90" as="geometry" />
        </mxCell>
        <mxCell id="Z5jCUyBaBGFLvtda2WER-22" value="&lt;b&gt;&lt;font style=&quot;font-size: 10px;&quot;&gt;Чистый монтаж на объектах с готовым ремонтом! В работе используем промышленные пылесосы&lt;/font&gt;&lt;/b&gt;" style="rounded=1;whiteSpace=wrap;html=1;fillColor=#dae8fc;gradientColor=#7ea6e0;strokeColor=#6c8ebf;" vertex="1" parent="1">
          <mxGeometry x="520" y="430" width="110" height="90" as="geometry" />
        </mxCell>
        <mxCell id="Z5jCUyBaBGFLvtda2WER-24" value="&lt;div style=&quot;padding-top: 0px; font-size: 20px;&quot;&gt;&lt;span style=&quot;background-color: initial;&quot;&gt;&lt;font face=&quot;Times New Roman&quot; style=&quot;font-size: 20px;&quot;&gt;&lt;b style=&quot;&quot;&gt;&lt;br&gt;&lt;/b&gt;&lt;/font&gt;&lt;/span&gt;&lt;/div&gt;&lt;div style=&quot;padding-top: 0px; font-size: 20px;&quot;&gt;&lt;span style=&quot;background-color: initial;&quot;&gt;&lt;font face=&quot;Times New Roman&quot; style=&quot;font-size: 20px;&quot;&gt;&lt;b style=&quot;&quot;&gt;УСЛУГИ FIRMA&lt;/b&gt;&lt;/font&gt;&lt;/span&gt;&lt;/div&gt;" style="rounded=1;whiteSpace=wrap;html=1;arcSize=5;verticalAlign=top;align=center;" vertex="1" parent="1">
          <mxGeometry x="190" y="555" width="460" height="335" as="geometry" />
        </mxCell>
        <mxCell id="Z5jCUyBaBGFLvtda2WER-25" value="&lt;b&gt;&lt;font style=&quot;font-size: 14px;&quot;&gt;Домофония&lt;/font&gt;&lt;/b&gt;&lt;div&gt;&lt;b&gt;&lt;font style=&quot;font-size: 14px;&quot;&gt;&lt;br&gt;&lt;/font&gt;&lt;/b&gt;&lt;/div&gt;&lt;div style=&quot;text-align: justify;&quot;&gt;&lt;span style=&quot;font-weight: bold; white-space: pre;&quot;&gt;&#x9;&lt;/span&gt;Позволяет на этапе звонка точно определить, кто к вам пришел.&lt;/div&gt;" style="rounded=1;whiteSpace=wrap;html=1;fillColor=#dae8fc;gradientColor=#7ea6e0;strokeColor=#6c8ebf;spacingLeft=6;spacingRight=6;" vertex="1" parent="1">
          <mxGeometry x="200" y="620" width="300" height="70" as="geometry" />
        </mxCell>
        <mxCell id="Z5jCUyBaBGFLvtda2WER-26" value="&lt;b&gt;&lt;font style=&quot;font-size: 14px;&quot;&gt;Умные замки&lt;/font&gt;&lt;/b&gt;&lt;div style=&quot;text-align: left;&quot;&gt;&lt;span style=&quot;white-space: pre;&quot;&gt;&#x9;&lt;/span&gt;Надёжность и высокая степень защиты от взлома выгодно отличает умные замки от обычных механических&lt;span style=&quot;white-space: pre;&quot;&gt;&#x9;&lt;/span&gt;&lt;span style=&quot;white-space: pre;&quot;&gt;&#x9;&lt;/span&gt;&lt;span style=&quot;white-space: pre;&quot;&gt;&#x9;&lt;/span&gt;&lt;span style=&quot;white-space: pre;&quot;&gt;&#x9;&lt;/span&gt;&lt;span style=&quot;white-space: pre;&quot;&gt;&#x9;&lt;/span&gt;&lt;span style=&quot;white-space: pre;&quot;&gt;&#x9;&lt;/span&gt;&lt;span style=&quot;white-space: pre;&quot;&gt;&#x9;&lt;/span&gt;&lt;br&gt;&lt;/div&gt;" style="rounded=1;whiteSpace=wrap;html=1;fillColor=#dae8fc;gradientColor=#7ea6e0;strokeColor=#6c8ebf;verticalAlign=top;align=center;spacingLeft=2;" vertex="1" parent="1">
          <mxGeometry x="200" y="707.5" width="300" height="80" as="geometry" />
        </mxCell>
        <mxCell id="Z5jCUyBaBGFLvtda2WER-32" value="" style="rounded=1;whiteSpace=wrap;html=1;arcSize=7;" vertex="1" parent="1">
          <mxGeometry x="181" y="140" width="459" height="170" as="geometry" />
        </mxCell>
        <mxCell id="Z5jCUyBaBGFLvtda2WER-27" value="&lt;b&gt;&lt;font style=&quot;font-size: 14px;&quot;&gt;Видеонаблюдение&lt;/font&gt;&lt;/b&gt;&lt;div&gt;&lt;span style=&quot;font-size: 14px;&quot;&gt;&lt;b&gt;&lt;br&gt;&lt;/b&gt;&lt;/span&gt;&lt;div style=&quot;text-align: justify;&quot;&gt;&lt;font style=&quot;font-size: 12px;&quot;&gt;&lt;span style=&quot;white-space: pre;&quot;&gt;&#x9;&lt;/span&gt;П&lt;/font&gt;&lt;font style=&quot;font-size: 12px;&quot;&gt;озволяет обеспечить безопасность прав человека, частной и государственной собственности&lt;/font&gt;&lt;/div&gt;&lt;div style=&quot;text-align: justify;&quot;&gt;&lt;b&gt;&lt;font style=&quot;font-size: 14px;&quot;&gt;&lt;br&gt;&lt;/font&gt;&lt;/b&gt;&lt;/div&gt;&lt;/div&gt;" style="rounded=1;whiteSpace=wrap;html=1;fillColor=#dae8fc;gradientColor=#7ea6e0;strokeColor=#6c8ebf;verticalAlign=top;spacingLeft=2;spacingRight=1;" vertex="1" parent="1">
          <mxGeometry x="200" y="800" width="300" height="80" as="geometry" />
        </mxCell>
        <mxCell id="Z5jCUyBaBGFLvtda2WER-28" value="&lt;div&gt;&lt;br&gt;&lt;/div&gt;&lt;b&gt;&lt;font style=&quot;font-size: 13px;&quot;&gt;Системы распознавания лиц&lt;/font&gt;&lt;/b&gt;&lt;div style=&quot;text-align: justify;&quot;&gt;&lt;b&gt;&lt;font style=&quot;font-size: 13px;&quot;&gt;&lt;br&gt;&lt;/font&gt;&lt;/b&gt;&lt;/div&gt;&lt;div style=&quot;text-align: justify;&quot;&gt;&lt;b&gt;&lt;font style=&quot;font-size: 13px;&quot;&gt;&lt;br&gt;&lt;/font&gt;&lt;/b&gt;&lt;/div&gt;&lt;div style=&quot;text-align: justify;&quot;&gt;&lt;font style=&quot;font-size: 12px;&quot;&gt;Идентификации личности при помощи сканировании лица&lt;/font&gt;&lt;/div&gt;" style="rounded=1;whiteSpace=wrap;html=1;fillColor=#dae8fc;gradientColor=#7ea6e0;strokeColor=#6c8ebf;align=left;verticalAlign=top;spacingLeft=2;spacingRight=2;spacing=1;" vertex="1" parent="1">
          <mxGeometry x="510" y="673.75" width="130" height="147.5" as="geometry" />
        </mxCell>
        <mxCell id="Z5jCUyBaBGFLvtda2WER-15" value="" style="rounded=1;whiteSpace=wrap;html=1;fillColor=#dae8fc;gradientColor=#7ea6e0;strokeColor=#6c8ebf;" vertex="1" parent="1">
          <mxGeometry x="490" y="145" width="140" height="160" as="geometry" />
        </mxCell>
        <mxCell id="Z5jCUyBaBGFLvtda2WER-10" value="&lt;div style=&quot;text-align: left;&quot;&gt;&lt;span style=&quot;background-color: initial;&quot;&gt;&lt;font style=&quot;font-size: 16px;&quot;&gt;&lt;b style=&quot;&quot;&gt;FIRMA&lt;/b&gt;&lt;/font&gt;&lt;/span&gt;&lt;/div&gt;&lt;div style=&quot;text-align: left;&quot;&gt;&lt;b&gt;&lt;font style=&quot;font-size: 17px;&quot;&gt;&lt;br&gt;&lt;/font&gt;&lt;/b&gt;&lt;/div&gt;&lt;div style=&quot;text-align: left;&quot;&gt;&lt;b&gt;&lt;font style=&quot;font-size: 17px;&quot;&gt;&lt;br&gt;&lt;/font&gt;&lt;/b&gt;&lt;/div&gt;" style="rounded=1;whiteSpace=wrap;html=1;fillColor=#dae8fc;strokeColor=#6c8ebf;gradientColor=#7ea6e0;" vertex="1" parent="1">
          <mxGeometry x="190" y="230" width="240" height="70" as="geometry" />
        </mxCell>
        <mxCell id="Z5jCUyBaBGFLvtda2WER-9" value="Установка и продажа систем видеонаблюдения" style="rounded=1;whiteSpace=wrap;html=1;fontStyle=1;fontSize=15;fillColor=#dae8fc;strokeColor=#6c8ebf;gradientColor=#7ea6e0;" vertex="1" parent="1">
          <mxGeometry x="190" y="150" width="240" height="60" as="geometry" />
        </mxCell>
        <mxCell id="Z5jCUyBaBGFLvtda2WER-17" value="" style="shape=image;verticalLabelPosition=bottom;labelBackgroundColor=default;verticalAlign=top;aspect=fixed;imageAspect=0;image=data:image/png,iVBORw0KGgoAAAANSUhEUgAAAcIAAAJBCAYAAADV1LWuAAAAAXNSR0IArs4c6QAAIABJREFUeF7svQm0nVd53/2+55w7SPdqtGXL82yDBQhjYRtsCMaQMAQSQjBlSAgJhSRQUhq+pKVdX9SVlaRpyWpKPq+MJGQAUqXEoQTsfLQlaVOapumXqYFkFULC4FGWJUt3PsPn/0E/5c/T/Z57JUu+ks5z17rrnPMOe/jv/T7//X/2s/dbV/mXCCQCiUAikAiMMQL1GNc9q54IJAKJQCKQCFRJhNkJEoFEIBFIBMYagSTCsW7+rHwikAgkAolAEmH2gUQgEUgEEoGxRiCJcKybPyufCCQCiUAikESYfSARSAQSgURgrBFIIhzr5s/KJwKJQCKQCCQRZh9IBBKBRCARGGsEkgjHuvmz8olAIpAIJAJJhNkHEoFEIBFIBMYagSTCsW7+rHwikAgkAolAEmH2gUQgEUgEEoGxRiCJcKybPyufCCQCiUAikESYfSARSAQSgURgrBFIIhzr5s/KJwKJQCKQCCQRZh9IBBKBRCARGGsEkgjHuvmz8olAIpAIJAJJhNkHEoFEIBFIBMYagSTCsW7+rHwikAgkAolAEmH2gUQgEUgEEoGxRiCJcKybPyufCCQCiUAikESYfSARSAQSgURgrBFIIhzr5s/KJwKJQCKQCCQRZh9IBBKBRCARGGsEkgjHuvmz8olAIpAIJAJJhNkHEoFEIBFIBMYagSTCsW7+rHwikAgkAolAEmH2gUQgEUgEEoGxRiCJcKybPyufCCQCiUAikESYfSARSAQSgURgrBFIIhzr5s/KJwKJQCKQCCQRZh9IBBKBRCARGGsEkgjHuvmz8olAIpAIJAJJhNkHEoFEIBFIBMYagSTCsW7+rHwikAgkAolAEmH2gUQgEUgEEoGxRiCJcKybPyufCCQCiUAikESYfSARSAQSgURgrBFIIhzr5s/KJwKJQCKQCCQRZh9IBBKBRCARGGsEkgjHuvmz8olAIpAIJAJJhNkHEoFEIBFIBMYagSTCsW7+rHwikAgkAolAEmH2gUQgEUgEEoGxRiCJcKybPyufCCQCiUAikESYfSARSAQSgURgrBFIIhzr5s/KJwKJQCKQCCQRZh9IBBKBRCARGGsEkgjHuvmz8olAIpAIJAJJhNkHEoFEIBFIBMYagSTCsW7+rHwikAgkAolAEmH2gUQgEUgEEoGxRiCJcKybPyufCCQCiUAikESYfSARSAQSgURgrBFIIhzr5s/KJwKJQCKQCCQRZh9IBBKBRCARGGsEkgjHuvmz8olAIpAIJAJJhNkHEoFEIBFIBMYagSTCsW7+rHwikAgkAolAEmH2gUQgEUgEEoGxRiCJcKybPyufCCQCiUAikESYfSARSAQSgURgrBFIIhzr5s/KJwKJQCKQCCQRZh9IBBKBRCARGGsEkgjHuvmz8olAIpAIJAJJhNkHEoFEIBFIBMYagSTCsW7+rHwikAgkAolAEmH2gUQgEUgEEoGxRiCJcKybPyufCCQCiUAikESYfSARSAQSgURgrBFIIhzr5s/KJwKJQCKQCCQRZh9IBBKBRCARGGsEkgjHuvmz8olAIpAIJAJJhNkHEoFEIBFIBMYagSTCsW7+rHwikAgkAolAEmH2gUQgEUgEEoGxRiCJcKybPyufCCQCiUAikESYfSARSAQSgURgrBFIIhzr5s/KJwKJQCKQCCQRZh9IBBKBRCARGGsEkgjHuvmz8olAIpAIJAJJhNkHEoFEIBFIBMYagSTCsW7+rHwikAgkAolAEmH2gUQgEUgEEoGxRiCJcKybPyufCCQCiUAikESYfSARSAQSgURgrBFIIhzr5s/KJwKJQCKQCCQRZh9IBBKBRCARGGsEkgjHuvmz8olAIpAIJAJJhNkHEoFEIBFIBMYagSTCsW7+rHwikAgkAolAEmH2gUQgEUgEEoGxRiCJcKybPyufCCQCiUAikESYfSARSAQSgURgrBFIIhzr5s/KJwKJQCKQCCQRZh9IBBKBRCARGGsEkgjHuvmz8olAIpAIJAJJhNkHEoFEIBFIBMYagSTCsW7+rHwikAgkAolAEmH2gUQgEUgEEoGxRiCJcKybPyufCCQCiUAikESYfSARSAQSgURgrBFIIhzr5s/KJwKJQCKQCCQRZh9IBBKBRCARGGsEkgjHuvmz8olAIpAIJAJJhNkHEoFEIBFIBMYagSTCsW7+rHwikAgkAolAEmH2gUQgEUgEEoGxRiCJcKybPyufCCQCiUAikESYfSARSAQSgURgrBFIIhzr5s/KJwKJQCKQCCQRZh9IBBKBRCARGGsEkgjHuvmz8olAIpAIJAJJhNkHEoFEIBFIBMYagSTCsW7+rHwikAgkAolAEmH2gUQgEUgEEoGxRiCJcKybPyufCCQCiUAikESYfSARSAQSgURgrBFIIhzr5s/KJwKJQCKQCCQRZh9IBBKBRCARGGsEkgjHuvmz8olAIpAIJAJJhNkHEoFEIBFIBMYagSTCsW7+rHwikAgkAolAEmH2gUQgEUgEEoGxRiCJcKybPyufCCQCiUAikESYfSARSAQSgURgrBFIIhzr5s/KJwKJQCKQCCQRZh9IBBKBRCARGGsEkgjHuvmz8olAIpAIJAJJhNkHEoFE4LRDYDAYtD7zmc90Hnroodb27dvbBw4cqCcmJurp6enWwsJCq91u14PBoDM7O1utrKy0JyYm2nVdT/b7/U5d17OdTqdTVdVUXdfT+u90Ohd3u93z2+32eXVdTwwGg3673V6pqupwXddzdV0fqev6cKvVmh8MBvo8XFXVYlVVC5OTk0d6vV630+ks9/v9/sTExGKv1+t3u91+r9cbCLzFxcX+8vLy4Prrr+/Xdd097QDNAo1EIIkwO0gikAicUgT+4i/+YvbQoUMiqemJiYnZfr+/bTAY7KiqSqR0YV3XFw8GgwuqqtrU6/U29nq9qVarJSKbqKpqsqoqfW9XVVXrr9VqDVqt1vCrCLGua/HelrqudUHVarWG/7r+6Ofwd6cjjvzqNfzrosFgULXbSn6YwZDYOK7TuvbouUrEV9d17yhRDgaDQe/ovy7pV1Wl3yJDXbfSarWWxZODweBQv9+/v9Vq/WVVVZ9ttVqf63a7j/Z6vbkjR47M7dq1S9fl3zohkES4TsBntonAmYrApz/96Q2tVmti06ZNG7vd7pZut3tNVVW767q+pt/vn1NV1RaR2mAw2CQiE1FJqQ0GAxHbkNQGg8EGyAXigsT0Gchp+JvrITE/JiLTv9IindL1kQibfnvb+DXK09P3Ouhcv98flpXvRqjHjne7XxWMItCqqkSAK3VdLw0GgwV91/9gMNDvw/1+X2r0i4PB4H9VVfVXg8HgCyLhbrc7PzMz011aWupffvnlul9p5d8JIpBEeILA5W2JwNmIwGAwkE2of/d3f7e1adOmenZ2dke/3985GAyu6vf7t/d6vT39fv/cbrcrMtwgJeZE5uQESSwvL1cYf8iq1+sdIy3uAU+lF4/pPldxqDS/h/sgQycwU4nDdJSe8uCeSJ6UPX5ChK4SIT7OUSZUZjyPSuU6pSU8RKL+r/PCDSwg2X6/3+v3+werqhJZ6n+u2+1+rq7r/9TpdH5/ZWXlgYmJiQOHDh3q33jjjVKpUqf6zL8GBJIIs2skAmOMwBe+8IWtvV5Pyu2Sbrd7e13XTzvqrhT5Se1t7Pf7k+12W/NtX0NeGHiMODBGEsPQ6zwkIKNe+oMonTz47m7PSHYQlhOkX6PzExMTQ1KJpFdKq5SeE1ck4tL1lNvr6dj4d1eSjiMDiHheOMVjGnAczVOqcq6qqvl+v/9ov9+/r9fr/XGr1fp9uWZXVlYOdTqd+V27dh0Z467/NVVPIsyekAiMAQIKPvnc5z430Wq1zh8MBs+pqurldV3vGgwG51VVNdtqtbZi3N1AO3FBeJAJZKZP3JnuFuQ8RtvVlRNhzC8qJt3n6kq/KYMrxegWjeTk18Y5wkiG/I6KsER4kRQpm/AqEWaJGEV4up66OsauEn2AAA6lQUO8jvY5ek+v1+s9rDnLqqr+uNfr3dtut/98cnLyK+12e/nqq69e9rnSMXg8qiTCcWjlrONYIvCnf/qnM7Ozsxd2u90X1HX9zVVVXSsinJiY2NiGWY6SiquQqDSiocW4uxLEWONybJoj84ZoIgk/7oTliiyqPa5zN627L3WvB854uhyPc3+jSM/v0X3U3wcOUZ1C/hA/ZAdWOq/7uc6VtK5xvMnTVae32ypEeKwZuKfX6630+/2FiYkJRcv+Za/X+4+DweA/ttvtv221WgrmOavVYxLhWJrIrPTZhoDm9r785S9PLywsXNDv9/dUVfUt7Xb7FkVjttvtyaNRk0P3IEbbDThEgVF2A1tSHEqvNH/FnFskQoy/KxO+x/m2SGCRMN1F69c6GfJ91HmILhKhK2MnzFK5/FqIDAKjnK6YUXE+8HDMS0S4ljZReiUi5LhjGEkyKvVYz8Fg8FhVVV/pdrv7qqq6p9Vq/Y2CeHbv3i3361nxl0R4VjRjVmJcERAB/tmf/dm1dV2/Y3p6+huqqrqw1WpNS/FpKR1uSYyxqxzICQMKifF7lOsNYx9deJEYnFD9nKs7d41CHqTrRnqUIoTMbBnE1yyTiArQjX1Ud1xLGZqI2dOErFCqcQ7U6+NkGAcZkShxl67WJk6E8TsDHrCkL/igRfmoLLiPvU0o49GBiyZ3FdU6X9f17z8+t/z+uq7/8KlPfeoDZ7I7NYlwXC1o1vuMRuAP/uAPNk9OTr641Wp9T7vd/rrp6emODBvBJm7knEAwtK6eopFdq9HF2KNi3KWH6nQyjYY4Kq/ViGcUEboCjIrRiQ7l20SEfm2pPODqCgui0fUQoZMH5W5Shu4qjUrc3alRyUUXtrebfy+p0KbOD/H6AKSElfrZysoK5Kn1kn9b1/Xv1nV9d7fb/cPrrrtu/5n0gCURnkmtlWUdewQ+/elPb+90Om/vdDr/QGv2NmzY0NqwYcOx+S8MGKP7Ugh/VIVhxP81LjY38nE+imAQyIHfXBfnxGLjRSXo50suybUowtI84IkQYVSinm5Ud072rmi5zq930hulDF2te/p+/1qIMJbB28aJnnJDhBH/EllPTU1pk4Jj/QUlqk0EFKHa7/fvWllZ+eRTnvIUzTue1n9JhKd182ThEoGvIvBHf/RHW5aWlr6r0+n846mpqR0yQsz3yUjpu6sdV1u4u0pYlgI4ovIoue9c8R11mR0L8ihdX8q7RBBO0iVVwrGmYBlXhjESFEwIqIFgmq5zMnASjt+jsgUPrnPCJ093V0YVGAcckQjj+ab2iQOcUnkiMXvdXAm6OxW8uBY8GSzoOIE97Xb7SKvV+q9VVf3M5OTkJ3fu3HlazismEaalTQROcwR+7/d+74aqqn6x0+k8c2ZmZuj+5B9jrZF5dA86abjBc8PtxnGUG26UW84Ns9KLSqWUn4ymqw9PIxraSEju+qRepaUREY9IhFH1+PVOyJQ1ukOdCPwcxBWJp0RMEdd4b5wjLCn0pnZzAo55Nw1CnKgdg1Ld46CDdvNP5cP84+Nu/Acf337u/7744ot/4XRb4J9EeJobwSzeeCPwyU9+8vVVVf18u93euHHjxmpycnLojpLhd/L76h7TX10iIOMTVU40yq5IHOGoLkq/GfFHpVJSLhhTJzoMaFxn56TGdycvVyselAIxRpVY+g1GJXwi4fo1Xh5XSrF3OmFEd6Jfy2DBBwkldQaJxLS8XeKcrrdPJNbSb+8b9IvSIIG29HbgOlfZzFXTPxkc2fKP+x/fh/Wfzs/Pf+iaa65ZOh2e8CTC06EVsgyJQAGBT33qUzsPHjz4F5s2bdouVygkKAMjVyjGR8YIIoyjdAy/k1QkPjdsJeKLCk/XoELiOYxeVInRAJcMrpMNhI7xjYrEg1KoI4Tov5tUYVyI7wrJyTcqvTjfGM+XBhWjyKhElq7kwDeqPv8dz3kbOMl5Oby+8RrvD034+2CgNBBxd6mTpfK1HXB+s9PpfPvp4C5NIkwTnAicpgh87GMf+0ePb3/2E9u2bRuu2duyZcux7cGcDFdzCzqpRHdZkxEsRSA2qUUML2k5OWJw3eBjGD3q1I10JL2o1DC8+iRdHxSUyC8ea1KETgLu4vOI2Eh+Xj6vL2WL0aKlgUh0kXo6pQjcqAjjQMfbAJxiW3BPVLFcV1LjEKMTZCRC9U0fMDhpagCn/ip1uLCgPcarf3vBBRf8vfV+BJMI17sFMv9EoAGBj370o/+l1WrdpqhQqUG5RvXH/CBGxYNhfH4NYxQjR0epBIyjKz43pG7cIzGWiDCqECcaNt6mnKPcjyVFqPucTEtBL02k6Nd6kIeTQMk16k3lROGDDcehVH8v9yhFGMkOFR1xL7lGS8diWbyuPkDyNtJx71NRIUbXqA9S9D2+ESQO2o4cGW5Y87qdO3f++noagiTC9UQ/804ERiDw8Y9//DO9Xu+pToQySj5H6Ma6SRnGLEapwhK5ubF2giypEM77OVduXpYS8ZG/q4iS+nCCG2WcMcT6lKp2w813J4To8tM5BhJOYH5dJFIfaEQXpO7ztXol1dikvL3dIEWlxTyiY1taRwipeRuN6hsl5QvWDMgiEdLu4O4DNwZwpKF+rLIfOXLk7vPPP//V67kgP4kwTXEicJoicM899/z1ysrKFVKCUn/69IhRXFAQDfOGkTjcMK9Gim6EUWyrEaGTXiTCSJZNREiZnRy511VGdLlhrJ2sIsE2uUUjTpFcSziWCLoJ39IAIA5CSsTvbk1IzucBKQMu09IcbiTT6P70Mns53QXspBfr7a5odyFD0JEI6aveTtynefCdO3c+s67rr76ocR3+kgjXAfTMMhFYCwL33HPPF1dWVi7Rkgm5Rlk4DxnGuRgRYVQ05IOxc6NXcof5fFSJ1Dx4g7Siu1R5lgI4MM5e91HEEutSUoEYaw/O8Dq7MWetJemsRoSuFH0zcdJ3JRjzLA04wMmVJWSPSnQCGzXA0HWOMZiX1ORqbe5lddUclTKKknpHAnQ8IELdgwcDb4a3mcp28ODBL+/cufOquq71kuJ1+UsiXBfYM9NEYHUE7rnnnvtXVlZ2btq0aWhMIhH6WkKlNipIIaoTJyWCOTC80cCOUoRurP26ksuPa/0To+huO+bbovuR326gVdaoTpxwSmrS84xzWE6cTrxxDjASeMm9GtVfE76OYRxElO6JZFdqg6gSuSYOXry+5E3d4twt1zqmEV9X6AwefNu/GK17lAgf2Llz5+V1Xa/bUookwtXtUV6RCKwLAp/4xCce6na7O0SEUjPT09NDox8VIcanRITRJYZxb1JsblRL6/wgTV4YiyssAhTfXRiNvRtzJxWf24pkQx5RyUbl6O7GqCI9DYx4nFt10uMa3Qf2kTw47qRAPrFsOu64Ur6o8CLZRXUeia5JHZYw80FQHFw4trFdHMsSAaIQlQbeiYgxWPvc9sGDBx/auXPnpUmE62JmMtNE4PRG4BOf+MT+brd7TpMi9DlC1YQFzBjy6LpDDXC+NI/kBjeSpV8fAz50jsANlMVqc1eeF0ZXx0ovtI0BHhjsSMQoS+rqBBwVDtdEsiRNN9aRBPjthKdjpYAlTwf3IAThLt1S+ShjSV26m9rVHO3k831x8OBeAH8KfLefSPiOQaxTHAT4Zg+lgYIPKg4ePPjgzp07L0siPL3tUZYuEVgXBO69995HlpaWtmuOUCNsXKOlqNFogDFiOo5BdGLEiHIsvvQVhcJxXc9b1PnuaoLrPILR1Z2ToxMk+TA3iYsRAotRke5yjarLVZU3mLtKRyk1V8+lwYQb+2j4ndggDNy2Tff5HBvE4G5h2jmqKtrWy+ukBQ6u/NbagV1Ne5olZeuBL7GOutfdzvRP/6RvHjx48P4LLrhArtGcI1xrQ+V1icC4IHDvvfceWFpa2uZE2BQ16srC8fH5M1dHEBbqRyTHa3UgNe0AouOQlJOiE1dUipAX93Ke454ORtvziUYdEoXQorrx+kYXIeecYKNRZzDgxyPZcK5JJfpx8tJuQPqjDSAG1BiK3gkRl6K3G8TqefiyEL/WBzt+XxwAxGfI8YnnIDk/7ml7+V0puxKMc7EeTPPII4985eKLL74yiXBcLFvWMxE4DgTuvffeR5eWlrZChJojRCXIkMQ5QSdDN+qMvEVsuL6WlpaGJCfy4ztuSVd/kJcfg9h0L2lCQBAkxOb3uyvPXZuRyCCKWIeo8qJr0xVhVEtN6mbUcVdnayFUJxvdyzwqJANh+G/aTHWmTV0B0sbuBWAw5ASLOvN7IZv4ZpI4aHLyioMB6oS6LblEPSiGtFRHd91TFpSiDwoOHDjw5aNEuHIcj8dJvTSDZU4qnJlYInDyEIhEKNfoaooQw+5zdjJiEJ6Ii986xj+Exm8RGK5Qvvs59jb1eSh3Cbp7TvdFEnMCinOJXOtG16+P3/Xb1aK7ZKO7s4n4nAxQcU0KMSpSCFl46d/L4q7c6LL0erNlHmTI3rIMXKIaZFchHxjpGL+13KZJhZXUJC5LD3KJqi/i7NGg7hqm/XyekH4LtqhF1U+K8NJLL73i8Y24kwhPnvnIlBKBswOBtRIhBgrVBmFJ6Yng/B9jjduz6by7LPU9qk0Mp89j+XxfJMI4XxjnAn1uCmKBtNzdxzFIKpISxOzqbJSai67jpnk3jqO8PN/FxcXhvpmoYAgEMkIxocBjO+m42gqcRUazs7PD/61bt35NZ3a17POK/l35ed4oMzZccALTOd+31tf8OWF6IJb3hSa3rJdHeJSIUNeoPgcOHPjKJZdckkR4dpitrEUicHIRuOeeew50u93hHKGMhj7dIEEYMiaPPfbY0O0ZSVC/Zaj51zXz8/PHIjxRe7i+SmrHSQVScpcdJIGRdvdonBd0UoIsIQ5XZU6MkaxGqUt3j0blGOfP3EXpdXT3HkonKkYvAwMOSBgC4W0h5IsrGULUIETHPEoWMkQRbt++fZhVxMhdoOCjdPju84+6nzxcuUGAKidvm9e1rixRqDoOwep63+fWiRU3vLcZafiAioGUMNu/f/9XLrvssiTCk2s+MrVE4OxA4J577tm/srJyDi/j1acMmbstZUyZ40OZ8CnC03d3bUbFBBnETxBknozzGFLfMiu6EF3x4Cp0NUTaEGaJeHwOkTydRL2FXUGOUn+4c1HQTjAxv5JbVNdD9m78Sc8DkHQ/ags1RH1Ffh6B64QNzigzr6fPJ+o6nydGdeFCdWUHEeKidrwpG/frE6KDKDU3LaKkHVxZ6lx8PZgPAMBV5fJBHHXWec0RXnrppQqWSdfo2WG6shaJwMlD4J577nloaWlph1xkjNIhPhGcCJBPueb0W+SHQsEwo66iQooljWpQ5yFCJ0aMvBs3JxeIEPeru2Nj5Cl5KC1fw+ZqLborKUskyEhwkcybWsbr6MrLidLVJMqGslMOnxvkXjCCoCDTEtbuTiY/yC/iAXF5QIqTt/oLhEW6jq9f62XBMxBVnsrBpg4iRV/KA/Hpk60AnTxV5xjYRfoq06FDh754ySWXXJ1EePJsR6aUCJw1CHz84x//cr/fv0hKUMYKohP5zc3NDeelcHmKAN3N5obT1/ZFcGQQUTkQiRt05reiIS4pQggXd6jKq+/61L+7BiFE3YN68chEJxJUcCQsyhuJ0t2Yfi66RsHCiSCSWiRGXIyupJxwHV/udRJ0ZR3JkLZwoifi0wcMYFNyT5InRKhyCvdSAJGXxTGLgx+IFAXqLlXUo/ITQeoflahN4iFNEae3LySt/nvo0KEvXHbZZdfmpttnjenKiiQCJw+B3/7t3/7CYDC4XIYI8oMADx8+fEwNSnHJIPmIHxdoycj7uZLa8mhGzruLKwZmcA1KUNfijsUFiJJV+VUX3HQEmDhZRPXppOPExD2oJv/tas7Lx3GCXiJJ8VuG2nHiu0igNO8JgTqZubsVEnYl5urQSROCwv1ZwgOiK83X4ZIlT+EdBwf6TT7eYyFBVH+sj/cDiI2yiOxEgvpUGUSCIkMCfyBIvBvKS/1hbm7uTy699NI9dV33Tt7Tc3wp5fKJ48Mrr04EnjQE7r777j8eDAbP1MtLcXkeOnRoqASlsNxQY8Awfqxh0++oBhjhu0KCIFB1kFkTEUKGBD3ofhGECI/0lS8BPLhHUYW4TXHteqANeTrhQlBOOFyHUvG5OCchGgx164QJQVBv6kM+pAnZ+sAhficNX3YCBtFN7crTg1xQv6hdbyPKLZLBDalP1pdyDKVIO/gbJZrUs7tiGVCBl+qgPKmfY+b9g3IpLZVJJKh/eTQgyc2bN1faMlDnlb6I8MiRI5++/PLLn1fXdf9Je7hCRkmE64V85psIrILAz//8z/9sVVVvFWkoKlQEKMMRA14wqm5so8KADBnFY2jdDerfOR+vc2WBEkA1eACI8tF5Vx26TtfIAEol6PuBAweOuU1F9lzv7lVI1Heqgbhj8Ar1AyMMvNIjWMZVshNcVNGOIQqqpEJ9mYEHsIiY+GOQwDIJAmYoP2WiDATW6D4CVXRM6YtERCaKKGXuTlhTR10DGeKCjErUiVZ5x0ER+Loa9bZkgFXqwgxgUIVqa9yk27Ztq7Zs2TJcFiJS1MBuaWnpNy677LI719MgJBGuJ/qZdyIwAoEf/uEfftGmTZvunZubazMHKAMaVZq70jBg7g5kJB/JAcUQ56oiITopukGFCHUetyhKVNfJ+EXV5EQoYhfBQy6uXIgylWL0iFN3uborljL6MgHceygbiMnJHCIEw4gbhOzuYlQeZAWOsSldZTEocIUICUIqPlghbZUHlapPqSsRiP5FKpAw5fZIVfJnnjGSYVR2eBUi+Xm9SmnEekOsDNBQreoPlP2cc86p9K9+3e1233XVVVf95HoagyTC9UQ/804ERiDw7ne/e2Z2dvYLnU5nxyOPPHLMPYXRd5cnc16jSAxClLGMRteVn6cRSdeVA0HWT4ZEAAAgAElEQVQTuPNQbkpbxk9GDxJyolIaUgkiQSkCjD0kFt2g7sp1Vyx18O3ccLmSFvNRru4gP/Jh8ODqkHzcVQyxKl9XdHwncEkEr2O4sKNSblLZ4OCuXgYHukd4iwilpkSCLKthDaAT8ihXLljEQYr/jorQXc0QphOpXw8BMkDSJ+0gMpSaPe+886oLLrhg6EpvtVo3XXfddf9jPY1BEuF6op95JwKrIPAP/+E//Mnp6envk8HA/YWbzlWKj+L5Ho24K7sm4vN7vGhuCHGFumvUA0hkvGWcUSyuOEUQMqQy4nITPvroo8eiCV3NlRQaagcXpytJlCJzp0SlQiqqC+Tg834lgnTF6N/d2IMTx8AExcd5Njjw31JBkCnubNoSEnHXphMUdYaohYVw1qBDf5pPPkouX/NOQNrSFR1pOdaxnelrpfspa8mjQPnwQoAjyyt27NgxJMKFhYUDs7Ozu3fv3v3l9TQGSYTriX7mnQisgsAP/uAPbjly5MivbN68+RtXVlZaPk8TDRBG2V2epbkf3jIRR/1xjsyVIW48DBpzgLjdMOjMhWnkf+655x5ThKSFa1eKUEYbIsR1iHF2YsDgOml5UAukJwL2PVN1vER6MQAmBsi4O3KUSgI/V9eOPZgoDREAbQFZoiRRjK4cXRU7GZMXSlu4SV1JJUqRClOli8tU5WHgUCJ4iM7blTpT3iblGLHxAVgkWdy/KpewEHmr3AsLC3++adOmW2+77bbD62kMkgjXE/3MOxFYAwLf+73fO1vX9fsmJydfNzExMe3LJFB2KBIRi8+rOXnw3d2L3C9DpSAMXePr+lw5RlVAoIbS8/k6kZGI7vzzz/+aaEMZZdSKFKFcowqWcVeaq1aOu1ElEAND7+Sh9FmvyNo5AkcgI9LkftKLblIGHO5idAXkytnJzwcP7qrEda366bvPdfr6Su6nXCx94D7aAGKR8hahyN2Ia1ZtgfsbT0Ic9ESSKxF+JEBPw5Wld2H6Id4L1Ye89B3cVV6R98LCwr987Wtf+4NreAxO6SVJhKcU3kw8ETg5COzdu3fyvvvu+45Op/Oe2dnZy9xQy6gqPF0G9a/+6q+Gc1P6E0nERdcyRGx7hjIhwIXRuqL6ZKhkwDxS0xUjSoIdRHROhlhpiIxEdBdddNHXzBHqHgy7iFLzg/pXPiwhcFWh7yVlgaLDGLuiirvqMI8pvIigxF1K2pAOmEJaHKeuJRdgJD4GKTruipC8qZ8Tob8SizIITwgzDlycTFW/nTt3Dl2jzEnGMjjpMRhydQjBRXUYCY72iO7TSKoocbUL7mz6nK5lb9Opqan/XVXVC173utfdd3KekhNPJYnwxLHLOxOBJx2Bt771rVt6vd73zc7Ovm1iYuKCVqtVQ1AiJVyTBGzI8LixVoE9chGjyk4xupYtszDmPhcZyYAdRXSN1AdEKDK99NJLh4YQ1yWKTdeIKKVeDx48OLyHaFKl42WOSg0SdNefE6GIloAZ3ILscem74XAMN6j/Zs0cCpBPcHaV7MoQAop4ucqmw0TyRhVChCyFIE/IGbJi8CD8RYRyNbK3LG5spYErOpIh5SgpOydLV6jUu5SWEyt1gDiZP3aMN2zY8HCr1brjzW9+858/6Q9RIcMkwtOhFbIMicBxIvD2t7/9nKWlpe+cnZ39+7Ozs1f2er02c0PuDnUVh1FDAWLYMFgycMwfQoIlo69jHpUpY6w8SVdkJMN8+eWXD0nN59CkfmTUpTjlFhURYtTdKGNM3cA6aeGy1HUlIkSNoUhUZleEECkkB0kqXYjQlRJl84EA35349D3OGTK4cFKPRKjfwoY8UVOOQ+wiykeuUSlvuRnZdQgXJG8ecWKjrWnXSISoT3dnxnwZqMS2IS1InLZh8AI2ExMTn+t0Oq9561vf+ifH2e1P2eVJhKcM2kw4ETj1CLzmNa9pb9269eUTExNvmpqaumliYuL8Vqs1wdyMqxhKg2JwdeJKzA2cG3ZXliI7yMiDTfRdalRrxK644oohQaJA9QkRypWnJSEQIfk3KUKOK0/cvRhe9ljVJ3OEECFzhKqrK0LcoxChE0BceO/zhGAX3cTkJ4wgQtzKysNdowwaPNLVo0sZGDD36gTqBKa8RIQXXnjhkAilCPWPApUyVvBMVHCuuJ3sXSVyj+cXSTMqR87jFQBT5msnJiYW+v3++yYmJv7VO97xjkdO/dOx9hySCNeOVV6ZCJzWCCioZnl5+Wntdvv26enpl3c6nadOTU1tj+5MVzdR4ch4oQY9KMddgHwXGJCcu9BEkgqUufrqq4dGGXLA/SdSkCJ8+OGHj7lGmSNkbgyi8TlC1BrBPBAF6xf1iUuYOSkUoROeu1chSlyPuFNdETkR+mDAFWFUgqhm6gUJQx6QA0oQAi+5Rim7dz6UttzYToSqv67X8aMbWg8VeFS39AEnvEh6XMO9TZ/uCvU0hMnRAZM2j/+5uq4/ND8//4W9e/eu21ZqTQ9wEuFpbdqycInAiSPw1re+9dxWq/WMlZWVV3Y6nZs2btz4lMnJyQ2KPEW1kDoKEsPoyyEgJycHyJJjrpRk1LVO7LLLLjsW7AKpyn0nI63lFfv37z+2oJ48PGjGDSzqAmJj2YbucyJk71Lyg/QgUX16sAykyvyV8IjzkqU5MwYBDAogwkiIKFneGE/6/ooqfWcjclfwTlY+IICQqJNco3JFK/AI17bOKV3hHd2rUfGjlvUpXHHbMgDwvCmfu5a9Lyntw4cPd7vd7sG6rrVX7vva7fZ/e8973nNaKcD4VCURnridyTsTgTMGgb1793Yeeuih6cdH5df2+/2XTE9P39HpdPRW8G1TU1NbXdm5AmKE765AGVu55JgDchLVdxGh1hBecsklx5ZGQJR6awaLqkWE+g2pECXpLjgnIScxDHEkwhg56eovBsuQBqrQiQcVFt2SPnCAACIZMlcaIyV9IwDeTu/uXFy85O0ubMqBwoZQlaZwlmtUwUcEJqlOykP4RtcogwrSp970AZ1X+4oUfZ5Rkcm0Ea/Yojz6XFlZuW95efmv6rr+iZWVld+rqmpx79693TPhIUkiPBNaKcuYCJwiBB7fuWbr0tLS9n6//+xWq/WCwWCwu9PpXD49Pb1xZmZGEarHFALqCQKUsfSIUBl+GV0ZTylCGWgMOESKIpRRfeihh4ZzWE6EbCkGAZZcoz5HqLKwMB2jLXXlygUybCJCd59GAmRQwIDAidDnA/kOmUDQKF1h5XOpKELKTB0IQnKCwQWrY7g5SVdlV3Su5lzZnACFJxLUYAMCo/7Ugbrqk8hOYYuqdbcp5Tkalby8sLBwuN1u7+/3+3/Z7XY/Pjk5+YkdO3Y89La3vW3d3jL/RB6RJMIngl7emwicZQgo+Gbbtm0tqcT5+flbqqp6zoYNG541NTV1heYb9d/v91uoHUiGUH3BoXNa5I0ixNDqU0TIy1ofeOCBoWLByKI2ogEGYh1nWzfUHESIsnLXKMThc4pOiq4WiXxVeqStfCEvJ0BIsUSEEApEyJwj+4GSjjCC/BTggkJ0lUZZUJzuqoQIpa7lgparWa5RrlX6X/nKV6q/+Zu/GS5V0ZysAphUDsrvc8WobV83iurUufn5+ftXVla+MD8///F2u/3bGzZs+MLCVxes9k/HOb/jfSyTCI8Xsbw+ERhTBBSMMzs7u3V5efnawWBwTavVun7Tpk27N27c+NxDhw5NoFZEBiJCzV0xP8VcmYiQRfhOhDrPbihxPsyJUNewzpFgGYJwRCbuGnUijMsj4kYDEKEbf1eHkAdE5e5QvqOeUVQesMPLakmHeU3m8YgajUToruEY4CKchKWIUJ8KPvI5US1PEcYsYOe9hR4EpfwWFxc1qbdY1/XC1NTUXL/ff7jb7Urp/fe6rj+9YcOGBw4dOiQ35+LZ2vWTCM/Wls16JQJPAgJSkDfddNO+paWlbzk6TzR0s8k1qmhGj6w8qiyOKcL77rvvaxQhi++j8ddvCAJF6G5a1JQ+fVE5LkJIz+cYcYdCHJEIUYVxjtDnSqMiRA3iLlZ5KINIyAN8fOmEBgdEkUbXKAMIBhmu5iIRshSFZteggDlYEe/c3Nx9dV3PTUxMiOzuGwwGf9jpdD7earW+ODc3t/+HfuiHBnVdD56EbnPaZZFEeNo1SRYoETizEPixH/uxH3rcKO9lQb+MrqIYteOJDDiKSZ8iKrnxREQiQhaRE4WKKkSNecQjQS2syYOkUFNKS+mLACBOd4W6WxW1GKM5nWAjIUN8uHJLrlEdEwEqf5WLyE7eyE7LHp1rG0aLssWavuMOjYSIuxj3KNep/HJB85JbpaFjR92u/+vhhx/+wbqu/3RxcXGx3W5rbm/lbFZ2J/rkJBGeKHJ5XyKQCAwR+JEf+ZHvn5qaei/bpOlTUYwQIQpJ10YilOHmz8lLxzx6FMMfyQwVyhwhRMgyDJZKQKIQHfONnGcuD+KEgEdFjXqADO5QCJDfrgiJGuWcCFD/bJLuROgRo2DhZIgrWXN+2sFHgwttYq70wG1+fv51b37zm389u+nqCCQRro5RXpEIJAIjEPjRH/3Rvz8zM/NzRI3qUwpFRCjj7cpJao35MgVzsAk3qtEjGZ0MdV5pyfDr35WR8pMKY75NeTQRYdx42+cOIUUn4EiEuHpVNie/SIRO/szR+Y41URESPap0laevp+SYK1TwEJYiQuYIdY3yW15e7i8sLDznTW960x9m510dgSTC1THKKxKBRGAEAj/2Yz/2hs2bN/8a82ciJG26rYAZiBCiE0lJvYh0vvzlLx8jQiWPcScrDD+kIxKTkSdYBsJy1yj7bZaIkHlBVKHSYyG9ryn0pRtOhLhvyRfyI/hE5wmCYQ5Q1yoPnyPUMcgbVcgnpOeKsDRnimJVRKiIUJhojhAcu93uytLS0i3f9m3f9v9l510dgSTC1THKKxKBRGAEAj/xEz/xmtnZ2X2QHUSogBmfT9P5SIS8MgrCxP3nqgwiFKGIvIh+1LW4ItmqTEQo96gToUhCf9zvu9Og0nwtIW5SjxpFCTJ351GjvpbS111CkCqzR42qLDrnJMjuMriA1+IaVf1FhNrTVeXX3q22AbrmA5/1+te//i+y866OQBLh6hjlFYlAIjCaCF+9efPmf4fxllHXujWIEJWi8yI+GW+RzJe+9KWhO1N/ECYuT45xL+TkbkYnQlyjWqDPnBuBKr6OEBXo6hDV5usHUYJ8OqEDBQrR1w6yfpBjug8ijFGjkB/bqzFHyKCAfKJ7lvMqL4pQ37WgXvU6GrCztLS0dP0b3vCGv87OuzoCSYSrY5RXJAKJwAgE/vW//tffsmnTpo+gwuSqlIHWAm5fkC7VJmOv+UN9l2vUtyFDdUVVSNYy8swRki5RmpCKFCFRmEpHxKlrWNAOARIsExfbO/H5fGUkQuY9VWe+sxgdMlSZXMUyPwlJUmY2CmeBPfXHVUyZwBciZFCAItS6Qch8YWFhvtfrXXLnnXceyM67OgJJhKtjlFckAonACAR+8id/8pWbN2/+KIZan5oHhAjdjSiS0tvpZfQVLAMR4gpVNhABqpBzLKZnu7KoCEWyUoROhJAPSlBEIQJBLfrCeuYL4xyhE5OvI1T5KD8uWidFlpPgznUiPLqQfVhWESGKlnWDKGFXyJyDCJl7FBGiCHVO3+fm5o60Wq1LXvWqV3114jD/RiKQRJgdJBFIBJ4QAu973/tePjs7+9uE9KMItfE2EZDKQOdl8EWSKEIUlZONB8n4XCHBMk6Eup+dZUQqECEkFANjXBGi1iDF6BqNblpIDoJG2ek3c4O4S9lCDeJlE2v9LilCXsPkO8tAur4Wk/WPDBiYI1RZtcUadTh8+PDhhYWFi9/4xjc+9oQad0xuTiIck4bOaiYCpwqBn/qpn/qGTZs23QsRiuyk+qQIZaBZWI4bU0Soa1CEJRVIWT1iEteoR42WXKPMuTnRuQqEHD1AxtcXepCMk6ETIRGjqN0SEbKuskkRsoZQipB5TcivNGdKpChby+kaEeFVV101hIuX8KrMBw8efKzf71905513fnVX8/xLRZh9IBFIBE4dAnfdddfXz87O/g6uOxGfyE7BMihCDLsIUBGUECGRlcyDMU/oShAyLClCXJLMtxEsozKshQiJsuRa1F7TFmu8HQNSVP5Nc4SUgbm8UXOERJBCduAFKaOocX2CkwYcegGyysErl1T2AwcOPLZp06YLv+EbvmHu1LX82ZNyKsKzpy2zJonAuiAgRbht27ahImQpgYjQXaMyzhh7LX/QtV/84hePvaaJwBDfU9Mrw2J3D5aBZJlf8zlCSNmjRIngZF6QT+Xjc4W614kQcuTTyc9JkPlC1jVyvYiQdYQiXIJiWEsoRcg8IUSIi9RdxqRHlKvOSRFq020d084yzB8eOXLkYKfTuegVr3jF/Lp0ijMs0yTCM6zBsriJwOmGwE//9E9/w+bNm+9FxaCatIQCwy+iYe2c76qi8wS9uBrygBUnFNyMHkkJ8YhMWFAPsfqWbO4ShVhZbgARQjwoL1dklA/y809coyorm4CzJhBFiHuWa5nbVJlRtJBwDJqhzcEFohbGIkL9sX5S348cOfLo8vKyXKN6VVL+rYJAEmF2kUQgEXhCCPzMz/zMizdv3vz/yvB7FKUMvwjGlRLrBpljwwXKUgcCQ2KBXBH6HCEBOBCJ3INSnk1E6HOBzBGyFIN9RiFZ5gc9olXlikToEaOcE8mJ8DzSFdco17OtGkTo5YYIPW+IlYGDyqIdfPRiXv1pICCspZoffvjhRzZs2HDRy172sqUn1LhjcnMS4Zg0dFYzEThVCPzcz/3cMUUIwcnIi5SkUvwltJCMSEFGXIbe3YCuzCIRxTlC7kWBRUUIeZJmaRE951B+KFRctK4IIUEnQqJEeY2SrkHxqd4scfA31Ose1KDcuax9VD0gcNSntxl4gKHO+cYFSov6PPjggw/u2LHj4ttvv717qtr9bEo3ifBsas2sSyKwDgj84i/+4otmZmY+qazdmGvOCjIUSeHWw3XKziia50KpQTYEr3Cc+T3cjKi4qAhHuUbdHerf4/IJyM8/UWbMD5bcomy/BvHrN7vK+OueIErfKNy3WGOeLypR3LUoV51XuuzdqjJpLlK4DwaD//KqV73q+evQHc7ILJMIz8hmy0InAqcPAiLC2dnZT8pQEwCi7yIl1raJEHHdyWCz3Ri10G8ZdEWUeqAKc3aKjkQR4nIVEUAqBOIQNVpyjSov7vWF9ZAsC+p1XUl9lRQhyx1YG4h7GNcogTIoQs77+kepZhbWkzeuUQjf5yw9ohY1zfyjrn/44YdXWq3WK77zO7/zd06fXnJ6lySJ8PRunyxdInDaI/ALv/ALd2zZsuU/EOjBi2l5QzrEJ4O/f//+IXm569GVD2sFpWzYFk0A+MJ45ghZT4c7UvlCiO7q9DlA1J+7QCEZd8vGoBQaAeLz5RO+zZrOazBA9GycI6SuHjEKETJ/CgkrD8jZo0fJQ/f5nKSu3b59u9468R1vectbPnTad5zTqIBJhKdRY2RREoEzEYEPfOADd8zMzPwHVBjzZSJCQvpFbCIHvSpIqk1GXIZbf5AO5AURQIpEfvpxnydztyUE5Ok6EZIHqlNlptzuemSOLs5TepmVB4rMy8A8KQQeXx3FFnD+9gmWVDiBqwz6c1crgTYoR/Yp3bRp06GJiYl/W9f1j7ztbW/74pnYj9azzEmE64l+5p0InAUI/PIv//Lts7Oz/wl3HvOEKEJUGOsMdVxvShAR8AcxodR86zWRg5/3NX8QghMjxBfn2JxwyZf7XAFCcJCpX8M8IASpayAs0oBcifKkTqRDsIy7U4kEZRABVv4bNap8lIbczuecc87Bbrf74/1+/xfe/e537z8LutO6VCGJcF1gz0wTgbMHgV/5lV/5utnZ2d9FHcl4y1A7Eaq2bMqt66QU5SZ15cUuL04yqCuWVUAyTkAQLYqOgBYQhqh8XhIy8fk2J8o4XwgRR9UKSft50o5qknJQdtQr84YaQPAGC44ROOP3Kjp0enp6YXJy8if7/f5Pvetd77r/7OlN61OTJML1wT1zTQTOGgQ+8IEP3Lply5bfh+ggQik+qRZUFIZfxl7BM0ejG4c4ELwCSUA47up0MnCSQz1BgE6krgoph5MfJOoEB5FRFggW1eYEF9Py/Fg36Go1qkzViTqi/tzNyjyoPhVMpFdYbd68eeWBBx544/d8z/fsO2s60TpXJIlwnRsgs08EznQEPvCBD9w4MzPzR1JRrnKIGsXAM9clgtQ5NqXWp8hCkaGQmqeDKxGXpS9hcKUIjq4IITiUW1R0useJjvOuOCEvd31y3ucIPdLU70EtUj6l4yTJcSlC8mBQAflqveAFF1xQ7dy5U2sQlz7/+c9f+V3f9V33nel953QpfxLh6dISWY5E4AxF4EMf+tD5g8HgS9qyE2KRQVdQjF4Wy6Jx9tOE7EScvkxAv5k3JHgEQmStoc/XuZvUiYvjPu/nZMcaQuYSfXNuCBMicxXqBOyRoU7a8RqI1ecteSWT8sAFqzSEk+73pRA6ruuvvPLK4dISnev1eotHjhy5IN81ePIemCTCk4dlppQIjC0C/+bf/Ju3rqys/NCGDRsulOGW0Zbqu//++48FxrC8QiARKMI6QLlQfVkEaUglHjX+Q7Xk0Z5EUEJWHrRCQ7hKgwwhPtLSJ/OTkbiiymS5AuV3tyzkKGXn7mDWDBIApPrwx9pJ5kpRzyoPalPXCIft27cPF8x3u92Hl5aWLr7zzjuXx7bDneSKJxGeZEAzuUTgdEdg3759k3Nzcy2Vc2Zmpl5cXGxNT0/Xs7Ozw2OPE9pgaWlpsGXLlsGhQ4f64q21GN0f//Ef3zQxMfGK+fn5N/b7/RsmJydnN2zYMKsIURGdFKGTlr5L6UkJfelLXxq+tolXN4m0fNmEyIO5OxQYxOJRmpBHiQiJ3oy71vCGCuXpKs3bEQIkeMeJPJIiAS9ezuiuVZ1FmMwBas5069atQ8JTXhoIsKxDKlluUZHgUcL8kW//9m//Z6d7PzuTypdEeCa1VpY1ETgBBPbt27dTxNTv958/MTFxU6/Xu7zdbp8zGAxa/X5fNkD/rXa7XaOa6rru67/dbveqqnqw3+9/pt/vf6zdbv9pp9O57yUveUljpOLevXtb27dvn5ibm7tgYWHh5oWFhT1TU1N3rKysXLO4uDjL29hVFXZekYFn71Ed53VLbE3G0gGdg1SiS5LjuER1re/M4m+fiN9RaShI7lMa7oKF5PSJAiTCE3WLqnOyJB2iQFkComvkPv7bv/3bYTDM+eeff0ydsmZRZRNp6p6ZmZmPnHPOOa+988471S75d5IQSCI8SUBmMonAeiPwqU99qvPYY4+ds7i4eFNVVa+cnp5+dq/Xu6Df72+uqmoaxcOnB4b40gHVIy4BCG7HlU6n88DS0tJ/6/V6H+v3+/9506ZND91+++2LozD4gR/4gU0LCwuXHD58+Jm9Xu+5nU7n1l6vt6ndbu/cunXrzHnnnTckOd9KjbL60gdXZXzn05djqCzuGvW5N/brJFrVXaO+FMKJMLpBIcI4XxiVIL+Z3yR9Xiklkvvc5z43jKKVKlRgjOrBnOnRIKSDj7ub93Y6nZ955zvfmW+UOMkPWxLhSQY0k0sEnmwE9u3bt6Pf739jq9X6R1VVPXVycrLVarVqdxM6+VE+V04lIoQQ/RNysajGQV3X2gJlcW5u7t8NBoN/8Y3f+I2fXSMG9d69e+v777//qnPPPff/mZyc/Hq2VSMwhMAWlhS4ixKlpnryqicPboHo3SUKMaI0ST+uYXS8PB8nOVd8UQVSJg+eoTzMeUoB6rvq+td//dfDdZWqP+7iTqdzpN/v//vFxcX3b9my5Y/e+c53PrZGXPOy40QgifA4AcvLE4H1RmDfvn3t5eXlC6T6Wq3Wm1dWVq6fnp7eKGPO5s4YZvb0dDLzfT4htkggvh7O18q5WnQi9WUPUosLCwv76rr++ZmZmb9cy6uA3vOe99y5devWf0vgCiSBcotEyPygyuN5x3LHpRE6L2L0gJkYNRoXwpMHJMxyDsgOl6j/xl0aiVD5M/+n+UAU6cMPP6z52D+Zn5//bLfb/a26rv/71NTUY+9617sOrnd/G4f8kwjHoZWzjmc8AoPBoP7ABz6wpd1u/72JiYl3VFW1SwZYARRSFDKu+uPlrr5VWVR2UR06ybhL1EGLZOiqUt9xScqws+n2UcJ99PDhw/9yMBjc9U3f9E2Hmxpi7969z9+wYcPvoZBEhBCWz9eRFwrQiZB5RNykMQLUXZ5EqDopxuUWTvqoQhShB8S4a9TVqbttSUvY46JVHW2x/f8+ePDg7nyj/Po8qkmE64N75poIrIqAyO/Xf/3XL1haWnppVVXfvbi4+NROpzMjAyoCxKDKgMtAoy70G6Jw0nO1FMkxEpsTHyTHNSzydkUIIXk6Oi8yOLpQfH55efnj/X7/R1/+8pf/Saz8e9/73tsmJib+C/ODIneP5mThPArL5wRRhB496nOakA3uT9yhBMz48gmfU/QBgrtHXfmV5gNjNCsuatQohAwRHsX3L++4446nrtop8oJTgkAS4SmBNRNNBE4MgZ/92Z+dmJycvKjb7b50YmLi7f1+/7rBYNBhXZ0bcVc8MuAYYMgPAiMMn4hFVzprIcdIkiUixNh7hKXKqjKRn9y1RxXn/1xcXPzBHTt2/Oc9e/as6Pxdd931LYPB4CO8qUFE75trU6eoAN0tiiKMCteDVHTOF9THOUKlzyJ3iN5doq5ImSOMitAVKd+9DLh7VUeWT9R1/V9vv/32206s1+RdTxSBJMInimDenwicBAR+9Vd/9YLFxcXXLC0tva3T6Vy+YcOGjRhMlhL4gnAMMgqG7cogOyfB0hxfVG5OYFENunqMVY1EqvOoU8oCGXKvRV51OUMAACAASURBVFv++fLy8lte8YpX/OH73//+719aWnov85y4RiEqJ3ePGvWAFa+Dz3lCQv5uv7h8ohQsU1KEpWAZV6SuWGkjj2SlTVUmtauI/ygeH3zhC1/4xpPQlTKJE0AgifAEQMtbEoEnisD73ve+qa1bt164uLj4osnJye9cWlp6Rl3XGxUx6C7B6M6DEAh4cYIokVSJqPy66PZkjtDJrymNEnli/EvpcI78RRpauN/r9T58//33Lz/22GPfIQIUQcRgmUiEEFJcShHVG6oZJYhbEiL0wYXPIaIGve64RFX+qAJ9UT3qGIWq693lSt6qp1Shlk08vrzlX9xxxx3/5In2q7z/xBBIIjwx3PKuROCEEHj/+99/XVVVf7+qKi13uLSu6w0y3iI8rR9jXg23oLvpdMznvuIc3VrUmivBeL2rKM5FN6vf70qPsrjxL+XleYgIFNxz9A3tK4888siE7md9HXtysqYOInV3qM45KZJ+JGnm53yeztcSRuUZidDTJX8vhwfPkLcPBiBcHWPpBm5g7SrT6/Xe8aIXveiuE+pUedMTRiCJ8AlDmAkkAs0ISPlt2rTp2m63++q6rt9Q1/VVWuMnI8giceaKcCW6+8zfiK7vTiSj1B5G2OcFS0RZIj+/zufJYn5xTi4qPidCyuOEglpDQWnbMW3UTeQr86Lx3pIa9ACV6NLktxMfUbUc89/uGmYg4BGpkXx9+UQMlKG+ECEuUX2q3fWpree63e5rX/jCF+ZrldbJmCQRrhPwme3ZjcAv//IvX7qysnJnr9d7U6vVekpd1+2pqamacH0Mr4yuz0+xp6YMKi40CAZ1CHLu1lzNBepoO/mVXKO61tVMqaUiOTlhNqlOV0q6BneiIkTZd1PX6LtUosjHMQAHXePbm/mShVgffuMadRdpEzFSfw/Q0TFfDhFdsq4SS6rYiZABkNy/1Lff77/o+c9//n88u5+K07d2SYSnb9tkyc4gBH7pl35put1ua6nDa3u93hu63e5lMzMzmwiIkCF08sNFh8rjbQPMU8nQQwIQF+dKpNZEhKXjq6nAEtGWmsIN/lrctNFdyW/VSyrw6JsVhlmp/lKItoPN8DhzgK4KIdSmOUvm53TeCcmXT7hrFMxKRIjii6oUlYi7OGLMWkhf4qIBgDA8+sqpPc973vP+5xnU5c+qoiYRnlXNmZV5MhHQOr8PfvCDFy0tLb2urus3DwYDKb+abcJ8QTiGEEJUOTG0GGcZRT+P4UahRLJZTbVBGu4qxB3p945Sk6uRJudjHpCWpx3TguR0DZGmRL/qGCQB0VFmHZdq5IW+HrUZ86C+rEOMihC8eVEu1zvmUYlC1J6vH2OA4GVx1ysbfIsIUYR1XV97yy23/O8ns/9mXn+HQBJh9oZE4DgQkPKbnJy8UMpveXn5Te12+2K9zUhuLkV8Mt8V56BQJa42IDZd6/NtTlbupoukcxzF/j8uXasrdTUiLKnTtZYLt6XnEcndd3IhIAW3pO8vGufwKINjSRugrP03Lml3oYK9E2GTInTXKPVxV7DyIgAK16iIUPlJ+VZVtfOWW255cK3Y5XUnF4EkwpOLZ6Z2FiKgRe5btmy5emlp6c5+v/96vcao0+lMsq8nbjVVXd/l4nMCQw1i5CEhPiMRsu7Nr4v3RJhL6nA1d2VMo0R6cV5vVPM6AUSiPR4S92v5fnSpxbG3uLuLlO9RAVNWj9h0RehEGF/MyznSAAc+m5ZPuHvWBzfuHXBFqHwUIFRV1ZZbbrklN9VeJ/uRRLhOwGe2pzcCenltVVVXdLvd1y8vL3+bXmfU6XSGrzKS0WS9G0EeuNhY3wcJ8Vkitya15wRWco+iUNai6krXNN3XRIRrbak4R7eamkQRevrRlerzdJpLE958Ht267dj7CUU8Ta5RV3q+sB6SjK9hii5SJ9u4rVoMonHSpI19NxtfPqHjjz766OJtt922Ya0453UnH4EkwpOPaaZ4hiLwqU99avrRRx+9YjAYvGJlZeWNS0tLT5fR1FsCWOSOWw1jR7CLfuMOlaH29X8Yw+jyhNAgT4gB4+9EsZoiLEHupOBpxSCQtai8tShQ6kNeJZXq6TStOYxK1pWm7hcBasmB/iE/iCoG8Oh6BiHuEvXvaqsSEdJuXq8YLYq7VtdAkH49aXhgjr47GT744IPzL3jBC2bO0MfmrCh2EuFZ0YxZiSeCwN133335YDD41omJiVdNT09fX1XVVhlj1vrpO8EcvtSBfSJ1DIOoa2WoS6otKrFIbk4gkUTitWtRg6MUWZNSpAz+SV2aMIa4IKVRBEi+TWUjX4JbCJSBvHU/QTQiQi2ziK5Rykle7gKNytCDZahHVPWk52RbilqFJCNxuzsWF6nc6spbfeyBBx44/IIXvEAvT86/dUIgiXCdgM9s1w+Bo27PHVVVvbDT6byprus97XZbrzgaFsojPHGduVrDsHrUJwaVczJ4cdutpuUGuseJYZRiWwsBokI8zSaVdaKtQNqrqT4nEc/LCXE1wnaXq5OcBh/aleXogvThqdJbN1CEKHba1NsKhehtD44+EIDsCY7xvU6dCB0fiNC3VlOa8jTougMHDjzy3Oc+99wTbYu874kjkET4xDHMFM4QBD784Q9f0uv1Xjk5Ofmmqqqe3u/3J1qtVlujcgW4YNRxa0ajGMmw5Op05cZ5VzM+f+TfycuNrhNiyU3qx1ZrAi9XiXhGpVU6F9NoumY1dRjn9ZqI3lWWk6jc0JBhaQ2ft4Gv5XMy9AhfyDEOHGiXSIQeyeq7ysR29Dlk9TXVR1HG+jt48OD9t9xyy4WrtWGeP3UIJBGeOmwz5dMAgQ996EMaab94MBh8V1VVN/Z6va284UDh65Aehhyj6MrQDa+TmhOhk5q73yKBRaLUbw+4Ub4ebRghjIQ2isC83GtVkqUmK5HZKBUHFlHpluribk2UG0rM82jKT2XTYvy5ubmhMiSAxpUj6bqL1L+zwwzkSLt6GuQP2aEIUaBxv1NcuBCqzxHKLarj6n/6O3To0BduvvnmK0+Dx2Vsi5BEOLZNf3ZX/EMf+tCufr//7n6//9Jer3dep9OpeaEtykDGjbVdMmwEMci4OclhzFjw7mrBVVskuVEIR2IqqcYmUuL4WhRhzMdddqPKt1raTaoyukxXI2BIE7L16/2YX+f1V5uoPdVmWoagNzmwlpP2cpd3JEN3iTohlsqtMjQRoUeORmzob5Ah3gcRoq49cuTIZ5/97Gdrbjr/1gmBJMJ1Aj6zPfkIfPCDH9xW1/ULu93uP1pYWNi9ZcuWGbk9Zbw0+mYkjqGSgSIaFGWCEtQnRhOF4p+U3ncscSUDkaBGXJ2h+iiHrvH5Q3eTrlWhNV3nBj26F13pRdLx8uo+iJp6xflON/6lyM0SwanMjnsJ31gvJ2jPU+lDhlKHcpmSHm3AQvYYPXo8rlEUYFSE1MOjWKkzSpN8WH+qvqnr5+bm/njPnj3POvlPRKa4VgSSCNeKVF53WiKwb9++dr/fv3ZlZeX7pP663e6lep0Ri9oZ5csoyRBBcER/OmFF15wbsiYjjXJEsThIJVXhapLvHnBB+Vh35mmMcpmWFJrnRbmi0iv9bqqDE2dp6QPEFjvKKFVYwi2m00SiYCXS0zXCTFhKFR48eHBIsixvoR8w0InuUMjRXeMlNR3XEPq8IOei6o5uWCJGea3W/Pz8H+zZs+c5p+UDNiaFSiIck4Y+26p59913b52fn39ur9d752AweO7k5OQmESDuMBkf3z8SworzRZGYnPBKbs+IoyvCkvry66P7k3O6Ly7KxmCz3kzGVWqEvxhI0+TybCJjJyAn5LW4Mpn7c2IEt5Jic5LmfCTumC/uTU+31IejKuT3gQMHhvOGkCNzwaTnc3YoNgYfcR4YrEibgYvSisEyvoSEvCBp8lGbQrg6t7Cw8B9uvPHGF59tz+iZVJ8kwjOptca8rFr20O12r1lZWfmOuq6/pa7rKzW6FgHqTwaK+RePCsTIRjL0405KTiolVRUVU0ynycg3pcX9bnBlUJmrdPXiqhACRRlFUnBSj2UuGezSsagYYzqxro4d30tqdbWuHNuA62N51OYQsit4Xffoo48O1SGDFY8CdkxLRBjbyqNb/W0XpbdQlJbJOMlChJD0ysrKT99www3fuxomef7UIZBEeOqwzZRPEgK/+Zu/ec7S0tI39/v9b2u1WjfWdT0rtceyB2Ujw+d7fDrpOclh4DjvZIHSWSuheLqu1Epk4Pm4korKzFWEvmtDZtQRO6D4fB33u0IskXqJwJxU4jxlvB6MIRuWKsQmjsqOupaUoF+LknfC454mlerYeTlQ/Yog1dIKFt27NwAiHBUs42Toc38lIlRZfGcZ2ox+BhHqE5WvPnx0d5w333DDDR84SY9LJnMCCCQRngBoecupR0AbXZ977rkXLi8vf0ev1/vO2dnZSxlpy5AQBAMhyhAxF+Nk52otKrfSnOAol50rt5LBb1JgTWg5OcSyubpRvUWIMppae+bzWCWl5OUs5Q05OfmMqttaW7ukDp3015KOE23EYLX7yYt5QbWvllY8/PDDw0/m5JwEIxG6y7Kk1CE8fwsFhOzq0FWqysGOMv6pPqy5zHa7fcMNN9zwJ6vVL8+fOgSSCE8dtpnyCSDwsY99bOORI0duqqrq+6uquqPX601v3Ljxa97szugao8WbAEQSuMqiAoP0otorEVBJgcTrqFp0VUYyLKnLqLZGBcGg9FAhMugYVpZ+qGxNwStORCUl6mTT5MKMJNl0XZMrNBKKKy2UpqtYrw/XjsqTAQUqjPlhyErBNCJDPw+GDJ7oS01ECL6jiJB5XspKfkQn80ne8mDs379f7Xnhnj177j+BxyVvOUkIJBGeJCAzmSeGwL59+65YXl7+nk6n8y2DweCidrs9zdIG3hXnYe+u/nTcg2RKSgIijEbYDfBqNSi5H0v34GJtSs/Vgq7xwJAmIqXckD6BM1oWon8FhhAJG19uWypHSfk62TupNRFhvIZ6xXk8yC4OMErXucKlXaOL1Ak9DiI4x7wgeEpRi3S8vVFnEJPPG4K3l1l5xQhf2gGCxDMBCSs/d4tCtLzB5KGHHlK7bbvhhhsOrtb/8vypQyCJ8NRhmymvAYEPf/jDz+12u/+41+u9cHZ2dgZDQUCBDBEGCoNIcANGzo1WVG7c49GdPscWlQhuLidMVxJOIE2GPBp8N9wRkqjYqFOc/+I64aPyaP5L/5Rt27Ztxzb7ZplI0xya17lEiD5X2kRqTlhN5M1xV6s+SPABgedDmVwNx3alfZir9PaKxEn+WnCv+ULeDuJb6cUo0kiEYEkQE3OGvnxC6brngXxRqJ6HiBBFODExMbt79+65NTwueckpQiCJ8BQBm8k2I/DRj370/IWFhdf0er23DwaDKzds2DApI+EvutXdjNQZVZOiz+1hLN2FFo2i318654bcjXMksEhwo9q4pK6aro9kE4N2vByoJKXlc4fawFn4ycCiXJzwYt4ol5LL0QNnIqn4QMGJ1vEv5VWq+yjlTPl0jS8bKQ10IhF7P3HVquMKnhEhKp0TIULfSF3pscAeRUi/dYJ2xYkK5c0mjzzySPX5z3++c+edd/bSZqwfAkmE64f9WOW8d+/e1nXXXfesuq7/aavVeklVVdMy6prXk/HW3BeGXIZDhsSJ0N2STmY+csewltRBvF/gOwmUVBzHPAJwrY3GveTh6eu7u0ObytGkODkuoyqchJ2UjoyrtpEjWCS6XEe5LL0Ma1GEJbIeRfR+zgcbo+5R/4Bs4mAl3ucEiZs8toHSE1ZaUiG8dJ7lNq7WdNxd6fQVYcQgA0XoRMhyF91P/6UvMp+rfCBB5fHII48c3LNnz7a19qu87tQgkER4anDNVI8isG/fvosGg8HfW1lZ0abXl09NTW2QUWDLM0bObECs2zCA7sJ0o8Z5jKOrEVeLGDAMW5NSKakMTycSihtlyKWJ8LwMpe8lQm4iUVdxGGLKKRwVgah7t27dekwZUtboeoxkhKLxemP43d1HeaN72YneMXE1G4/7OS9PyTV6PEQ4SsUqH0XfigxFXBBgk2vUVauTn7tG/TvlhIzpzx7g5ZHOjz766CN79uzJVzCts8VMIlznBjgbs9fCd73jr9/vv6eqqltbrdZWGRSNhKX6mMOCoHwbLIw9gR8QJXN8Os/1ws4NtystV3O6xhWhj/AjCZYMbonkTrTdovJ0VyNpxmtK6gfiYv6UaFm5/qR6tMmABhc+P1ciWFeCsZ4eiOL30kZO4qPK7Hl4XaJKjmUpzRGulRD9Oh+A0EdEhnKRigx9gTvuUgZXsd4qY1SBDBhcEboqVT0iEbKU48CBA/fddNNNF51of8r7Tg4CSYQnB8dMpaqqffv27RwMBq9eWVl5e1VVV8zOzk77iJv5EUb/kJi7oUrE5OqD735PdOuVGqOkWFwpRldlibDWcmy1joCBdRKJrlcPziE9VA7nnLQ4h3rBVarfIkMGAijpqMycKFbDoVS/1Vy4fo/nXVL8o9R30yCiRI7uJvfzSp8dZpgvRLV5gJbyAi/6q+8l6nOFShNV6O2qupKXyiPyIxKaAcz+/fs/f9NNN129Wr/J86cWgSTCU4vvWZ/67/zO78wcOXLkxn6//9Zut/uSXq93zubNm4dzLzIWKDsIMSo4yCiOwKPRiwQZf7s7rGSYS2rI3XEYSyfVqAZKqoc0nJhKZF5SQqjBqATdNVhyM0bi9+hE5S3cFcEoxSPcFVGK4UbxeLpOtiUlNaoTU/94H8rLMWxSjbFt1oplCWdvj3hefc+VmgYMwkjRt76OkO/eJ8DY3aC+gB7PBWX3/shABCJEHer4gQMH/uzZz3727rPeUJzmFUwiPM0b6HQt3m/91m9dsri4+JbBYPBtk5OTmgeclPoQAeIi0ncfVTPydtKLc3qRFFxBNRnSEsnEY033usEqKZcTxX9UWUuGv6QUS2mU3Izuqox10ObT+tuxY8ewXcDb57Bcxaylvk0KcC33evuuVj8nstVINJ6Pbl7UGYSFe13rC3GR8sLmmC8DFshQv0uKMKp11RW3qNJkblDHmB44fPjw799www3POx7s8tqTj0AS4cnH9KxNUbu+rKys7O71et/darVeVlXVuSg9Xi2Dy0cgyDDI3YQRYoSNceA3hqc0n6VzPr/nRn+U8isRoV8fv69moF35+LUlYorqiOtLxtmJuKRaY2cq5ReVq+cvTA8dOjQkwfPOO2+IpeO8WmfFxRix9rrEMpWwKuXjhFNSqE5uPlAoEXcprTiook9CUJRTmxGIDNm71gcMXn8IsUSEURF6X1c+7CrDG1FY5rKwsHDvM57xjJeu1g55/tQikER4avE9K1Lft2/fbKvVenW/3/++Xq/39Ha73ZH6w9Xj+37KcBCNJ3LkXXE+p1eav5GxiHNlkRgicfr56AaLhnuUIiRd7omBNbERj9fQk64Hn2DMIXYwicdLRBjz998QhtJVO+Ci1hZjGrRoeQUvqOW+SDhObKNwK90f7y0NVppUuBNcbM/VylEafMR+1jQgEYmJDFnywEDN5zBdFTYpQq+79yWVXdjzvChdPTN6NhYXF+96xjOe8Y6zwlCcwZVIIjyDG+9UFn3fvn0b6rq+oaqq7+r1eq9ot9s7RGy4OxnlYix42H3BN8fiyDyO7p3gSgYvGlcnTcfAlWcTeTnhlEjGl2Z4uaOCPB5l5UQVicHnrNZKsLHcPoBwAtF3n/968MEHh4ON7du3H3PZUQ/K0aT8Sniu1v9KJOj3rIWonGx94ONKLQ6QYn+DYL2vQmw6p+MiJXad4e0Q3hd1vTBC+fHd5wl9EEOZmJP1YBl917Mkt2y3233l0572tI+thmWeP7UIJBGeWnzPuNT37du3paqq13Y6ne9vt9t68/vXKAkZBIIJIEOIjU83OHz3+RWCB0rGNaqbONKPxqnJQLsRblITTsglAiiVhfLE0b+Xo0RopTJ4/pGI3FBHwx7dkk5+0U2J4ZZxl0KUm1THzjnnnGE7suyi5JYu5eNzi05Sq5Fe6UFwxdX0oJTIr9QnSu3n6VNWPBNKgwGEBj/CQcSkgQPkyLXgoOt9b1F+E0CDuvcIUt8f1xWhlLncsf1+f9euXbs+c8YZirOswEmEZ1mDnkh1fumXfml6ZmZmV6/Xe0e323355OTkDsLuWfvn5EYkKIY8bnDsI/SohjgX5/1KKjGSS1Q70eg7SUUyikRUcs+NUmR+/ah8V8O/RIioskjyx6MQSy5JygJ5gbk2n1abKbpXZKjzalPfyuxE6uEEBV6j3KDksRqJQjClMjlROn6jBj8lda+0VX9FkjI4iH0UVYga9EjSpqhRd7PiHhX28qwcOXKkNxgMztu1a9dXI5ryb90QSCJcN+jXP+OjBPiWVqv1trqun6YHW3tWivxkECBBiE4PNa6eSHZOUnHErt+uLkrnS+QZDeQo5QOauMzcdTmKBEtpNhnm0nHIyg1/U/1HzT1G49xkyNfSa5x8wAEjThkeeOCBIfkpgIZzTap1tQEH7Vsicm/XWPZIlk2/m/qLH4/t4ARZIuhYZu6XB0SqEPL1dMBJ17jqc5epY6Xv/kYLtlfDNTo3N7e4srJybm64vZZefWqvSSI8tfiedqlrz8/rr7/+ysFg8M5ut/u6drt9rtw0GqFiNPXw6hgPsj71z4J4N9rReI5Sdn7ueA19JNqScRbYJbJpItDjLYOTeRNZYlCjmnNVU7qmlLYbdyeUWPdR9fB83T2tOSqRoc5raQWBIt5hRym1JtIsHW9qq+PBP6q94y0b+NGXmwhaGLkqdCKE8JSGL67XcYgxtjuuUdYOMv+oZ2lhYWFudnZ2xyWXXLJw2hmKMStQEuEYNPhgMKh/4zd+Y3NVVa+q6/oddV3vruu6Q+ALBIfiI2CEtVYe1OBzLG5MYkh+E0GWlGOToaRpPKCEY01GdC2k4EY0Bl14d4iqgvtidGt0bTqpxe7VVD7SLOVfSiMSZwlDyuXlpQ5qWykf3KQiQ09T5YQcS8Tr2PAdLGMdXD35OR+0+OCgRMZNxBuxpn6lsihdLwtz1Sg9yiNciHYmPQhUx1GTzBFyP8ddbY4iwvn5+ccmJibOu+aaa5bGwAyd1lVMIjytm+eJF+7uu+++anFx8Z/Udf2tExMTmyYmJlq+Ez7rAFFTvvOIzwtCev7po+w4Yi+N4D1IZpRKcKLy60p5NJ0vIReVGAo1phFJxg2b1zkafE+niZhKBp1BRBwkHE/rx7yVlgeLuDLUcdbK8TYGXS8yVFl8zteNeyQxJwkvu75DOJGQXOWOchWPIv/VBkOxj/qAyhUb7R/bV79FeOwpSh1c+cUF9U6GXvaSa5TlK8vLywd7vd75u3bt+mqETv6tGwJJhOsG/anLWAvf5+fnn/f4g7u33+/fPDMzU7PgnYhPf0AxmiWiwli4QXMDUlIGbojciJBPvKdkUD0/P99ExE2k5MRDOk6IpfMllVEyvqVyO4m70S2Vz0mhRIJNJB+JuoQnOEXipXyusnkbgwy0tmOjfaN68vI4ycZBEkTog4YSUbPUJvatpvo5KXudHVsn/BL+JTya+g5kyHlUIS5Sd49ChF525VUiQvYfXV5e3n/48OEL9+zZ81WZmX/rhkAS4bpBf/Iz/shHPnLBysrKG1ut1juXlpYu2LRpU1uRgRg05v14QJ2Y9ADzgFKyGA3qRiSSCUYiGkVfVxiNxCgEosHCCOLuczXh5FNKs1RuJzaMZ0nReT1j2pDJqDwjqfo9TqRO0jG9eK6kNksYNBExWOo8UaMK5dfSCr3CiXcauiKKZYIsPd840ADXJteov0XEyxSJzftU7EMlLOKgZVQ7eb+KaRM4QxQp50cRoddDfTS6Rtl0W/gtLi7ef//99196++23d0++NcgUjweBJMLjQes0vPbXfu3XNrfb7ecNBoN3DwaDm6ampjZK/UF6vqBXx91YlRaPu9HBUEUXUjTuUc048TiZekBByS3WlG4T7CU1t5Zro6GN6iKSH4YUsnc1NKoeayFIXeOGukkZlgYGbnSdkEYRIGUCay+/yFBvZJAq5BVOTe7LpvIofQYrrs6aBitg6vWO5Bb7H32UepbSjsea8vc0SNcJnCUV3parEaE/Q6U5QuUpQlxcXPzKtddee1ld1/l2+nW2rUmE69wAJ5r9hz/84Uvquv4H09PT393tdmfb7fbQ/UkADG5OJyKdK6kyJwJ3mbkRLLkq/YGPo3BPE+WJ0cNYYshJxwNGmtRnSTmMMspRpUTSg4hiGn6d0kDZxvubiKJJoXkdXRGW8ANzvy7iGjEsXTuqj0VC1CbdUkBShgyc/P6SQnbigrR83lPHfDARydixgkS9b+leNqluIjTHwdu0VF7yj2XyvL2MCp7xhfQqgzBCMZO3K19wcCLUd2Gqc/qcn5//0jXXXHNFEuGJWsGTd18S4cnD8pSnpLm/gwcPvmhiYuKftdvt3e12e5IX3frO9v6AExiDMXEViFHhmCs2PaweUs+D7cTixioaw2hsZGQwiHFE70Ynpu+j9CbCG0WEboRjA0Xl4WTUdM7LCiaj8vfylzDSMcjRSSQGKp1I52oqFxi7ctMxdpq57777hi/25fVNsZ1doZXKVVJqEU9Xi2upW9OcZOneprYb1d7eX2OfEeGxtpDBHMEy/KYdvTwMRpmX9zfTaxnF4uLiF6+++uorkwjX0gNO7TVJhKcW3yecutb9XXPNNVdVVfXtGzdu/O75+flzZ2Zmhq5P5iB8GycIRxm7KsSYubLjGh81N42446jdf3O/V3bUyN0NqV+HoWpSZ5GESiRZSs+vc6PeROSREEsqMiqN0jVKp0R+ES/aBAPMeVfnTWWKmEeF10RUMS8vv+bGtKxCmyuIDJ2oiTYtYRcJsqROR/WvUaQa29rrSfkcaydajjf1Ne9vHu2qPPntZMhxzvHJT3SQPQAAIABJREFU7jKOJVHZekYhQn0e3crtS1ddddXldV33n7ChyASeEAJJhE8IvlN381133TW7cePG2x8fOe7tdDrPmJ6e7kB8IkGMju/7qWNOhPx2950bQDdcq6karynXHu89kTwhirWmA0GgZGKYfySeJsMa6+IGu1QmN2yRAJ2g1pr/qEGCl2WUaopkGom4iZRG9VgnEu27+dhjjw2Vof5RPmDf1GajBlWlQUEJM8oeCSy206h+U1J/3O8ek9iX3SvCQFHHNDjQUhPSjSTIvKEPEJQ2UaMsqMeDc3Q94t9ceeWVUoSDU2dJMuW1IJBEuBaUnrxr6ve+972Xzs7Ofs/mzZvfXFXVeYr6VOCCRptyp7irU8XiQeOhxYgwSnZi9AebBzaeH1VVSDRG+5XuKRn7EhE68WD4R93bRETcy9yU6kW0X4nEyTfO8WHwGUSQHniVytZEQiXD7+mTVul+7vVzayFGV5FrHWA4wYCb+pXmC7W0Qht0Sx0KTy9/bHcn57Xm7biW6tw0CGnqB0rP5+o8/fg99gv6t/dJ+gcRpMwVKg/6BrjE/qb0fLkSilDYHlWPf33FFVdcnUT45BnYppySCNexDV7zmtdsEJdt2bJlZmpq6mk7dux49bXXXvva6enp7e5GwRiICPljXaC7rXjQdb0eNJZDuNGIBgoidCMW3afR+HsaUZmUjGOTwYyuqqbAk3h/iUCaDOZaCTmqDR/Zk79fM0oRrWUwUWqTUSSLcY9LXDwvSIoBD+dKZS3Vl7liKR824X7ooYeGgR1abK/2kUtv1OCpRGZejlHtEfEtXQtJxfbxfug4NA1g4iDF1aIPOMBO+KvuvJ3CBwWuDr09hFMkQh/IDgaD/3XllVc+fR1NUGZ9FIEkwpPcFV7zmte0d+zYsWFxcXHzysrK01ut1rNnZ2dfWNf11d1ut7O0tNTudrsT/X6/rQdOxmd6enqzXFEiuvPPP3/oijr33HOHbwfQMc0JKopPDx/rvnScEWyTYfLjbqD8OwryeEbwpOvGpER2qJNorDFmTmhR7USVFNOg3CWSdPfdKGNKHk15RdUxSrHEayOetFVsh1H3UUcMuw9umgYcMfDmeLo3Ayj6pT5l+KUM5Y6XMpQyalp2E9ViU/+gral703WOYcTe+9Ba6xjb2cnTCY/AMuXpfVj4652F+kMRck1UoQxGfI7Q3z5x9Pr/fuWVV96y1vLndacOgSTCk4Tt61//+sump6dfef75579hamrq+iNHjogMO4ReM4fgWzcReebbNRGpicHRSFxvCNiyZUt16aWXVhdeeOGQJEWEuGYYdfroV+d5Kasect4rGEfLTSoMYxWJpImAmgxzE7zR+DkpOkGNMpLR8GIcowEdpTS9fl5nVxyl45SrqXxNeZYUNPVwJe4DFM47RlHtOaGWSCMqFU/T60r/Iz2VSWsLNV+ofih1SFCI+h+v5OKY98GIjRNfqbzc6+3n5OXpjapj7LPU3fErtZ+nz2Aq3sM7Cxk0+OuX/NnSeQ9WgxDZdFtl6na7n7rqqqteeJJMUCbzBBBIIjxB8F760pdObdy48dLp6elvvfTSS9/S6XQuW1hYaEN0ToDKgle3+FwDD5Fv1cRok5Em65VkdPQQaa5GZHjVVVdVN9xww9BlhRuVUSpuLSlLlUNpyICxYfBalA4jWjdsbjAjUUQYIYLSqDsaSFSMG8ISAa+lqRgcOJl6fT0viNPTjSoxkmqsj88hRnKKxBzTdmMc1VFc5lIqY2yP0m9wdOJgTWQkr0hUrpJEhupL6m/8qT/hotfcWVRcq7VXaTAUg72cxGg7HwB5+6wlPx9goOK8HKWBiqerekoV8qz5xuQ+oNE9PjXBjjKowqNE+MErr7zyjauVO8+fegSSCI8T45e97GWXbdiw4e2XXHLJd8zNzW1fXl5us1u9Ros8IB604aNDIj+ZMIcgCc/WZ9zDEFLEEDA/oSAakeK1115b7dq1q7ryyiuHypHAGpWLyEod8wX1bqSddHwk3BQUUyKHCGM0+vF8SUmhvKIxiuqhiVxHkaerrUgOTWWPxEL5nEybFGGTgS4dH5WGro/k7eVajQhKRBhVVmxPV0E6pz6pvvDFL35x6K7Xkgr9ERyylv4QBwWOeUk5RuKPCtYHHd7uTWrQBz1NKnMtpkBtISLUc+vBMU6qkG1JETJHqGsefz73XnPNNf98LfnmNacWgSTC1fGt77jjDu3+8OoLL7zwe+u6vujIkSMTjz766FCJzc3NDcOq9affpQcCY+KEqO+EVOM2wVjrAROpKl2RGYaQiD7IkwXQOi4C1BzOc5/73Op5z3vecKQu9ahrmbRXBCC7hbiBhFjcnafzpeUJboRdZXB8lCFazWjH+a2YvquDprRWM/wlEi0RYRM5uQF24xoNN8awpHqa8ot1Io0S8fq1bthHKZo4OHF8IdyojjiuvqH+o/WFmsfWoIpBn+oT+05pMBPJiGtc4cU2LpG097XVH9+/u8IJnnqS91rSoSx6NvXcowZ1b5wj1LXshuPPOc+6zi8uLn7TU57ylH+/lrzzmlOLQBJhM771rbfeetvFF1/8UwsLC7tFSBoJaj9GSE8kwwgP1eYG0A2UkwoPH/OGPqGue3xjXuUhAyRS1CcEqnvdHYX7k7nB5zznOdXNN99cXXfddcNRfAxwiMaTcuuzNNKPhr4EW8k4Y/xKxIUh5Nzx5BuNmhu2ErE7CUSFVSJHJwQn9yYDvxo+fp8TfokUR6UVXb9xYOKYxkEJdYrzl7pHx9SfPH2O6z71Q/WjL33pS8Pibd++/dhOND5oKhHxKMUWCYl+6IRIHSNx+qDECc3LoOPUN+Lh5B+fhzgI8/6mfqoNynlnIe0ZsfONLrAT+sT92+12d11zzTWfObUmPlNfCwJJhAWUbr/99m/asWPHP19cXNx16NChjgwEnR7Vpk7PiA9XJWRXUkVRqfjDzcjayQgV5wvmRcYaiYqQiSDEAOh65gBFhiqzVKLcpS95yUuGrlPWITKCdXKIxnGUIvL7Ikk48ZXID7jdVckxJ8JomLyZHEs3/G4onSAi0TURQuwKkVybSGYUyUdDXOoblLWEpRMChjvWLRJnEylEQqG/uSfCjTmuPXaT0Tn1cZGh5grZmBvC5DkgHyf8Ehk6vuTLgC0+L94fIkk6aXm/jQMzn65wjGLZnGC9P/t1Bw8e/Jpt10qDKQKJhKO/A/SonVhaXFy8cNeuXQfWYqjzmlOLQBLh3+FbP//5z3/mueeee9f8/PxzpL5EOv6iWn+wSg9cieziQ8WDVXr44sPuhKPvkKIeaClE5iogNidFyscI9PLLL6++/uu/fkiIijrVeSbuIfmmsHgfpUcjW6qfG2o3JKuRZEntNKXvx0eR9qj7m4i6pGpKxrGkMEpE19Rv1lK343n8ydsNfsS/RLqRWEoDAh8EiPC+8pWvVBdddNGxwSBu+xJJU57Y90s4jxpUlMoF2ToZ+nXeN0r9xAcqJaxjuspPA0pF0SqAqOS2RvH5J14etlo7fPjw/t27d/9d5NHxNHRee9IRSCKsquoFL3hBZ2pq6r0zMzNv2b9//4xIkPk+5uHcyJTC3OND3jTyjwTo5OlGQA9YkwvLiUkqkZBuRuTcp3OaE9SfiFNrwRRtKkLcs2fPcH0igTVuEHD5uhGIxhwj5tGhTcQyihziaL5k0OL8E9eUAmDiEzLKsI4aeMRylMoVy14iGXAlLzfcUbHEvuFEAdHEPhGNfkmZlDBx9TxqgMfAx4lQ6T3yyCPDvnPBBRcMP4lULg1QULKRiJqIsNRfmo6VBmaebix/U//w+nm7xsEZ7adnRKqQZU5eN6UFCep7nCOUTZmbm/vsM57xjOtPukXPBE8IgbEnwuc///mXbNu27RcOHz789XqgCSlnt/m4k0cTcZWONxlPN8B+X5MhdWXIpDyuU8hARMe/u7IgRxbg68HVsgpFmr7oRS8aziMSTs+cBobL8/WRvvc0J+VoBFU2VwOki5GIxsONFmmVDH8T1k1Kzg09ZSoRRiTYJkPtJBJVXRPpN5XN6+lzTU3zWhHjaPSbSI+BWjT4JQJoUoQcVx3Vjx5++OHhXKFc8Gw95teU2tOPxX7WpMjoY5FIqRP3lQaPTpSxD5faKg4sPE/6jp4pkRlb0GkQUFqKgmsZ16juwcO0sLDwq7t37/72E7LaedNJR2CsifDmm2++cevWrb995MiRnQSe8HDiAoF4fEQP+cRRcml0XjJMJXeKGxDPi9ElDzkPtj6Zs8H9qd+oQ9y6PKBOQqhAHVOU6e233149/elPH47qNQDQ3I/SQU2uZkCi6okGpqR0nJxW69VOUBFjJ1vag/bxgUjMrzRIKbVVE7F5O0QPAXh4Hhxbra6lfuAGv4kUYl5xEOPp+oDLv5cGJt72ngfLfaQM5WVQf1H/4RrHxwd+sS6evw8wViOpUrlL885OhKU+F89HHGMfUhqsn1TAjFyk9EHKzDPLJ4NWpiL0/K2srLz6mc985m+utT/kdacWgbElwttuu+0V55xzzi8+8MAD50b3pzouKonlB/GBLT3QcYRK05UI041ONJwlI+0jaX/gUVzMH3Kd1KEeVBGb1CCuNV3HTvoyXCI7bd/2spe9rHrxi188jAz0aFg3hFHVlIwthnrUfJ8bDL674XPDGfOIuJXaxXH3gI1RjxIDBV3TpEIjmTWRj+cTy99kjP2eJrd4E3k7JiUyL9U7Eo0TAv3Yyx6vRxXdf//9Qw+DluqMKgft5APL4yEmv582GpUf/T0OnNZCsP4cN2Gu9DWFQvQo9oJyOhlG1+jS0tLc8vLyZTfffPMjp9a8Z+prRWAsifA5z3nON2/cuPFXFhYWNjHCi4vHdRwXY9MDG4khjlJ99O7XYmghi0gabnD9QfT5JR3HbavvHiDBCJRdbqQONWJ3QibilTkO1VUj+1e96lVDdynkSSRsrIsbS845aa7WAUuYRuVQIsRopEu/S3mX1ELpulK5mohhNaMaidPT9u9NBt2PN2GxGs5NZY9kHYmwROYc41phqn71wAMPVFdfffVw0EVfaBr8+YAjtjdlLQ0wViPZUn0ow6h7V0u31AZ6JlhqonlCBa354AkS5BgBMgywFxcXP79x48brd+3atbyW9strTj0CY0eEt9566ys3b978q48++ujmEpGtBXIe4JLqweCy2JaRKSNGiJdRrT59HlIPXlyoy4PlhqhUTjfM/mASUCOV6HOMSpddbFjLKLeo1iBKIT7lKU8ZrpvUMf3J6Ok7Bt5H98z7NRlex9qJ0wcPsX7R+MfR+WqkVbq+pITIt5Seu1ljHbgvumJHkTN5RAwYzPiAw13ofnyU0fe6lIx87POQmhMY5S+RIdczEFP/efDBB4eBWIpG9rnCpnWhXgYvo5elVHbarkROo56HJlXnxLtWzwFtjddErlGRoQ+0eBZ45n03maM7Sn3kxhtv/Na12Jq85slBYKyI8Lbbbtu9ZcuW3zt48OAWD+IoPfhu7Esj+aYH1Q0awTfKC3W2c+fOY+8X1AMicmG7JpWDBzKuUXSiiWWHTLzLYDQwOrqHHWsIBKLeKodIEkLWtQqN/+Zv/ubhLjXM/WhrLbmC/M0XkHSJREqKyMs1ivi8TtHwxTSc3GK7OPE0GUvywiXpasaN71qJMJJtiVAYqLiR9kFKJEYGTj74KvXBWMdY5njPaqRSIpFYNg2WFDgjVajyeT1K5XEC8j6w2sB0tXaGSCO21KHJK+ADjtLAzOtA2mw7p7rrmfBgGZ5V1UfPDn96bvRcLy0tfeOePXs+/uSY+MxlLQiMDRHeeuutF27btu1/7N+//0JGaqMeLH8gRikPCIZPVBZr8rTWSGSn+YTLLrts6H7UPJweEJZosEBeo0utz1Ja/t4yyuIKyUfPqxlJH+3rgdXDy7ZwOkeADMSt7bPkThXxPetZzxq6S1V2wuSVn++U4w8+Ro6ylubbvD5RBbgxbFJjEY84ACgRD8dWIzknzkho/C4ptdJgirwYEJQGAbFNnZS53g14E7F5Hy3161jvJoJXXk1kqzRcOfFGE/UfkYGMvFQh/cj7SNNAiXZhEEJ/KBmvElFGbL3/OWE7Jq6uIUnPP/Yn8I/PkY5Tdz3j5B2JUHkIi6Mu1Yfb7fble/bs+er7nPLvtEBgXIiw9bKXveyTBw4c0HsBh6691R5MH126QWa0i8pzg6LvMga4h2QotCeprhUBXnPNNcM9GpWeAgwYPetTQQef+9znhm4mpSFXk671HSlINxqEkhHkAY8jeoyZjushFinqGJt9M7HPfSqDSFDqUGsPef0Tc6q619Vq7NUlY4jxiuThpAC5x3o4oflgpel70yCmRIyx7BHXUpmcOOP9Tf2MssYye1thxJsGEhDWaiqq6XzsF03EWLoOw878Mq78L3/5y8NN4NVn2KQhDthGDVroD1GhOV6OWewvq9V1lMWN2Mf+we/oBtd9vKbKr+G5YFDLEouVlZV/ddttt/3AaWH9sxDHEBgHIqy/7uu+7sdbrdb/JRXUZGDc4PoDxncUX3w7RDTMSocRsRSe7tc2Z1q3JxKRkRDJ6Y/9Sz/72c8Od/YXKYlgdJ3m4tgSjYcKI4DaZITKCN4Nb5zziAaNuUthogcZwpUS1LW4dCAtleeOO+6oXv7ylw+31/IylNZaYjA82AZDF8mjyQivRmIl8msiVycxz6/JXRYVVIk4wcbTo0ylPlQalJAuhOF1gmAcLwYyno+7yj3fpvJRjlLfJa1o8CPp4FXB0BOlrDS1KTdESHm9LTlWUtYMNKONjgOCOMgotYHS8Gej1F9WS8fLQZ9wW6HnlXlC0nJFqDbU8350edZyv9+//tZbb/18ctD/z96bgGl6lXXeT1V3VW9JOiEkEJYIsi9ZMDEhEMhuNhJISKIOioQBnRFcYHRGvPzGqKPM4Mg3qDOKC4soIgrf4GAUQtgRtwgDyCIQCEtClk463elauqqrP39P9a/4557zVFWHzEWn8lZffb1Vz3ues9znnPt//+9zn3MOLAmseSB85jOf+YQtW7ZcNzs7u0n3TWtSOXhlesmMDDIR4FRaTmRBwUgynusyYX8ex5sxGQgxN+JMtvi5z32uu/HGG/uJQr5sZwB0+MxtD6kUdbPYjlSEVblVMBEAcxhSLu5Z2ul+Si9gdfuIG/FPOOGEnh0C7E58gVo5qHDSxSZop+JJl1NVzrUdy02b1bCi1vtVsVnHobJ0n60E0BWMsu3Kpsq/1d7W2lXrfcG/JcPWswT//H6l96ucBTTyc52b2yke/vCH/x8BVTVvGW0FogpWK42DBKUcd618h/q11Z/LySW/cz4xhxn/BtHQd3k8I7/v3r37Xaeddtp5BxYEjGrTj5u1LAYuz92wYcNHb7jhhqdolcHIUPgt5emg1pIWFBncPHNBPC37qky9OgkrERCEDeIGpXwmihflwgA//elP92wM8HFTPOkAIcGO/jGyMxW1v/NpWuuyGgVa2QlleK9i3kJQLWLqicX/Az/wAz0YsiZkHdMS5nflWRlgVeZDQJFASxqjEOvaYe3LVFSVibQsfIGkgnVLmQ4p7jqPcizxTt2e0wLClQB2OVDQODPNEKhptFTwTECp7K/F6rIc07v+zPgjKMx5Vg015Wx/tupc5VyNFOvUakfW37HRapPltrwCFQhbRoAyZ/6xts/f7tt1n6Xynp+fn52bm/vuc84555NrWefeV9u2poHwtNNO+8HJyUn2Cy4BmRGSua7VsioZyLznjQ6mSZBxAvmMT5gV/7GKOeCagBPAF3a370SJ7ktf+lL3T//0T/0RTeTBROKTsz+pH+kT1FQkuhlT6ZHOEytkZLqXKnCmcpHdVEAEBGm3gC2gmZfrmgDgs571LM5p7YEe8EbxCeIyyQqCK/3dAipBJRnkahhVnZRVQVYFnHVTPgk+Ccx5Yk+t8xAYpVLOvqhKtiWD2k8thVPHcQJ89jfjpboMc3xXYKigOgQ05gko4AXRu5BGQY7JOo5tUzXkNEyzPVXGQ16R5Zhh9meVJ9/lGKjAmMYc7SNqlmUFfowTMPKbeTk1NfW2c889d7Rl4gBFyrUMhGMXXHDBDXfcccfDmXweQG3Yc504OSlIK7NLqzUnh8rA/JgMsDvW+bgg97u/+7t7VyjnMOoiIbLshhtu6D75yU/2e48MPHFSkR4gcQKpKCpjGhpL1METZuq6Xa696FJtMSee6QKmPRnsoiLydBrYK9srLrvssv50GpmPl/+22NjQM5VdKvwWK2gprFRKlVXVPFp5tso0nd9pOCXYZJ0r81BWCaTWM/s1v09Xci2fdJVhD4FhsqUWSFfgrQA69H01Clrl0wbGDT8YS8wl1xMTyCyjNQaXa1cF5RZAKasWONY6ZFmpAxKka78lCMv4mPe33HLL0hYklzL27Ruk7x5/5plnfu4AxYH7fbXWLBCeeuqpP7ywsPBaeliwgm3BdvjJ9awcBTAZGJ0Rmk6IOmFVNkw2JzprkJQBCAKA7MVz/YR8cYf+/d//fb+dAhDkUzYIC3R9UMCtCj6ZXjJanstQPNhXJpegl5b1EKBkmdRPFpv5e4IIbaBduIC/93u/t2fAMm7BP4HJulSmmmW2lO0Qk0qFZB6WURVcK63vJMNRRrIS+znrnMp0SI5V1o6jZFvJQCsYpRxq3WsdW9/X9iebrmCSbc22JRinsVDbn8aFywisFRJBWuvRYlkJvFXOfpcMtsVIU37VcKzG0XJjo47X7Ldah9pnGLnGAMi69+0Vvur888//hfs92hzAAliTQHj66acf9IAHPOBLN9544+IC1j5rGpbn3r0EEtPoDs0jkwSfFhDyzHU/QAPwZIsEt8KzRuIRbSgHDif+27/92347Be/xHYyK7wAU9ha6Ty8BQ6VTFVELMHKcUW9dptnWqkTynbTSKU+w1kWcTMMDumk/vz/sYQ/rXvCCF3THHnts3zbZbgv87I8WOxScqrJeSZn5fQsIlWELDFPxLscCsh0CUcqjxeCyzssBSQJBiyHlu1UxV/ZW21jHiXVK9plu0+Xyq32Q7yEfDU73zhL0lTdTWPccgyuN42xPyyBKMEpAXm6cZ5nJGrMPczzVMnKMks7xzpIHfzNfmNu8Nz09/cnrrrvu+KuuumrhAMaB+33V1iQQnnzyyT+4adOmP4C5OFm1eh3U/C2j0X3hAbqpOB3oCajm4XuUw+R/5CMf2R133HE9qOEqlDkBftdcc83SzRAJTPyOwoARyqIqOLUU+JDCq8pAsKat1jeZCOWn2zQnOe96qoxrnwJsKmxBgjY/97nP7bdZAOrumTSt7bNPKhBWS966pOKqSijby3dD7jA9ABVUWgqzyqS+W/sny0xlXQE425P1TgVs2TK47Bvl0wLY5TRZAnwq9QS9KvtkiVXGdYzkWHR9jPECIMAKZYmMQW+tcM28GhDLGTzWyc86PlpGRPZBBbpadmvJwLa1mKzl6bJGf7BWyHxm7u/evXv7+Pj4WRdffPE/3u+R5gAXwJoEwuc85zmf3r59+xNYh9Myq5YlAzuVOj5+WF1arSq4XCd0ouoC4RO2x2Tgfj/WRbijTQXGAvp1113Xb5Y3GtN1POrE+26XyHW9lSzaFgNx0vOuitS6G1mqK1YwrkEfyThkPLpZUWxusRBgVQIqJwJ+cJNytZNsgHx0H/Oea6AJGqnkKyup4N5S4D5LZZh93nJJZltTqdruCsAp3wpkNW2rHplmqP8qkKY7vKX46/qbQGobchxlnVYCoJwHVd6ttgsUuQbPYdzsORUYEmjS2Khtrv1fjb4KeCsB4JBBYjtq+0xfgXOoHnpHiBRXF8zOzrJn8AWXXHLJHx/gGDCq3lrcPvH0pz/9cZs2bfoswKarsSoAJyRWG4MY65VB7MCv7LFOtFQurjnCBnELMukBAyPmCIz5+Mc/vnSkmUBkHl6FxPpgdeu1rOM6eYcUrgoyFamA5gHbLQXXAgSBjO+w7o0qTYCjPECStpP/mWee2e83BAypgyBPfa1HVYCC85ACUh4txZUspc7syqBquRVgKqguB8wV3FqsL9+3v7IfhxQ1zzXY0lBoaa6hcZCgVd2AKTPzJ30yrqGyEtTSoNDVTx54QpgHuM3TO1MNjWx/q49rHSyv1j//rnN+pX5ptbNu70gZVZ1AWgxpToji9/n5+d/7xCc+8SMjl+h9A2fXHCO88MIL371t27ZznFC5jlEVHn8zUdnG4HFR6YpqWZo5UVEGWIBGiWL9AgQqHwIGrr322t5tKhgkMwEwAEA3zw9Zpi1FnuxkaKhZ/5zA7m9KMExgSBDid/e/ISfAjL/JA6aLcuMnlSLtBNzJEzCEHRINyzNdY9YhQaSl6BOQlEF1X1XFmYp/NYBYx4RMJd9djt3l+0PuxFon09kWFW6r/4dcvS1waIFyZX6Caxpd6fZzXNU2a8D4PMdxAqHv62kAGABC+t7xQjsdT9XoWU7W1UBJGVSjMcGypst8hsaL75tvy3CpRg1AyDrh5OTkR+bm5p51ySWXbL9vwMColmsKCAmS2bx586133HHHRgZwy6WZ1icDGb8+DKdOjmqlpsJV+RkgQ3DME5/4xH7PIBOefGGY//AP/9B99rOfXRpluS0CRUJaQdDvWsqsTvIKgq3vVaBZb0HeSW2Ead1q4feCd7IE8nOtkfbDAlWqKDdADyaAQUA6wPCKK65YCtxh/dRo2apkKiMcArIhg6Ey6gpmtbxkEAKxQJEAX2XZAqFWH9wb6iXLXo71rVSWir0q/iqTagiZbzUKlZf1S6DQG0IaDEW8JPQ7ad1W4Gftg5WMjlqfobmR6Sp4V8OyJbsWkKZBWfUIYx09cvPNN9/Ydd1Tzz333K+u1Cej7w8cCawpIDzppJOO27x583XT09PrcvDnZEtFgEuUdUQHuOcjtiZ/bkImPZOad2GB7KVjbdA0gBsb5okS9coj3pHwqW8DAAAgAElEQVRdUQddorLC5QIyqkVbldLQRK5AoHJHCSkHWV5ud0hWLFsgHe+o5ABxflw3NDiGv40YJT3vPeUpT+l++Id/uGfOyJggGhlGgrpAODQ9EqyGjIFUcssxCMuQ2SS41rGzWiBssaVUmMq/uh4rK0ovRlXILeZTy0hwy7Ff0w3JOcdXizG1niUgOr49dg1jk9OIHHfLGSzZr86z7PeUh/Wsfd5i0a06L6eGK8CbtgWijmXmxtTU1FtPOumk7z1wVPyoJquRwJoCwpNPPvmXNm3a9HOsD3qUmgBTWQSTsrLBITeUa42CAKABEwJIWRdkHx1sUHcQjOd973tff3O3WyiYLLoVKcc9gzzz4tuWiyqVWk7m1oQcYiUVOFvWvYAoMKQiUDklYyMP2sAPblLanO6y6nr7nu/5nv6yX/ZW6j4VGDAKlFMLyJLVVsWeCkrFaZoh5pjvpExVaBWYlFdLjrV/NBiGQDiZVAVf361AlOVXY8C+qaAwZCzVttQxVYHG761rtqvWJQE+68ONKmwnyvYmKLfknXJtlcP7OV9NY/BW1rvKKNucY7YajnVsDI0n3en7llf+8ElPetIPrkb5jtIcOBJYU0D43Oc+9/obbrjhkbon07XnxHTQorwBTBhbXfiv3ZPg4PqXYMtWAQJCiBT1ODaiRHGLegCva2KpqAERIlpdO6N+yTyq4mkpbxV3i2HUSa2STYvbNLlmVQHRNC1FSx1zSwRrojwzSlDlxCey4KCB7/u+7+uvdRJI+QQEeacqtqrMhoC+BXy1D6sSq0ou5VvXCVsKPBV1gnOtYwLSUB8upw4qMFWAWOnd+r31SaMrZVEBKuucTDWfJ9DU+pE3BiP9f+SRR/afQ+N1aMw7znMs5nxOcK8GQO2nOi+G5Nfqt6G0zmvatbCw8I5jjz32OQeOih/VZDUSWDNAeNZZZx2+devWW7/xjW+MuTaYrCS3EQB+rGPB6mqgQmsCqBj5lA3iAnz84x/fX1zLWZsAGpMcpf6Xf/mX/SG8gkoqEMEZxuq2iQRav3dyVTdSZRFVIamUW+685ZRyKhbXDlUiyQJUSlkPt4MgE891tU2k90BxZH3aaaf1F/3iSiYPjAGe1wAa2mHbsx45qFNxVjASQATjBPKqLKtx0AKbCkjJJCpQ1jKzLtYzAScVfG3TckpeAMu2pbHVKiPll4DUqnOtVwUi36nl1HpRDsePETTjOmG+OwTWrX6qZSWL1pjMvHPsppGScs05lPLLdrQMnOx3ZTk/P//R44477mmrUb6jNAeOBNYMED7jGc/4rsnJyesAI910BnXoLtG1RxQn63u5FtYCGJ8JhDJN3uf3Zz7zmf3aB2tf+6zBjmuV3v/+99/N1Uc+6bLRLQoQumHdIVGtZSd+rmUNWeZVAbUUTAXWZAOCJ2nc5mEgjbJI9kj+HkXHO4CaTNsTfFKxA3YE03DBL2DIwcykx5Dw8IEEPxVaBZ3aruWUamuqDcmp5lPTVeaUADoEKtX4qEBHHnUcpmKuCnuIqVRFnfm2wLUF3o7zWmYLBKoBlu9UQ4Lv8BbQ9/S1G+wTfLOO1ehI46HV9wnQLUMpDYVW2pZM67NW32deuvvvuuuuj5144onfdeCo+FFNViOBNQOET3va037+XwbrVShm2JbreXzmGhQDmtMfAEutvxZbyIEviBnsApOE0cBucIkCbJ7L+e53v7sPoSbv3DNIfq6DAYDe2KDCooxURC3FZtqqQKrlvtKk5fu6hpfKJl3FeXZpKgcVvzIE5Lx4GPngOrYeBhHZJ/TH05/+9D6alLVVfjyo23rYfo2XrF+rfRobQ8CX77QUXwWLunaU79TyW2DXMqxadUsGksBqe6vMM49ajzpmBNgKekP1qHln2WkUJsjmWLEtFdSoB/ODMQEr9GCJllGgDATDFohV2aQBk/JUHsohx7yy43PI+Kx6IeWYsjYP9M4dd9zx2ZNOOukJq1G+ozQHjgTWChCOn3/++Z+44447nsSgVvE6KfL0DSYkId0GtqTyyUnhQM/Jaj6wSSJF2TKBleuk/drXvtb91V/9Ve8eTFZlXjzXJQpoeFP9kHW93DBZDuxWO7xSGSiHyhh17yb42l7Bx+9gdciedtFWtpCQn/sHBTUYAcDH+urFF1+8dKch+Xr0luy7goOs1SCoKrs0CqqBUNMmc+G7dFGnck03c8psSJFX+ae89qdvWm1RHtkW6pGRwBXQ7kmZLSDO+lRQqfWqdUCGBI9xFi9egFZgUM2jAnGrHUNGTTVEhuZLNURafZfjJA1A+zWXM6anp2864YQT7n7a+Go7YJTu2yaBNQGEp59++sb169d/Y9euXVudGLIeJ4DKArcmClrllukzbVU0TgavleE4NSIgcx3wve99b/eZz3xmaWtAshTyhikBnIAhrAhmODRB6/PlAhUqWLSUUubXYjSVTTjJZaq5AV/ZqSz9dL3VgKJ94eR9G2XlpgXoeMbWCi75RS6yT/JRUZIm/1YOgmptV2W6lQ2lgVOBJoEwXbQaTWkMLKcwa74thZ4KONmn7SOPIaYy1L+VwVTgH6pXlVEFl9bYaAFZa1xkmRxcwXm0bq+p7WuBWsq5VY+UhYZs7ovN+Z2AlkbMSuVmGzKmwD7ifY3v2dnZW3bs2PHQM844Y/7bptVHBe+3BNYEEJ588smHjI2N3TI2NrYhlUFOEoNcYHOAoconJ0EFCJVhKl3cO9w6f9JJJ/V7CGUx5PnmN7+5j5DjRwCxDq4hCoRupm9N1Ky3yjeVhiDvpuQK/kNKtI6OlgJMZZOuNeQHKGX0aVXIqdzdJ+nhy7wPMFJXGCPy8ii67//+7+/PaUUmys2LfmWG6TZO2dY2VSCsLs40Gmy/8rOf8yCGbKN1SBlpMFQlXRlJBaUhY8Tn5tua0fldZbXVMEhjJRX6EPg5tlrtMu/a1gTABPJMz++MBTwyRx111NKRgy2DYjVarNXONN6G5L9S3i2jpQWEyjU9FPw+PT29bfPmzQ950pOetHjs0ujnPiGBNQGEJ5544uPWr1/fH+FSrT5BAQWOSwYg9KgnldyQBawS5dM9gLj8CPbgNBm2TaCwUfCf//znuz//8z9fOlDabQVaqZ7BiPL3xvrcYJ+KsqVMWqDTUmy2vwKnsqmGQs2jpfhlZMhQBpzvZd4ZTENat1J4cAFtRv4YBChFZYGLlFNokCd58J4HOJN/rkWlYZLAljOuBUyttBVUKsjVfLKtQ2BV86h9t1rNMMRUhoAwlX+r3q16VMWfJ74sV88syz6v4J5jhD6jP3GPHn300Xdz5eaYHALgobpUY6bqgOzzdHFnfkNybpWZnqSUsYF5MzMz2w899NAHP+Yxj5ldbT+P0n37JbAmgPDJT37yOYcccsi7c0D7u0yQiYhLVIWcyiSt8AQkJxUD3rv5+Dz55JN7VoiyZgKg0D/4wQ/2h2vDhPjRPcPEQbmgBGBCACF5yH6GlHO6blrDZIhRrFbpavmrxBJ8qwxSgchQ3RIh0CdTlDnxnnslYYAGy5hfsjWCjp73vOf121GUTcrQNUHKSwOiMgOVUyqpBNHlwMC2yWyVyRCokFeyoaHpvBpFSxmV4Vdl3VL6qfiHjIIhpV8ByPezX5SF4yXHRp1DrboIgI4P1ucxghgXdXkiPQoV0HKOZn9UQOa99ArYppZusC0tw7M1rszDMU/Z1YU+MzOzY3x8/KgTTzxx0TU0+rlPSGBNAOFxxx33c5s3b/4lJZ6DmAnoJl5AkNNkDN5YCTScvDIhGCVbJZ72tKf1of/mzfN3vvOdHcEy7qkTEJlklq8C4DsZYyrpymbrZMwRVV1bLSXUUoD1vSyzAqCKWYBIedU1Q5VCrrNRf/JA6cH8MERYJ0X+fqr8+OT0kR/8wR/sT+tRoXmqjyzQ50PgkkpwOWbWMn7MO5X/kGLNsbYcAC2ngFerIWpbKyOs46b2ewXyygIzvyHQrHVNQy0NpdaY5Xs9KswV5gPLCq69tgC5lpdu+joPclxafo7z1lgxXWsddmje+Jx6C54JhBh6MzMzu+bm5o469dRTd662f0fpvv0SWBNA+F3f9V3/38EHH/yc6vJUvAxWvmNTL65NF7ZbLCi7JPfQMbF4l+uWTjnllKVIR9LjFiVa1LNKfU8gcNKxVYDf2TpRre7VKK/KzFoKuAVsWrA56ZNduOZmPZ3c3siRSkWQ0DjItiaQCp5GMwKGACDM0HxliEbj8g5usxe/+MX9OpL7CyvL9uaCygwov7axAlYqzVrf1U7HZAStd4YUb9alxTITEEjbUuYtAyjT1u8TmCy/us3rmFmp/pankaLXI/sx2a2skH7EAGIMMBfca5qsuiUX+0xWWl2clZnWQJ7l2F2V89AYGDK8fJ/PfWvgM+Pj4w859thj71jteBql+/ZLYE0A4TOe8Yy/27Nnz3e3JhQDmInBQj2bepmI+vOrAqh/50HUTGaAkCCZJzzhCX30m+t+H/jAB/oj1bzfMMGBOvGfZ7zDD+5Ry1qJBVbFoGVMPtQpy0rg5XvqR53yWCvzc92TNpqXbNY689zvq9XPdxUMq0L2b9f6WP/TlUx/+H5egUWaRz/60d1P/uRP9sBpBKrlpQWeSqgCnoCQDFFlVgGnTsMhZawR0ALTzKPF4CqoVba60t9ZZjVMLC+Nq8qMcpy16ldlUMHDdxwH6Wmhz7zXk3KYDywdYNToJrduACSeGYBwaI3cuqSxVo2IFvNs9asgOWR4VLlXOfv3kAFimSGP2d27dz/05JNP3vbtV++jGqxWAmsCCM8555zrd+7c+ciWMtH6JdrTi0IZtLIRJ1TLchZkdOuwFvjsZz+7Zyu4Ob1p4U1vetPShZwob9ezBBQ+URZcRYNCcNtEyy3amoh2pm2pCkKG4lFl/J2nd8j4eM/1StNWQKPuAmICbSoE20V+pDeatKVUcr2QdDBDnuGipg+8p44ykRGuM9yoT33qU/tzSQlIIt80HBIMs9+qssp3WiCW8k9WUdeYWkCZMqhKdog9rPR8SFm3QN72KN/lJnwd2yvVI4Eo1/HSiEq3uayfvmSLxM/+7M92l112WX/ghMFRHkFIfUnD/PF82crwWqA81L5qYFQQXcloSeMt0y7HAFv1k/Xu3bt3ds+ePQ878cQTb1utEh6l+/ZLYE0A4SWXXHL7N77xjf6IkjrpnWSuDzpxBJXVACETHAXNJ7euc3iw0aI8f+Mb39h/T14yGBWr6wlMfJigh2x7tmZOuKxLWve2K9clzFe25x48g1jSAvfewDxbNZWPri3Zs5GcskaBgc+UH/USLAFEAbfWN5WVG+6pP8ZJKv8EK+pw4YUXds961rOW9heSr/1WmaF/Z9RjAqF1SnlX4F6OKa6GOVTAWi0AVbaTaiG9HD5vjY0cO7XcFptpKfrlnmmMJLNkTnHfJqcsGQmKcfPzP//z/YXMRFcnEOKdYN5gkJIPRo5GHJ+1XSmHIWCqLLjqAN9rvb+cATMkiyFZamQChHNzcyNG+O3Htv2qwX0eCE855ZRNj3jEI6auv/76u4XYJ4vid6LVDJTJU2WWU0K6Bfkk0IP1QaxcgJA8AEbWB//X//pfS0e2CQgqbRQDaZn0eduEbtV0dWqd6kqtk1Gr0yOq+Js88xqnqjitDxNVpeFZqwCkzDHdobJC9w7KEHVlVvCy3vm9Ck52nAqUemAUCIa5tqTbmjQozX/9r/919+QnP3npol/7LvNNJV3ZhW1uMYeWF6CCUL4/xD7ynZairAC5mhlaDaRU8C1Q1kjK9b+WYZjPMq2yyGe1vRncgvw//OEPd3/8x3/cz4d/+2//bfeQhzykn2M/8zM/0z33uc/tzjjjjL6p5s379CkGEPOJc3pbBory0TBqyT3Z6XJg15Jj7S/rsFxdap/l2LGMfcx4mjXCpzzlKaPb6Vcz0A+QNPd5IHz6059+8IMf/OAdRGyqtNK6VCFzvijrUukOG1IUTrx0DQIeXCPE3YNMfMAIZc4B23/913+9tPaoO1UL0auZ2B7gtgmPEVvOAk43qAoh70M0L9Klm7e6DQXaVByu1WGhw2RpG/89NQeZwR5hl/xPhqgrNF2eMkXKEEQ1BAxc4G/f8dolWDJ9Qlmmz20q5Idy/aEf+qE+SteQexWqijkZa2V1LcbQMn6GGF9lDUOgthKoprLVcLCuFbxq2lrfCrbJpFsKupZHGtfncpzp4jSoxXSkYf588pOf7McIEZ8nnHBCd+2113Z/9md/1gMbnpJLL720d3v+2q/9Wnfeeef1RqPGm3U0b9brWWJwrrqOTB1qX6QRVfXmkOGxWsZbQbe+l7KtcvTd7L/Z2dm75ubmHjKKGj1AEG6V1bjPA+EJJ5yw9eijj95+00033W0CpTJhknE5qLfFDwGQk8DvdQ3yHMA49dRT+6uXADUmCEr77W9/e/epT32qn9AyIic3k1pw4R3XwXJrRUvR8r4KzbrIAgEx1yGTxbUURLV0TZPAZQQtgITLyuPnVFi8QxoP1JYdutevMj/SC7S2oWWV026YrG7n7BuVG5+UR3DSlVde2UeRkl6mnqBXXaUqrZayajGCVIhDyjjbs5wCbvVpKtSq6Fvuzwrorfmc9alAnCypBfLkp9HC2PL8V40gD0HnbwCPABhADsZH0NfLX/7yDi/MH/7hH/ZjnGcEOOEm/Y//8T/2oMjB6hqEHpWnMURe9iffkQcGlzfHLKe/cn60DJAKZq1xmKCW8m/JfTlQtS6Ov6mpqR2Tk5OjfYSrBKADJdmaA8I6MRjkTHK2Tqzm1HsmroqDT8/IhLVw8glKGSbID/nhGrrhhhvuFmAiEDK5daESKJMgJki1lKauUcvQ7eUB3y1WkhN4OaWY4OjkJX+BDSDEjQwwyjRlCgAXrEwF6n7IHMyUTTszArV+n+t53smIglU5CTLk5Zrfueee27MOlGfKzP7y07ZnP1Z5Vflkf7fc5hU4UzEmINpPLcXZAl+V6Erpq7IY6t9WupSH5RkNLQDSH25loD35/CMf+Uj3P//n/+wBDo8IB0d8+ctf7oEO1+Yf/MEfLN3rSUQ112v9l//yX3rX6Omnn750/6AGl0YY44z5Qb4CkUBY+7cy5pbh0Gr7ap5VQ2kICOv8yjHlfOfZrl27to+NjT3kaU972vSBouRH9VhZAmsKCNPKy4EKiOHaUaEnCFUrPxWqjFD3JudhPulJT1q6XonJjEUMyGpBJzNhojNpAQ9ATHemdbOsoYAIFJIuIwBDZZIW8VAXOzlN20qX+VCOa478Dhjy3zqQlnrSTtrDJ+ldy6su0FwvlA0l8LouSL1gE+SNi626Oynf8PwXvOAF/WZ7FGbd2pJ9X42ZIYu+ZYSQj4q3BZgtN6bjaSWZJyjlO9VQSEac47jF7NJoqO+1xkmOh2osIOsvfvGL3cc+9rHu+OOP769M+h//43/0hh57Ox/1qEd1b3nLW3owJKqXufC2t72tBzPAkX7BYHnPe97TGy3nnHPO0tadXPtlHMD8CLbB9a3BlW7U1nhNoyP7tILXaoGyxeqrkZNjYTlgdYxPTU3dsWPHjqMuuOCC0RFrK+PPAZNiTQFhDmyVBgOZbQ6Ald8PKTN6xSAMJoTKHEBD+QOEXCODsmbSf/WrX+0ZIW7TvCXB3hUIPXHfi3h1vWUgRrU4dXsKNICBgKzCreuBVaGqbPPTMlusRkUtwAFMRtuirPjxAl32gXnEnIzCiFkVkeuJglRa3wbxkB8GAkwPg4W+csM86XWl8YnCxUXK9VfZV/RrdY2mlZ6GTzWC0ihZzmhYacZWkBoCoZRFVeZDTKj2VQsclXnm0XqWcuF35A8b5xPX+Otf//ruK1/5SvdjP/Zj/Xaf3/3d3+3H9k/91E/1pyph+L3vfe/rA5g4apATlWCBnLN744039ssG9B/9dNxxx93NjZ11Yw4wtsjT/nMZIcdrHTstABzqm5znju0699OQyHJbRkcLCK0P4482TU1N3b5z586HjIBwpRlzYH1/nwdCbp446qij7uQwX5VmWsYMToAKIExGld1g+lw7U2G4VsYExzX6Hd/xHT0gwfD+6Z/+qQ8WoAwZTq5fodjJ283DsrqMfKxWboK1IJjglUo/lXqyLidn67OyHGVmXv6NwtBVhaJEaRnUIktEBkTDCpxeL8W7KT+VSjKQVNLIk3cxGOgr3LKmTUChHBTwi170oqULfU0nI61g0urn5Rji0HetsVVB1LLJQxlUhWr/2S7l1DLOal8NqY5WnUmbMk6Fb93wkvzjP/5j98///M+97GHbv/3bv92DIjKmX9gaBGt72cte1vc1f+MuxRjhXNhrrrmm+zf/5t/0c+GP/uiP+jIJpmEPKEcRWg8NSw086sOYYplBdzv9zjjQ2Mr228/J9nJ8p+wrkKbhUIHVv803DdL6XsuIyvTM6+np6ds2bdr0kBNPPHHuwFL1o9osJ4H7PBAaNYoVKwjlAGagwmyY9BmmP6Q8UmnLCFHO7JNizYM7CPmBoREtiiLYd7RSz2xycnrSDGzH/XPJcJKB6OpjMvHfiM2qSGU+tlEGq3KryrmynJy4mVfKQ2Wl4cDfKClcpUSXGtnpthABkPxQbNRJl64KsLLFWk9lCguhHH501yZzRh4caoDbLfdkUgfqWZlhDv6URRogKsOWElxJfdRxpPLOfqvjsaWYa332B/SsA30EayYQBXkIQl5ppWubwDLuzvz7v//7fqzxDrd/kM9v/dZv9QAFEDJvCAZjLfCnf/qn+zwx/Aie4R5JGB/5AIT0xatf/er+vF2iqv/Vv/pX/Zqi23McpwkmGFiuOzt+NQhyHlYjYTmPjvkPze+WXCtzrGlagFvB1nm9bdu2m9evX/+w0X2EK82cA+v7+zwQso/woQ996PavfvWrkxUkVHwJhLK3ChBpKWqlJxByZBTh4IR888PEJ5KO/+TJZBIImcQ8Q5GTzktnsXyTfVoOaQVx3aYZiJIKXtaarMNnKr5kArI1FYvfqXiWUxim0YDwdB4MA/JFybHW42EBgGCywxzqbvhfDmyoo7dzEOWL4oWFGurP98gUhs1NFYTwI1PqYd/X/YXKpIJd1q2yCdlHsqjab6lwW8wtgS3zT6WaoFnzaOU5xIDIn3Z71q6n9aicNQYBOEANdydHAgJU7PXD3Y+M2Rz/m7/5m33kMK5NvChXX311z/DYJM+YxHWKAQgQwgr/7u/+rvuRH/mR3sX5jne8o18z5PB07pjUNdpicdSZcijXIDD7t3pmqszqPE9wrQCV37XG+krPsuyqI/Jd58j27du/dNtttz3miiuu2HNgqfpRbZaTwH0eCGncpZdeuv3rX//61nS92WgmYQVCJ1JL+TjYVS4McCxtlAWMEEVCnjyHDf7N3/zNEiOUlZCHQOj6F+kFwpxQKkw/zTu3J5g+gUkFr9LwhBnTeOxZHvnGO7Zd5imgGkiUylkXru48/gaYWEviv8zP0HcAyrU/z1M1DZ/UJdub4KRSQTHihiZ/nnlnoe4yFT79wToWbFv2Q3q+TzbRArMKii0gXK3aGFKUQ++nAbZaFph52T9VgSdrVm6wLfrrL//yL3vXJWMXNv2f/tN/6o0HNr7j9iQNYxMg/G//7b/14/35z39+HyTDeiCM8RWveEXP3t7whjf0IMpcACAxBNlKAfjBBokipQ95n/GwHGgZmewJMxqQLSDcH4Y3xOCS+aXsh/KufVv7IUHXcb5z586/OfPMM09Z7fgZpTswJLAmgPDiiy++5cYbbzzC/XlpBe4PEOZ7TBS3AKCM2TbB5PcGCb7HAv7EJz6xFOnopbJatkY84u7jmWshqcwE71xTyrM7BSoVvAEzuRcRkECpAFTUwf15gillVBD1mW0WuHXzChaCoQpcBcKaLG5SZESACz/UkbUmDQK3RqiAbFeywpYSogyUNu5sAVDjgjbZlmc84xk9M3Q7i8wxDZwExVRcKzG2av07XQWcmtdqFGtLkQ7VaTkgrd8pQ70JyAG345/+6Z/2HgxOPmJ84E5mb98v//Iv9/2G/DjGDjZHH37hC1/oXvOa1/RpX/jCF/aRoLg+WRdnjZB+BQg5UYbrshhrfM935OF6vGfpUk/K0cWd84s607eMIYC2/jgvHHfJKlejOlfD9KoBtBrjJfNNoGTs7/OQvOH000+/cjV1HKU5cCSwJoDwggsuuGHbtm1Hp5JSxAzWIUaYaZwUTlby0jWKxUyoOMEygJpraKyXYEU7SVEAAocBJSgPLF5+KiOkblrMKncUh+XyfUaYpsUsM/IcUZWOhxmnVZ2gZ5uzvSkHJrOuXgFMME5Qdm+mZ6wKpLTRa6YAPiNLVRqCIWWmy9fvqTcKEiBE7rQvo0hlrm5XeclLXtIbKd5UkSCbbUzFKsglYCYgtZTyct8PAVPmb1+3WMZq2U7tR+UnWMhKGHMc8vArv/IrvYsTg411QaKeOQOUDe+e98mYPuuss3pmyDusEbLG+KM/+qO9a5Q9hBwtSNQo/QBjJFoaMCXQ5tOf/nTvGmWMOwaQR7pnqxzsF/LD2IFN1vE4BIS1zxJcVzIqVgLHllrO/mqBYJZJe2ZnZ19wxhlnvPHAUfGjmqxGAmsCCM8666x/mJmZOUHQyMGZQFjdR1UhJlNLIEQxE1EHI0TJo4Ao681vfnN/uoYWLwrIOggoAEEyQstQqQlY5qH7UIYhsCZgkob0rPkYkEM5MjDXG82Dz1xHVHG2Bohto1zyzjVJ0xsAQT4oMuohSPKe0aSkRzlTL9cUAUJALMHXiE/7g0/KAAxhKu4vtD20j7rRFzARlDaKnLon0JKP62StdlSjYDm5rGoyjY0tBUtl+gTn1nPHaypagQB5Zt0rCzEimuPPWLNjLRsD4kMf+lAPgASy/Pf//t974AMI2YtJAAzfMV6RL4YEwTEA3+/93u/1ny996Ut7I4QoUbwggB15sL7IXMAAod/pC76nTJi5V2L3ovIAACAASURBVGoZMd1yjWZ78SwAhDk3s180MpczFqp8K2DlvE7mnmNwqH99V6Ow1icNOObkrl27jjv77LM/sZrxMkpz4EhgTQDhKaec8idd111RFQliRpHg6mFyq3DrWoHdkc8TCJncBGYQDi6ooYhREkSr6k70Whkmm2t2gAIKB+UvANTJlaBIWkElh0kqRoAQJUSwwcTE+j7/zZu3LG3YN0KzNczGxhYPQd67d/Hi1zQaanmyMVmYSs32ogRJQ2ALis9gDeRMHXCTWm/k4MZp62dgTa0n75AX8oRp0M48ektjQwbEJm5OOkG+vGv+pNNoyKjF/Z1+abwIlkOyq2mrfFtM3HGnrPQ4eCYteWgouYYMKCF3XIt/8id/0jM+tiwQ/Ula9vtxIDzARwAM4x9XqIDH1WGAJ31I351//vk9kPIctyoACruHIfI9RgdjGtCiHFhinW+rZbbKhPZiSNHHtJWfnINDRsNq+q/F5Kr7Opl0qy3Ow9qnLWa+z0OzZ/fu3Q8+44wzRlcwraaTDqA0awIIjznmmJdt3br11W76TiXFIB7aUD/kHpRBCYYoAPZMsb6imxNFTQQdbiKBQiDUvcdzgNNDqwU5+l83Z9ZBAFEhpKWrkuQThoSy4vdNmzb2SmTLlsWTawxWyXzv3s69+4bfIntRObRYiy5SXV4qjlQQZIaixJ2GwSGjJN/cI+ZZpX6PAk72lmxMgOMZeQBwtDcNBPoacEUWAC4K31sqbK83fAiGVbG2wDHrUdMnw07W4jvVNZ8KU1nne5l/Bib5OzJybLn+SbsBtb/4i7/o+w7XJtsW2HJCANEv/uIv9s9/6Zd+qQcyXKH/9b/+175/OA3mh3/4h/tiMeDIA+aIjNkexAZ5oj7pRwKRHve4x/XBL+wzhHlzhBqR0xo1Q3psCMxqemRCv7quvRrg2x9Gl2DYKrsaNZm38zNBuwJ9Bc/Z2dnbTz311CPGxsYWDiAdP6rKKiSwJoDwuOOOO/WQQw75kIEkqWyYlK0j1hIcEhCcDNU1yt1qWNQAG+nJ83Wve10fKef6Xu5l8xBpGaFgmHVLVy7lujZofpUp6F7EikYhouhQ8nx612HmX1lL/u3vKutqLad8qAey1d3rd9aTemFsoGxhbylPmITBLO43dLuDB2jXsjUUbD8y5wcWLCPib1235ANDwX1H4IWy9DAE1xNbyrDluluOlbSMJ/OtYFdZyZCbMNtkHgaZaPh8/etf71kZjIzTjHBvAoBEbuLOJJKTfH7hF36hdxNzOS7HpHELBKCI7AA6jkrzB8BjEzxbIOijU045pfvoRz/as28iQZEpefIuRh4u0AymaumXlEGuYdaxp2yMHLWPa57VUFuFTuuTtEAwjb006lp9mgbREFusdZmZmfnsaaed9oTV1nGU7sCRwJoAwmOOOeY7N2/e/Ll169atr1abShwrGuARfJZTaCriDJZhzxVAaKg3ygIFxLFSThrXCAUsyk4glBGqLHK9gbJc29M1lsNEJYpLjHUhXa2LbtFFIKwW7ZDyqUbAcsNRoERugiH1d+1NMASMAELPJ+U9r3IyjJ53UKiW795C/vY/eVOWzJYyATTyyLx1naqYkccFF1zQn3FJvryHXADo3F6x0tRLw2CltGl0tEA2AbKCZKanTOWpMYdcaQcuT7YwEMjCnj/GIMEuACJghRyuu+663oVJGUTR4r341V/91T4IBhYHS0R23J7C/Y7KmjoAfHg2Hv7wh/fAyVYLxjj3CxJxSlqjp507MlbHQQWNleaWbXece9Sa867O4QS21fZJS/bVwKnsP/s+QTxB03nYAtqZmZl3n3766efubx1H6b/9ElgTQMhVTOvWrbt5fHz8m1EYcSGo7iQUc07eOvESSJIR8h5AiFsIJcEkwZIFCFFUTlS3T6DEeYd07nNzndC0TjonmRvodR22Jp8uSANO+NR1WPfoJeOrFm1V9paVwJnKJ+tqEI0ASLo0LmCEAKLuVD4NGCItMhKYHP66SMmT3wU35GjeHk/HmpiBGEYmUn/3aXIVEMEfMmb3OKq8U/72fypN26qbMwFsJTBrKd+q1Ft5CP4aUowp3JEEvhCMxTij/ZdddlnfTlgca30wPEAK9zzuT+74o+24QDn7k4hR2OErX/nK3mBj+wT7+5AFMmR7BOk+97nP9WuEgCb9h4sZ2XqYgcFRyAS5enBEC7BaKq0lQ9ss2HtJrwZBBdMh0EqWnYwvx28FrfRoVB1gXdNb4xjnMwO7BFYNt127dr3irLPO+s/ffrU+qsH+SmBNAOGxxx67ZevWrd/YvXv3QQjAo8Ec1ChDlAQsLgd+XdPJiZTuNVgFJ2lgkcNM+OEZ5zISsCCzy32EBo4AhCr/DGJR4VYwyPW47EzqCsDABg3YQSEBzG65MLpQhSWrsn4CvX9XIEg3VAVPJ71WfLpJZd0qJdg3CtW1UvKlzrJB6i1wa3nrvqTOgqwKyz1aBmyQN+l1PyNX5caa2RVXXLHkNlZxJQuq7a5AOAR4Qy60IeXPcxW7eaZSpv6wVkGatASwsE4HSMHe6FsiNfkhaplN7siOy4oBOQwD2vj7v//7/XofN0bA5HCfG/DCNgr6BDcpYMrJMGx9gGWSnq1B7CcEiGXT1CmjoKl3unDTsKjGRf5dx3mOK2VC3XBpU3YaXdUwU86V2WW6HMPZr9lHmb4CbAvcSd9qb4Lt/Pz8wu7du59w9tln//P+KuFR+m+/BNYEED7xiU+c/M7v/M6btm3b9oDK+PgbhYP7hcCKDNOuysnuUKEbvAKA4jZKIAQIcEdhvTtJVBzk40ZwAMBAEV1MVfHqfnLCyYiSoVJXlBufuFv5DjAg/wRC666VmpOY73herWjLMThGAM0AjjpU3SeZATUqSuSFC9eN9siKOsJekRHl8ynokbfXOtVy0no3D5Q/ZaRCs22AJe5BWJH9oWEkGFZQrGXmuEjwWw4IVaCOL40NWa0y15DQLYyc2IsHMLEOTfAIASqUBesD5LkKifQEBeGJwOVJEAxy8Bg6QJArkvzB1Qk7pl6sFzL+ZX2/8zu/04MlLlQiRTGmWpHGFRTqeExAquCSxkaCTYshIwPa5iERQ0zT52nYtcCyMsDKFGt/V29BrXsCXitv6jA3Nze3a9euB15wwQU7vv1qfVSD/ZXAmgBCGn3eeed9cMeOHc/YNyiXjtpi4KKIUTAwiTpxWhNJRem6HaDGuYkoIF2jpHnta1/bW+5uC8gN9asBQhUJSlJr2G0XqQxIp1sUELRerj8KhC0FrxLyOw0FJ3dG2pom3Z5ViSTQum7o2msaEgAVlr5skXJQdF5QLBjmO9VQUPG6XkY5Biux5kXdjPyUWSJ3TkLh+DDkw09ua0kwVP6p4P29BXqtZ8muc/JlnaknbTdISIbLc4JcMKj4DuCi/uz7Iz2sDw8Em9gTnAEvDrXmAHj7Ctcn77lmjZuT4CH64d/9u3/XexI8CBvPAgzMU5Kot6x6OaMgvxsCqwQNASXBo8UImZsYMMttcWmVt1wdrEemqUaNc6MCtbImD8dIrXcas/vG+KfOPPPMY/ZXAY/SHxgSWDNAeNxxx71s48aNr9Yi1yXlhPAqoRzkQxM7GaH7rFg3wbWEIkYhozhwR7G+wt/km26u1QIhdaA8jw7T5ShbktFRf9gA53Ay8WACKA/XFnWLDikylYBrfNRPNsc7lKdrTAVA3rQrLXDzt14ZTUp62019YCEo3QR3t1QgV1mheQqEtS3JbgFUZAAbQh6mlXUKZJypCQMCDBPwEgir0lZxp8IcYhMJTC3mJBCmoUE7cH1Sdzal0473v//9veuTMn/gB36gHwcwO97jlneY22/8xm8srYsKqhhll19+ed8/yB3AIx0nHfnus571rN6LwI3xrDey15IoU9utAaVbOT0Fy4EedW0ZAMq+gs+QrDReGCfMq6HyW/2UQLScKk2QG2L0LZbXav8QGDL2Zmdnf/bcc8995YGh1ke12F8JrBkgPP744x9z2GGH/TPKEcXAJNMNyAQASFDK6c5JUMwJ47qS7ivYGIqEdRSi9dyfhgvrf//v/73kGvWMRfLaHyDUBSvzSzaBcqA81jgNCOEZZaHkBcI6yZPlmIdHlqE0+W9AQCog8pNpUh75JAusQILSVZEKoDJk5AAr1CXtqSPecI87NE/SoRwjdav7FplQN9ytBiDRn240l21RJu/CeIh8hB2m2zXrn4pNpSwYaki1PAZDSrKyycwDGXCaC1cYsbbHyS2AElch/fqv/3ovZ07IYczhaaA9uHhJAyOsm+tJx/cAImMNuRFdylmglMuRaI9//OP7qsKeuRpJ48U+pf0GHmn01DmhPKoxNMTGch4pJ/uyGlXKi34ECGWEKzFv36vGbn2vAlxLOQ6B4NDzOh5INzc3t2d+fv47zznnnK/srwIepT8wJLBmgPDyyy9fNzU1ddett966EaZRjwfDCgdM6kJ7S6lVRghoEFTAqR0oVrcFsJ8LRaZ7CgWvIiAN+Sy3Rmhd0jI32tToSd1oBOW4RcINyJS3cXJxrW1s3eIWhIX+1Ji93brx8aW6AFTT0zM9IM3Oziydlbqo5Mb3bbtYNBy6btHdyP/Fui+ClWtdAobMW+WG4kZOrvPQDt7h04AiAVOgJa17CWXGun01RixPVoisAEOADlc3Lj+ZqMxWZc6aLtcB8U4CrmBYLXyVnN/XsZHGRWUksqSWEkdWHl/GeiDrd9zvh3zZ+gDQUUdcobSFU2GQJ+uARFOyX5CfZz7zmf33HHRNnh4vR378sKf1qquu6oNfODSbdTd/kq0JIHoyZNXLgVsCQJVD/l2BMEG3fueYqqfLyABTlhptAvMQS2wBeatdyVIzr6xjgmGCb00zPT391XPOOefoA0Olj2pxTySwZoCQxl966aW33HDDDUfAlgBClItuTJgiCjkBcmgyVSCEdWBR42rjtA3PVeSsUYIUVOIZCckzyvL4KN2OyXQEUN7jOfnmhJcFub5JXkxIg284Vm3DxOKxYgBhx/Fp/Nt3YsxYN9btXVg8WefOO3f0n5yqtrCweFXaunXru4U9C7zWdWOL7/Gvz6XPg4t2D+oZmK5b2yroqCCot0eyCZK2D9eX1yrRRvIiT/oJ2dou0ydwaSwkY5OdAASwHY0HWRPf8zugASs85phjltzPMsZUmHXi1LXDBMZUqkOAwHOUvMwY2WCIEWXsbfA/93M/1/cbQTJ4FigTIEQmHN3H2PFmDbZPkAd7JNkCwTVKACt5Ava4PJEF4MnGe34HZGWKgocKPPunts3vBPYhpVJdo8vJcyX2iDHDj+u/rTKH2F0FtDqnW+/V+tjmfDfb1wJE5ONdnDt27HjHOeec85x7ooBH7xwYElhTQHjRRRf9/S233HKikxiFquJj0MIIc10plWtOApWD7AQlhHXNhm0CFVAwsBr2YL373e9eYpmZfrVASFmujVHHZKwCoZvoPd4NJb94s/eWbnI9d/yN90C4FzDrgaxvDejW7Z6Z6+66a1c3M8UtDnPd2Dggt9CNr1vfjcMg5wHCRfDr3xr75u8LC7h95hfP/Dz00KX9Y4K51r6A4HmjWvLUX3AjiMPN4qTzEABk5qHc6UqUhTpNVEbJEjQgANpkPPY/QEhkJMevkRYmjazta5lQTsVUenXNqipE36sssGfksQcSGaDsif7kXkCMKrwL7P/jGi8ijysQMk45Do20r3rVq/p6s+7JwdmcIUpgDOMQ8PiJn/iJ/og0fpCtZ64i7xaTSXYnSCqTbEsFjAQ7XdJVjbUYsQBcwdLn3mCSgWi1vyug+XcF9ZzHWf/6e/6drtvW+8kAXWYgnQFQMzMzl5977rl/dmCo9FEt7okE1hQQHn/88T+1ZcuWX9USRyBOFJ6xFoEVnRagiiKt+wqETATckjBCghz4G2XzwQ9+sD/qSgVPvhl9txIjdDKipPnJdTsnHwrVgBNYVDJC2NrEuomu2weE3TjnhxK4s9CnA8RmZua6nTt29Ydsj/cHbi+6P6GGdP7C3HzXAYz9SFh8DhgCrtQH12i/3rqw0DM3rfaUl4qEdMg5g2NoB0rcNVrS4qLlfdpjZKd7C5MV6jJuWfWWj4ECOyLf3Hbi+nCyQvrMtTBau1yUopOpxZCWYz8JKLRFFy/AxrYF1pSRD22X/fMdPwA2dYQh8p1/E1VKPrh5cY+SLy5VZIoblKAb10GRGXLQoHIcJfgNAWFlwkNMLsFiNUqnglAaSnzXAsLMN42cWna2ZTXsz/ezTlUeGsiywgRC0upSRuY7duyYWbdu3cPOPvvsbauRxSjNgSmBNQWExx133GO3bt366bm5uXUO2FxQR3F4D1tOqMomBMK6P49gGRiGWx0+9rGP9af1A3iyN9f2yF8g5Jkno1TXKGW5hwvXZXUFMglhsqRz/2C6RtdPLILo+Pi6RZdmf97v4u0S09Oz3fTMXLdngUMGJrrx8bFubvdMNzdHffd04wAhLJEAExlhn8fisFi3fmJpg7OBLhgE1EO3s/VV4aMk0sXr1grqDPPRfeoRaXk4QL2dw2ClBF0ZDM/IQ+MAMMwoV6NuSc8eUNyMHhlmH6RBZL7JRJLdZB0SCKuLMMcV38lAATuiOlkj5NmjH/3ovl7UgbVmfnCN8h1ACJixzkebYJLIiVsfOA+UtgEe9IUMUPBLJurYz/rW3203nwKzjHq1Kms5wDQPy20xMwwjnicjrH2e+aSMW27NCojpZcl3s6+HGGcrL8f+4tr79JsvvPDC561WVqN0B6YE1hQQnnzyyYds3Ljx1rm5ucmccCgJFARskDUlfrT66iQWBHsg2Hf+J8/Ig3B0jlrT9fTFL36xX/eRyZGe7wyZXw0jJG+Vpa5R65fBBChEFJ+sc9E1urkHq73dWB8c0+PX2OJ2h70LXbfzruludn6h27zl4G7Dxk3dnr17upnpqW56113d3O7Zbrxb6LoeEBc6YLRndGwFYR1xb9dt3Lhp6X45gAwwpG0oZS8ZThah4k0glCEiFxSeAUuu1WaEqqzGfGxry0Vpn/Ad++EIuFgM9lm8skiDRBYIiHBOp4yafpcRppLm+xZAVlYigMhgW2BNfXTPA1xEg3784x/vI4/ZLE9U59/8zd/0+wgpk1vf+XRDPSfDIEuMLUDzoosu6tmf0cm0k/xzPby2S8W/GkaY69MJGJmHsqqGQaq3Vpqq/kij7FZihDXvrFtlcy2gq3O8xRyrAVPLrO9Q7tTU1Pz4+Pgx55577mcPTPU+qtVqJbCmgJBGn3feeXfefvvth8jaGMAqChgXiljXhpO5Kgn/RiklSMEIObEEEOAHlyURf14RxLM8hxHgyGuYrJNgK4j4nPqpzKm36xEoecrMI8r6i3gBwolF1garAwwF0T179nZ37pzqxtdv6A49/IhucvPmHrBnZqa6XTvv7Kbv2tmtG1vo1o/BBhf69/cChAt7uvk9Cz24skaoMeB6Wg+UWO/7rpdKhiGACJgqO6NFASUuYoUd8V1uspf9ue4n0+K5TC/7izxJa6QqgEreBqloROiqZm2Xq4V4B1lqCFXWlxPH71bLkCqgClSURZvZd0pwDBHIbJ4nqIVDr3GZUgaMkLREjVJH9hU+9rGP7YOciAw1P4ODkCftJxBLRkgdMmgI+SnL1ngX0HkvgTD7VZkkoOScaaWtQNpSSM7DdJVXGbYANPOujLAyT/7eXyBM0Gu9iz5Bxjt37vzcdddd98SrrrpqdO3SahHnAE235oDwqU996h/Ozc09D/Zk1JxuPf4GvDz6KydwWrH2lcrf/Wuc9QirYF2K9OTLKf8EguiKI61sBOVEPfjvOiDpcnGefHSNYhm7vrkEPPvun0PR58Wz5AkQjpnfXpgd7JITTOa72dm5bueumW7r4Ud0Bx36gG5i0+Zuanqm2z073d21Y3s3P7OrW98tdHvmprv52eluYc98H0HarxGyeji2uIfQ/XkyK77vn42N9XLQTVRZG7Lmv8DMO+ThWiHPdSnjEgPYkY1BMgbauMWiApQgav0ADuRHnqn8VP7Uk6ASDqWuG/nNWwNFI6Qq/gRN36kgk/V0y4cRtTBCgmM4EQYghMl++MMf7q/zon6cBMOWEMASgwvGCADiyXBvrHWr+qS6/4YYjcCXbVZeBsCkAZAySLlW1my6lqsywTaZtYYS7aP9Bk21dOUQOOmSFxwzXQXjXDcdAur6fqazvuYzNTX1ExdddNGvH6C6fVSt/ZDAmgPCJz7xiScdeeSRf6uSZeK5hQKlyRohE08FXRV4KgjBCMXpqfy4R1lr4gfFzl1vHIQsezNs37Wxfq/fvquSdLtl/7i2yPsJhCpl8mH9qwe+TZuWAnX6fLnSaP26bnzdOB7R/v8krrLZuW5693w3O7fQPfAhD+0OOvTwrls32U3Pzvau0dmpu7p1C7u7XXdu63bccUu3d353zwb7n73jXcd649h436Z16xbPJ0UJUKan52BMoLzcq6YCyXp7Sg7PNEpQtrineZ/f+e/hAO4p1J1IdRbrsLiv0efKlmfZv6wXEokpK9dFTd0og/v12LTulpZU+CpoFXllTxVA7MPKGFSc5KNLnvrCCDlBBtfoox71qB4IMW4+8IEP9LdJ8DvXKsEWMdZwn8okbU8CSmVhrXrYlrqO2QL0ajwst/Zpv1iHNAYqcKScarkCC4zQ6OFW3aqss62rWSO0bfZpCwSHALQaAtaFs0UXFhYefN55592+H/p2lPQAlcCaA8ITTjhh4tBDD71tamrqkJyoWo4GzLQmrErcvkogBKQAQCL3sNJRbihUGCHHZpEWZe9+wQQPFJmb4ZN1OMkqI3SNTKUAELomyDsAcH/90qaNPRCO4cIdG+8X9tYBOrNz3ezuPd3C+ET3oKO/ozvk8CO73QtdNz2zuwfCbn53tzC7q7v561/u7rrz1m7jergkrjE21buZYnGD/vr1rB4uXnQKEAnItBUFlgCdgTOySQBPI0FDAKOCLQ+6UPne02Jkhcma+V2mrfLkU8YlGJIHeXt8XBoe1A0ZEoBC5K+XBQum9ktLWSc45jxugU+Oq1w/pb0wPxghgTKs/+Ea5SYINsJzuwk3zGsYaUR4QAFt8vdkNqncK+jYlhaoLaePBI4Ktsk60zWaeSXja4GgeWYZKwFhvpPyzfal4VJBLeudgN/SAUOM0OfkxZi56667fuuiiy760QNUr4+qtZ8SWHNASPvPPvvsj01NTR2fATEMZBSa64S67arln4owXaO8D6Bxxxuny5A3VjxX5vzFX/zF3ZiJ6zJMGA/Jdn0vFUgCIWWhEHRPuVbIc4AQ8EPRWw/y27hZRriuW9exTtj1QDgzvbvbPbfQjU9u6h7yyEd1mw89vJvh4O7d893czGw3MdZ1d22/tbv1pi93c1N3dntmp7r5OdyYnEwz3o2Nw7QW1xu7bjHyEZerWxJQ4ATSLILZ4p5K2yz4CE4GEmV7ZOYYF8iRv2GaHrws6JFHrqPmui9y8fQaT5YhPQAH61/c+rF4UAFl09/IEMBhLY6gE5lN1jlZV4sV1vmVSrqCg/1LHVjnBQjZ9vD0pz+9v2IJuSGDPuhp3bq+jh7fZ91ov2uDGlfpxaggkeBTXfDZtpaeqIwpgbACRObdAqcWoLTKpH0VCIcMDMvJ75djeVmvIdAbYoKt9Dzb5+betXfv3mMuvvjiL+2nvh0lP0AlsCaB8Ljjjvuxgw8++NfTcvZQZpQKATO5TqiCqJatkx1FixJmwr74xS/uLXo3aMMGCYuXqejCIy9PUCEffk+QTcu0xQh165EfJ+J45dLdgHCfa3T9xPp+fXB8X8DL7AzRnXu79Ru3dEc98tHdxkMO66b3EASzt9s7v6ebXD/W7bzjlm5+dke3/dYbux2339pvo1jgeyC1Xx9cPHptz57FTdmcQuMPIHzEEUf2IAXoTEysXwpAIY0uTJW4bupkcTJzXcLIwJvs3R6i4hGocjtLD9G6c/dVjPwBF1zf9G8qTNcUkSMgRPSvbtcEQpmhijDBrf5eGZN/57jjGfUmkOfP/uzP+t8pmzHkmpigrTGhwWH7yEOPhm1qMbL6neN6NYzQ8Wi+yoF3W6DWAtmcR/mOBmmCdNatAmEyuMpCK6NrAVa2Idue/ZP1yzxzzNQ0jsepqak3XXLJJc8/QHX6qFr3QAJrEgiPOeaY73zgAx/4RS/i1ZI2opCJZ6RnrqPk5FY5IlOeo7RY2yLEnSuZYC/8YOmzTqji9YJZF//dKJ5BMmnZUo5Mh3UkTwMxCIS0uPv4IQJVoOkZ4aZN3frJycX390V+0qGzs7u7hT1jXbd+Q/fgox/VbT3ywd3U3J5uamamZ4wbN6zvZqbv6PbumeruuPlr3fbbbu5mp6a6qV3T3fjYZDc+RqQhm+rJ7ZvHrVEO7aE+j33c43uWuHt2pgfqrVsXbw9I1iZY6apEKdEXKrevfOUrfXpZI+0DyEgDKJpepWlkqeM82YDKT6PDTfbJRFVs3OzOqS0CK/nRb6l07ffWnCIfx02LvVTgoG56ImiXzN51xAQdx6AK3L/dbpLGVAXrllw00BIc6jaJ2sYsI4Ew0w0BcWWRlVVXeTEvMEz78bxx4/9h3NS6VSBcDSNMA6HFANPgyLlpbIEehX1RynfNz88/8TnPec5X74G+Hb1ygEpgTQIhPr7zzz9/2/bt2w/LSbDIcPpNsD2opeWtckur1j5DYRrxyA3onPjvtTEAFjeAEznKj2tOruP5blVgqcRkUN4OQdoMvcd9BljgklRBozS2cPuEx4bt3bO4MX5MIOy6hbGJ7sHf8ajuAQ9+aDc9t6fbvmNnNzmxrtu8ZbLbu3e627tnutt5+83d9ttv7W7++te72and3cbJLd0Ch83sxQ00v7g3sV8jXNyU329H6NfbNncPe9jD+y9uueXmHjQ3btzQp0Wx0CbbSFtkhbJEt1K4wZ62owxxWSJTruy1pgAAIABJREFUI3PtA/N0758AkQpZNyiygRVaJv2My9ToS/ImQpOrtXhf4yXXHAWnlsLPuaziX4lJtMZXC0SVmWW0QLXFTHM8CQ6rzT/BpOqpFuuurDnBI9vpXBqSjcYmxmQ9z7bKuMqj9X1tb0t2KV9BdQgIHcuONcbo7OzsKy699NL/fIDq81G17qEE1ioQdieffPLrObXKbQ2u96HsGNAe1pwA5QRPq1bGRj68R0AD98Rx+4EMiWt0CHnPvWuepSkj1ApvTU5Bg/wXD8ZeBGzdYTBFWCxX8qi0dJVOblw8P7PfB7jvqLTdu+e63bvneyB86CMe3R12xFE9EG67Y3u3YeNEt+UgAGu6Wzc+381M7eh27biju/nrN3VTO6e6bmG8m5vd063rWFub33eQ90LvNu3do2OLG9i3bbu9e9xjH9e7RKnzzTd/o1dmnFgD8AkuMhKDP2TnPAeo3AjvfkCAkL7i/RopStsBYo2N7CfHv3IjnSfy8AxwRI6uG3JmJ/1IXhg1HpOnUZIeAZlijhXLrkDRAqFU0MnMKrtpzeEhZT4EXpWRDYFhLWuoLrXuKYsKcMu1swVAyoIoWYHQeiwHYq02tcA2AVpQpszq7s0ya78a+bvPhX/L7OzsY6+44oo776G+Hb12gEpgzQLhcccd99B169Z9cePGjRtUVioPlB7uPcClKrnK3FSIbuqGWbDRmVB8JgcK9q1vfWsfMCNYkiY30pNuuXUaQZp6ecpGTlxAgrU4gVBA6G9737R4DdNiaMsiIwQICYzZs3ddd9TDH9Ed+sAHdXML490tt93WTWxY3x108IZu7wLBJHu7sb1z3Y7td3Rz0zPd7bdu67bdur3bM7fQcVJbHzHa32ix0O2ZZ3sF+wvH+2jZPfPcFr916bBnTtkhPdst+NEo0BBBoQBIfKJsaCsyhUkDiLSRdtEmIzoBQ7cOqLzIj/d0TSqnBEJ+x8WKsWN5rhFSh8U1ziP60124Z1J3roaHBlErICSNJRlDBeQKUtn3yTSH3I7J7iqApEu2jtV7Am5DzKv1vBqNAojgUuudsqrApszoF+Yi/a4Rkmn9Pfu7lVfKqdbdslr5tp6Zlwdx7DusYO/MzMwLLr/88j84QHX5qFrfggTWLBAik6c+9amfXL9+/ZNzjdB1J8HFNbmUYZ3wfOdmdiYO196ccMIJS2uH3ElIRKBnhcJqmNiyl2SD5m0AgUpT4MB9p4LUHchExGp2/5tBHv3xZJs3LTFC3Jjrxsf6NcLdc3s6ztM+4qiHdlsPP7IbWzfZ3XTLLT2Wbdky2e2Zn+o2bBjrNkxwQ8VUzyjH9ox1O7bf1d3yjVu7qSlOueFoukVgW2wDewsX9/Nt3Xpov3GfoA/qwRaAO+/c3oMh3+t2tn2CIPJGhrp+PQid554/ivxI7zmilJ+KULm2xr3KGQAlPw0L86aPMF7In2uNrrjiiv53n/F+3VJR2RJ/JyBVIFwJkBwDq2FrVelX4LesTDfEFk3bMspabG4lvVLZVQJhZc8JRilP+gWmztiuATiZrhollpVpWjKoIK3xUmVU89GFz1jbd6vKuy677LLzVpLJ6Pv7pgTWNBA++clPvuTII498OwPZiejEQPHiluO7+pOKSqvWzey8xxoh98ChbHkOq+GoNQ6VZuLANliHkunJSlrlOHkBD9IBhAJ3uhhx8wE4nsBCvWBOAGF/as0CN04sAiGMcG5+oZuZne8ecOSDu62HPbCbmNzUff0bN3Uzu2e6zZs3dHO7d3UbJse6yYnxbnzvQjc9NdU97CEP6w7eckj3ses+3t12G2xqrj+o+5vKZPHkGtp10EHchDHe763kxnWCj77ylRt69ywy8CQZFUwCYTIhr8fiGQxd+SErg0rIQ0YuUAlWsu3KjtyoD5M28Mg0gjDbYF7xilf0wIci9q5Ex4rKt7INlajpWu7RVLT2ccutmKCqcWT6zCMDeer4TBBLUG4B7XLgW/NJ0F3pvQQ665f1bOXNM/ofubvmnrKmzbZ7KEo1ZVuZYBoJjsOhetS0Gq/7DLfZ+fn5Rz73uc+96b6p5ke1XkkCaxoITz/99PVzc3Mf3Lt37ylOSiNHmRCwBQDGyaciSqEJZm70xnrlBgrYBMzFS3pf+cpXdl/60pd6oEKBu4HeqEUnosotlSllGEFI/oIGACeDwc0HWAKwXghKnbYcfFAPEhs4c5QbJPYuhruzeZ6TZdZNbuiOfNBR3SEHH9bd8NWvdHfetaN7wAMP7W7+xtf76NGF+d19JCkny2zZtKU74oFH9hvyueCVPYKA4YaNk930FAprd394dx/ZOQ9jO6TbvGlLH3Sya+qu7ktfur7bteuuJcvewBat8ARD2utpM2wtQPa0nWfIlbVH2kFZqQTtR57p0tRwyL2MKDCP2VN2ySJ4H/mysZ29hfxQpvs47ZOWUk9lnf3quFnOZZmAluBR89QASwVdWVa+U4F3JVbYUgwtdiUYJttKdl7BJ4G4gkvKknTIgvFNX2GI6C4fAqusg3XV9Z7vUA7jiE/GhOu/1b0q0JqX48z0+4B6bvfu3Zc/73nPe8dKynT0/X1XAmsaCOmWY4899pGbNm36u7GxsQcyMRzsshKAEECU9fC8usacQB4BxvaJU089tWdDgBButTe84Q0dLlKA0LUt8szI1CGLlee6RgEDjx7jmcwKpgjoAhLU0bocdMjB/T6+DROTS0AIU5ueme33De5Z2Ns98IgHdYcccmh327bbu5tuvanbvGVTNzV9V7dn92x/CwVAuDgQxrr14zC+dX3QC+xu/cTiOihAuGvXVH/bBdY755KyRkhbOdCaul5//Re7bdu+aViQYyofgdA9km4JYI3I9tFGlKLbU9xsXpW+Sk7wSxal3PwOtjq0ZeC0007r3aMYGLxX1wkttwVCtT8zTQJRBaXKnvxbZmlbKiNt5ZNgk0CcoJFg1mKqLZdkBfUEyWR6FShbqjDX6LO+GU2MwWNgSjUKWn+3DIdkfZZp2zJIK9P5vV6bBFhAeteuXb/z/Oc//0fuuyp+VPPVSGDNAyFCeMxjHnPOkUce+daxsbFD+Rtl6yZ5FDAnpLgPMJmAVqvBGTAMzoKEEXLM2uIJKxt78ONuQsDQ+/VUECqedJ+1WIGWLWzPE0ZUZq65AdqUqZuwP7rt4C2LwDvBXsJFQFu0iFmLG+t2TU13h2w9tAet+YWF7oav3tBfx7Rp08Zux53bu4W5uW6BTfb9oQGcHrO4fjfGbfd793QTk4ub5dmkPz0901vYi/sZCWzZ2oPw4x73uB68brjhy72bmDYIgAmErs8KhAbI0E7cyrTb2+spA5kgX48Wq8DjgdwpY5linhxE33r5rUpcps6Zni996Uu7RzziEUsb7GWate8qAAhgQwBYJ2D2eyryylQS1GseLbbUAsOVJv8QY6z5Z5uzXpnOsT4U/DPUHow8z6ylnytDThllGyszrO3PiGvSygqtXwJhzdegLvpkdnb2c/Pz86c873nPu2MleY6+v29L4H4BhHTR4x//+KeNj4//6aGHHvqQRUXPbe6LgREoX1hD3hDv9yopJhOTlSjDk046qQcklCjPAQoAlXNHM/JNBsqnFqf5qmAESN2IGeCRFjJKHxcilrPWM/WZ3DjZbdgw2W2c3LC0Jgkj3MMt5Xv29pvoATj2HHJbxddu/Fq3466d/Qb4O+/Y3p9RunvfOinbI/p39+zp5uZm+kCZdevHu/XrJvoN9ot7CRdvCSAt4Me6JIdIIws2sXPoNetyykElyaeuKAMR8jxNL+1FMdJW8vbGC5VkBUL6ph7HpiFDGwQe5Kjb1frwPf+RJcFP3CwCCxVIlwOXyo4SCFvKeyWgarG0fGc5Nuq7CQ4VsFNuQwCYYJZpXIOtIKhsBS/bnX8vB+IapPSL7u9c762MtvZ9lmfaVp3s5wro9qHgqLHp+bdTU1O3bdiw4enf933f98/3bRU/qv1qJHC/AUKE8ehHP/qIycnJ3zz44IPPnZiY2OrRVnxnCL+nu1TW5r44rtDhrMgHPehBvWvUK30AQ24ShxGp8DPMX/CtStFJLBAycQFVJq63j7sO6b64fvvCvkhHwAp2Rz1yPXPvwiKz291fybR4zubhDzy8u+PO7f0G+N7dCeism+jmdnNjPWuLsMnFC35hg7hGdRXyHSyQv8kLcF08/WVPz6YIPCE/okcBw2++5wk1iwd3KxvaRBvpA5QQrJx266YmbwODDFRKIyLdhx50zrOqTFV0HhLuOrBuWtqCcQMrJMjJ7RoaMUPKPMfHaoCwMijzrSDXSpfgkp4F3+VThjsEoBVIap35XtklyGgIChwtkE0mV1nvcmDIeOG/hycYMNYyDHjG/+pZSaMkZafXh3cIwmIM5Xq9+SSL3bdNoh+7d95554VXXnnl1atRoqM0930J3K+A0O568pOf/KDZ2dlLNm3a9LSDDjro+PXr1z9gYWFhkkmx7/SIyd27d29k14RRpSoEQOjcc8/tXaQoToNiYBNXX3119/73v/9ubFPWmWsUqQSdyP1ewH0HRHv4tuuVBscA0qynHXnkkT3ILW4OH1u6tDcjKbkvsGdcC3t7RYBC6A8BmFzfg5XbGMb2Lh7/9U2lOr7vPj+2SywCH3XkZgqV5SIwdX09du+e7Rkh7lHqBAiypzCVTq51uVZHW8jb2yloo9czkQblCFPgByMjGbryU5l59ZVtcF1Wefqu65AJHChf0v37f//v+zZovPBMeVZwWY6tDDGjCnAt12JldUPgWdlZBYgEqxYDHAJb+8n8lmN7y9Uh80+QrGzRE5NY93afpxG+VcZpBGX/V3enBozeBjw9X/jCF3rjjUuOE+yTTQuCc3Nz89PT0z/yohe96HX3ffU+asFqJXC/BMKGcO4mh0c84hEbpqenj5qZmfmuLVu2nPeABzzgpMMOO+zorusOBQhxowGCMhEmGf8/97nPdW95y1t64HAzLkoZRS0TEghkLyplFS/PAQXvTFQpqbA519PTV3wHoMjoyj7tPpawsC86VlZJ/VEOgI7rkoKWa3fKJ9lAzwf3WeWU5a3pADPBMlx4Sz6cH3r99dcvbUvxnXRFka9rdkb3edqP60bUU+brDR66ilPRq1xpS67tpZssFTNGgXtHNTSo9yWXXLJ00ozKVIadSn85hpOAab0qo6oeAYEz862sqwVmleHZP9XISsbTYlW1PoJhMq2WMlG+rb5oGQrWQ5nyt3tmjRiVETouHfu1DMGstSbpM/qYcc4cZZvUl7/85e7444/vDVfS5Jjnd8pmDP7LuLzqxS9+8S+sVoGO0q0NCYyAcJX9ePrppx+6adOmHz3//PN/GdADfNzYjaJmsqLcAUIu6hXwPMyZYtJ6TcWlu04l5GkbKn6ZD3mx/sbfuA4F0/7c0S1b+sksOK5ft663sgFCT6zhk/c8foz60g6eW4bnc/Zniu67kDdBkHbyDulgxQDqMccc09/xR31gm1jgntqjyzetb+oIkJJHttF1QgwBGDaskPdgoK7hJEtVpjJVvmsF1lSA8gJkgyqow9FHH9297GUv6/dEehtIKu0WYA2BWLoRs921Hqscene7RaMFxAJFBVPrUeuT7sUKqIJlyraCa7a7glR+JyAmC3OMJ1AxdvNgi2xP1t31Psuoxgb96MEMeZkx8+ZTn/pUP16djxknQH67du1aWFhY+NUXvvCFP7PafhmlWzsSGAHhfvTlf/gP/2Hr0Ucf/ZXDDjvsEBU8nyhtJikA8fa3v737yEc+0rNAFH0GejBxWxZ6Mg6tYJS1bkPfAxCwWjmNJY9boyyBGcAQENM9CTB5lBXA7fmlKhWDS7J+1VUnCNk2jpkjgIcoWqxt8uDvz3zmM31ZMq4EffNEYblnUhck79pu2uNJOv0+ybgdIhlSdcPR9vqjixTlZ3/ksW7kwXMO4uZmCoHVeqUyTjAbYmorAeH+gmpV/C3gq27HZHSV0Q65HdPgSRBdzRTJNifQaqxVMEX+rAsbFJV7/VoGA/lkAJRp6FujjfVoKB/mC+OJMYEnhaWBGrRGvtPT0wt33XXXL2/btu0Xr7rqqvnVtHeUZm1JYASE+9mfr3nNa/7xoQ996FPSGjWYA0Dk8G1YIUrUQBBBU/doLTJdQK7JAXhMYi+f5d3FIJXFSZ03wxvR2keRTk72ZavUVETkg+Lhb94FXKgfAKnF7voM79bgHpmCLKkPvjn88D5P9uJxGDllEDmK9Q0QKiNdjVXBmUbAhO3izgIgjRx1H6HBStW91wKFKl8NAtJqsCgDjA1PlLnwwgv7E4Moi3bm2qbKvYJfAnFtn3UdAtIWIGZ+1a2a8qxtvCdAmHlUYyyBNFntcm5b61CBlnL0etgHgBeyr1dSZdR1yse5Q97OEbc6MG4du7zPHMDt6r5Qv2d+8I6GkYbYzp07X/6TP/mT/+9+qoJR8jUkgREQ7mdn/vZv//YvHXHEET/HZDMow0AXFChK9TWveU2v0F17SOWhuzEVuEDEJNcFSLWYzABVrn2hwGGEKBKASPceZXunm4rCtRYVOnUiT7dAUAe3jFCekZQqrVREpHWDOunYR2leF198ce/GRLGxHsNlxV62qotYcLYc/gZEydeN9QA/z/jke5irWxrqPrMEhepKa3Up6d2sz8W4HozuySZ8T7AM66+6md3DaN1z/awFiNVNWIEwjZOUbQtA6rsCk4ZIZVgtF6xl8G726XLAxjtD65pDwJlt8d0KYgnUjAmPPWTM6jnxBpKWV0Jjxj6QBTpnLFfWyFh1LynjydtMdK/u2zd868zMzPe/9KUvvXY/1cAo+RqTwAgI97NDX//61z/myCOP/Oz8/Py4liWK0nUlJvYf//Efd//wD/9wt4tG6wJ/Wv6pVJMdytgSIMmf50xug0nI23NPZVCV0QgEgKGh5Sh6yuPvZICus2hdkxffG1nn5bKs6REk88xnPrMHLY5lI8111123FCxjUEVlV4KwChEFheKCUWrBU06CUipZAXY1jFDwpS4A9mWXXba0/9ByKdvb7WWwnhqETPmP7HXTys4FrMoGE/h165FGd6uuQA2fDD4ZCkRZbqi2mKlgVGWU7G/oPctKJlyBsMUah4wQwc2AGMavW34E6WR9yQydZ/a/LJ7yGff2gQzR/Einker6IXnsmz8fn5iYuPwlL3nJF/ZTBYySr0EJjIBwPzv16quv3jA5Obltbm5ui1sQmFwGaaBocY++6U1v6nP2pBSVUg2YSZaQjEKm5FaKZHcoZPcU9sed7TsWzrVCj19L9qDS8pBr/hY0tZKtm/Wg7kbY8QzFRXm8R/mU84xnPKPfPsF3BMmg4DhzVXC1fcmmZAekoT78CLS4fd0AD+MFnDy0IJV2y/1mWZUt+ZzyyOuHfuiHeqYpw6WN9KUX+qJAZRa64lSybuCXYXjLiAFL9I13HqYxUhmkZQPAnhSkQtdr0GJXQ0BTnydjTuAjXStYprpWh4Cw9oGgXcvL9spI+dQlj1ty8f7KxW05zg/HrAZSejcYW7xHGvfvOgctg/yM2HYO5drijh075nfu3PmmTZs2vfxlL3vZ9v2c/qPka1QCIyC8Bx37zne+8z0bNmw4y2hLGYTMjMn62te+tndhumm/td4zpHwEIpQvQKiLR8DAfQez4z97+fyhjGQu1kulJNv0fFWPmZOlyI5koLpkBRL32FEnXYkEyvSHcO/Zs3SqDGBGnZO1VVefTBTQsV2klxHyXEZIuR7CrcLcn26jLNrizR5XXnllHx1qn9B+ygbc6Dv6THaikSAAqFT9TAXuJcwG7FBngBKFb+Qr6SnPtVyZYYJ3MjiBYjnm1vpuaGxV+ZluOUaZBkaywPx9pf7I+iBjgM71waxTylU5ehgC/eVpQwY7aSCmgcnvGi6O7X3bc26em5t7+WMe85g/ueKKK/asVOfR9/cfCYyA8B709dve9rYzDjnkkPeqpPzU7QMwvPOd7+yjR1EAKLtc58vJXq1+AYNP0qGUAQUX+flEGWARAziuDcq4khXyTNeQSkuGB4i60Z407onUhYRYXOP0d61uysQlyoksgBXvcqIOwS9Y7ewlJK11EpBT4RlMlPsJSY+71YhS2DWuUd2+y3VVZVyZVleZ60rcTM+NGQIO7aGttIOykUv+pFu4xUT5nn4yIlHgyLU46kA73HoDSNI+gNI9oMpXeVUQrMzOOg4B4f4M7SFQq2WaTle/f6c3w/YnyDqW+PSOSGTgmNBI42/HDTJlfCAHGSDvpycmXetZnvntu+Zp5s4773zLwQcf/P/8+I//+Nf2Ry6jtPcPCYyA8B7287ve9a47161bx+nTS/vtmHwGebC5/o1vfOMSu6jsTDAUCJ24CR7kLSgkK2TCAxAApMdHoWBlPgIH4CsQplImXxQMgSkyEk9n0cVLGZTJp8yONChtzhXlSDUjL2WD+zYk93sLZZUq0nSNKifXOqmPATMwQiNmEwiTEdYuSwZVv0smZ5uIcuW/shcIYW08Q1Hzo9GQ65zJFGUeubZleSpo07gGm4BNebSLI+qQq5u9VejVvWjbkl2ncVFZYIJYAniCVv4uENf1XIEty7JuLTdrArT5awzq9tZ9n/2VdUR+jgm3zgi+BniRXubn1gldq6TZl+7TXde98Cd+4ie4gaY/KHD0M5LA/6FDRiK5ZxJ4+9vf/rqtW7deyURPNwyTU0v3d3/3d7vPf/7zS1ZvrhklK0xFnsqL9OTtmYyuBaoQUCZsOeB9ry0SDF27GvPevn2WNt+7kZ1P9/up5AwGIZ3uPF2+/I2yRml7mg7pYYC6qmCaPHOdRjaWUlYOtksrH9CG5SYQIktZbwLB/vQa+ZInbeKTAwAImFGOHh5gWQChrrbK+ivw1DUq1/c0bDLEn/IMRBLMyJ/yMS7Y1K+bORl1lrlcu1vA10rfYpBDZdj+yvg0FIYMjwQ15M948NN181wuyHwcD44T65AHP1AfZUl+GmvWa/v27bdPTU295qCDDvrNl7/85bfvz3gZpb3/SWDECO9hn1999dWP2rRp0xdS8fG7e5cAqY9+9KPd2972tqV9SxTl91qzso20ov29WrcytGQyghnrhjICyljaYD8xsXh+Jidp7zsmTUD1dA/3U/m+blK3D3jdkSCYG9w5ScZ9eK4dGgjSYh7WQXCqp7zACAFIrHnKA+CXc40uxwZV7sqR9gJMHJb+ohe9aClIxe9pl4cNkNb1J39P+Zm3LEoXoZ+OCz6NtpVd62rNoBh+50B3wNA9k8nM0u2ncZEMMEGwNZZymLeAsI7DzKOWU70LtlmZaAT4nuNNY8nxQ3razY9jWvdyehByXVZmzdjEMMOrwRhUZrOzswvT09PvGxsb+8mf/umf/tQ9nN6j1+5nEhgB4bfQ4e973/v+eX5+/jF5/JeTmklKsMyv/dqvLW1aRzEkENZAiVQkMgIZpyzJPFAulItS0cXppb28g2JwTSpDzFVSBiKQLwDmGZxGPKK0AKLcn2hEpCfLePcgYEVbdHdVZVZFXF2jAgWyYR8iwMx/189c96wKvDKKCrzKUOBAodJeAoy4md6DECoQAsJu0NbtmX2TIFgBsAWIGXCjq1RQNn9kgHIHDLnZRMW+2uGZQLkS6Fn/obwr8LWAMxlfyiPzzjohY8YYssi1QQEvZZSeE8eGSwN8xzih7/iP4QQQ8vtNN930hY0bN/704Ycf/ldXXnnlYjjy6GckgVVIYASEqxDSUJJ3vvOdZ2zcuPG9KGoUmwretQ3YBYzwr//6r5fC8QXCtIZ1w/EsGY75oVDI06hHwYz0bjTneDKAAwUqGMuk3K+l0tFCNzSdvz2CzaAc0urezOhS623wA3nzw3vsa+QHWehubLEa0sgIVY7kR1oUmwFCACz/yQtFN/STDEVw9FnKSmXMUVscp4bhIIsnb8oB/GmLfSiLS4ZSlX0LDO1T35f56AnQrScA6LJGhrDCxSuuFu42Hlrtr4C03HBuAZrpVwK7lOdywJf51N9xm2OA0cahPX6Of1mgbk/ey/8GjGEwXX/99Xumpqb+cnx8/Ptf8pKX3D3S6VuY36NX7z8SGAHht9DXe/fuHXv/+9+/bXx8/DAVHQrewAAUK6fe//7v//7Svjot2lTeusgEsFQ0MjeUoqH9KBgVrW5QAlRQ3igZGY7h/HlCiutiqdgED5QOYKur1P1tFQRknEbJGkRj20nPd7Iqy0pRC7QJhKQzWAZF6dYDT8Lx/cxvOddodSeSD65YgnBe8IIX9FsoZNjkQ50AQn4A4wqwPE+jZTlATOBLsLPvBMLc6K28cN3y375PsHJtMWWZrsn6fDnwrPkuB4arAeHqIk35GPRl1GyuIbtf1e05fCdj1hWah8rTT7rr90XrfuiOO+44+4orrtj9LUzn0av3YwmMgPBb7PxrrrnmjZOTk8/XopdlqcRQDpw0w7Fjsi33NqkoMuxet5AWcaZFCRPcYoCGwGlkKK5Y3Yh8R51cj/Ec0gxAUPEJdO6nAwgBDINqzEfANA/qjZtLFyrpBRTZTHXZ6a4kD92yCRQyQr4DCFWAutOyuxLMbYsMMJko78hgPd/y8ssv789HFbRbQJiKPME3FX66YzOwJtuv+zPBkWduuZCBkhfPMGYe/ehH92w/62CftlzAlp1uzZVAsAV8Q+uPKd9qAKThNvSdFy7n+id5GgCT45Jn9BN1cS2wtacVL8E+2b7vlFNOOfNbnMqj1+/HEhgB4bfY+ddcc80T1q9f/2kmrGdkpvLHPcoh1K973et6IORHsDRsX2BTecraUvGp/LzMNEGV972ZAqAEPNwTBzAa/GIUaLIKf1eRapXLVIzspAwVuWuP1B+l7TqOLleBx2ATlWOWi2Ijbxgoz5WBUaP8jVuU/D3qbbVMMJmccqOO1Bv5AarsJSR6VFc16fjdE2M8wUTQSzeyQ0bQTSCw7ARCWaAGjx4A2uh/gJ8fjAnqwGnROnpQAAAgAElEQVQ9GAKWkcw3gdC62H+t7yqY2qbMUwPFfMy3BZa13VkHgVTmTFraizztR2UjCKbxRFqv6GLcem1YZb3ZVwsLC58/+eSTH/stTuXR6/djCYyA8F7o/Pe85z3Xbdq06btQZrIqz0pkMjO5X/WqV/VXFCVj0To2xL4qqApYrjd5MofKm/cNnMFFyt8eIUYaFZAA5jOaLstTWeq6pR1Gf7bWfayrbKemSSWr4lPhaQzQDoBbNyr1JlgGOaIkAQKA0GPNKsBVYGwxNbuXvJE3QIgcLr300v76qHRV02bKMsxfg6Sy2hwyFTiGQMfwfiNGDZrhb9fBMiqYQ81Zy9T9XN3TCT7KwfGyGldpy42Z8rQ/BcjargRK0zoWUm6ks30aWRpKuj0dg/s2v/fzhT5iDGPUOc5ThryDYUefbtu27fNnnXXWCAjvBV12f81iBIT3Qs9fc801p4+Pj79P0FPxM5lR9uwRu/rqq7s///M/70tDMaSLSNdgMqeslqAiw3KzcUadUqYbj3GR8jdndfJJ/igUlIeHRRsdqpKvoMLfKCoDZVRefPqddWwxv1Sc6YJ1/ZLvASX+80wGyvFvHnFmsIx1brEj65Ngle5Bf5cRGqTBjfSnnHLK0ikmKnxdye47lM0lsGffqJzrMErQTtCpQKj72fYLJkSPCoRpsDi2qnyzH4fAOOuYQOfz9ERUJiizq4wzQTCZor8jR8eRRqJuf/OiTYxlz9VlrLKO6xjVENLzYF/p7r/llls+fc455zzpXpjKoyzupxIYAeG90PFvfetbJw877LAbDj744Ad7lYxg5344Jvlv/dZv9RvGVZ6u/8kqdJlVpVZBkXTuyTLq0Txw+wEuMC3P6JSdJjP0yCrLqmtqWYdUWLq8XLMRxAW4IUUpG3Q9E6WGW9SgFNfMYLQ+gw16tZT5V+BOAG8p+vyePHTBPvvZz+5OPfXUpbsbdekZmu96Z7L0lpswASWZWbKiCoQCgQEz6SIlLX9jPLGNAjDgWcs1W1lZZYRDfSFQtsAu66pMWunTFZusmPcdk7pEqTvtIJ2sV1Akb+YGBgr1ZVx624fsXCapkSBD5Dm/33LLLe89//zzz7oXpvIoi/upBEZAeC91/LXXXnvVpk2bft5DtlH0KgCe4eZ7z3ve0zNDXX9O8Ao0yQyTASQrQcnoSpKR8cxjwlAu7C9EqXhaiethrhuqaAxUSMVZ3V0JZLKkCpbpAq2MReUFgBooQzi966a8S51hs27QZ3uDEaMpowTtytRSuSdL1P3GM5TxRRdd1J1++ulLQJiMEGVMHXzHvmwB4XLDR1DJT/pIZiMLdDy4Bku/steRyFH6Stab0cXW1/IFo2xnyqbKpcXYlzNiNIByXAzlYVojPw0ccwlAo0a2iEHEO94/6dGAuvIZtykDDUj6cc+ePXunpqZeeOGFF77hXprKo2zuhxIYAeG91Okf+tCHDpufn79xYmJio2t2THSUKn97j+CrX/3qnhXKHlyjohpD623pukoFSP4qUcFBRYiyQMHwn7I96Z/3UTTuwxKMEwwFOrdP+HcyENmHz4YAKcHSdUfKggEA1CpwPgFGjoxDwVFnXIOkRYbKi3QqxlqfVMxpTNhm16Qo+1nPelZ35plnLq0Rmq+uURkh+bTcn7arNXwS+FpsqQKh2wUEGYCQtguEPnevasra3w2eqmBW/67gZd4VNG1DMuocB9nGlEHWVSNHGcow+eQ7TxCiDAO5HJve/egWIN/NdcLt27fvmpmZ+X8OP/zw3zjjjDMWI9FGPyMJ3AMJjIDwHght6JX3vve9r5ucnLwylXsGn8DOXCvkuS4kLWSBUIs6QSYVWlr9uTFb5azFzN+ADWDobQeCNPnl/r8EZMq1flriVVEOsY0qG9pCO3XFki/KDsDLMz15j/VB3WQwItrhvshkdy0gqCA4BFC8i/HwPd/zPd3555+/xPoEdsrUeEn2IyP2mUCgAVIZV6ZLA0d5CAYZNWqQDn1E+3WNJpCsJPdajwpk9qfyWokp2s40OiqY+p3t5O9cGyQPA2Zyi47M3/HqFUtumXB92jVkT0i67bbbYIEfm5iY+PFnP/vZH7kXp/Aoq/upBEZAeC92/Lve9a6HH3TQQZw/OunkRQl4+gufsB5upfjsZz+7tPE9GY5Wd4KhSjrZlQpKV5uh6IKYwAbbAAwNy/cWhww/1wWF4knwTaVZxZRAQP2sbwK29Uaxe7qN9dMF6nt8ElXrlVOAAHXEpZw/yWBaLDQV/5CrD1mde+653Xnnndc8yacCYYs1DQFtBeTan+ka5fcEQgwEN5fT/iOOOGJpU71u0RbDa8mnBXDWLQ2pZLYacAniNW+/041bAdJ1QEHRNWTGn65zXcKMN/s/jwNE/h4C4RgiLeNjfn7+qxMTE7/Sdd0fPfvZz955L07fUVb3YwmMgPBe7vxrr7329RMTEy8wWxSBi/q6gD7wgQ9073jHO5ZuZ9ctKbtAUVRLfEjBk07lmtF4BqVonXtXIECImzStbN2B7qFT2RpkU5X7Ssq4JVLzpr4ofxihUa8yBhQdQEC5RLyiHIkgTKVegXoIkFoMNkEXIOR/5ifrSyBU7hUM0zgZAg7lJgvMvvJZBsq4dkreBMuwh64GyQyBewsMK0hlGxxfKwFhlpdjUiBMI0jQNyCG8j0j1FORPI+W7zB6yIf+di1b97npnBvbtm27c2Fh4VUbN2583YUXXviNe3najrK7n0tgBIT38gB4z3vec/imTZu+PDMzc5CBDjIiPgkIwP33R3/0R93HPvaxXtGlW06XpKBWq2faXHsiTYblo5BUoCoSFC4uUgBRgDEikfQZQGOwwtBaXAtkVLKu5QgCpHWPo+eP0n6YMT8yB/52DyTuUADQU2VSoVt2/bS8Cpoq7wzd53fY4Nlnn3038ZKnTDkZWAJALbcaLPVv22h+Q4zQtS/Agb5g+wTgQP8l2265OhPMWu2vgJgAnYZA9qHszfam2zPLsG4V5HX98gkICnp79+7dNT4+ftv4+PiOvXv3zq5bt47rJzaMjY0dOjk5OTE5ObluYmJiYWJiYnb9+vVTExMTt83Nzf35hg0b3jwCwHtZWY2y+6YhPJLFvS+Bd7/73T/7L5P6l2V4rgWiVDwj8brrruve/OY3L1nM1EIWN7RWSJrKRFRUBmD4rs9z7Y964CblP8oWwBFQ3atlpKvglWVatsq5KlEVcipm8xWQYQiAnie3COCAIEDNuwSK8J6HeNceMv/KjpKdWG+ByMhaDALazvogwTICl2yQehKoIVutjLA1WhL8Kjv0O4EwAULXaLoNAQzKBwiN6hVslGFdQ7ataRwJZNWI8LlpNVwyT9PUdiXoCaa2SzaY+yH5zmCum2666Y5du3b9weGHH/7arVu3Xv/jP/7ji0fpxA/bkL72ta+te/nLXz5978/KUY4jCQxLYMQI/y+Mjg9/+MMHr1+//rbZ2dk+9t1tCyg2QAAFj/vtN37jN7rPfOYzS4d0o2hkYVrY1Z3VYmNp4cskZYWuB6WihxUSmIKyx/1GXZLJud/QW+8F6Mwr6yHYJEjbblgN+elKgw0CeJQt+yVKkhNl+CStG8lhz1WhJ/jWrqP8unalbGSEAiFRo8985jO/aRGOjS2dk+rRdwJM9oHMLQHUMvzMeggQAg9/e1yd7NAIVdIAhLQbIMygJ8dG1mUlptgCQ+to/dN4SaaX7DDB3PeNUhXYTe/+VvoWY4e+vvHGG9/yL2u9V61fv/7zV1111cL/hSk3ynIkgW9JAiMg/JbEN/zytdde+zPr1q17pcpMpeQaCAr/i1/8Yvf/t3c2MHaVdRo/99x7584MpRWQovIhSMFFWCJRYpBNsCZkIYjuxlBhjbpRkq4RWNG41eqSuwos6K7oRkIWlw8TjVJdli9LP6Yd5EvB8LGwwiKgIFW0Le04nc50uMy9y3OYZ3h4PdOy2pn/zPSZZDL3nnvO+z/n9955n/P8349z7bXXFiKAxhcNJAes0InonXrquPieAkURVGeAM+SoVLpDlI0Rmxy5yYEKTIlS0Pieo/d4LezzpBug89VzRplwNhRRTmTnlA69Fk6b4LJqSIly+Lw2/HR8pL6rmwQKGY9TETvrrLOyt7/97RMVqP20urRcmopUt6tCo8KorlBdlDp9nMv4PLjiBoB9thAY3Jxw1Kx+w9TxqmixjtXBpYKnzNTlqiBqrDIh5PnzGHW3FH+IH7ajnjdu3HhfvV7/+y996Use2TlF7YyL3T0ELIS7h2NpKXfeeefGTqezPz5kI4wGT9fOvPnmm7PVq1dPTKVg+lRTV2m6czJXSGeWNm7qBunUcA5odJGSRKqUg3r4QF+6OE53wHuuJqMDcVAeBZMNOxwNxIz9lHQPaPARD+kyCj5eYxucIsQTS2vhWM5v5LFlNwHqwFQYNGXKmwQ6Xk4f+djHPpYdddRRE6lhZaRCqGngydyTik4qJhRCFREKCHnREXJFHThiDBZKXbeWrQ5zV0LI8+P3Q0eN6ndG91MhLLsGPq+RAshpPBDCTZs2bXz++eeXX3zxxVdXKpXOFP6LuWgT2C0ELIS7BWN5IX19fZ+o1+vfoCOjg+B7NPxomLEg97PPPjuRKmQqlQ4Ax0Go1Hmp60OjxTL1bl0dEx0PBRAxOGEeDTAcIpc8o1jzIb9saBkff/EZG1QKPa4H0x3gaPAZG0s2pEjH8mkTdJcQYQghGlKIINLGLBvlYrsO2kkb8Z1VnwoXbwBwTrju8847LzvooIMmDqcLJnt14uqmKBzpzUgqIuqOUyHBewoHRwgzLQqGGDHKBRBSMVS3mbpCPYdUnPU4XoPuk7rY9DN1s9iX30mcP25mkNIdGhoa3L59++W9vb2XLV++fNMU/mu5aBPYrQQshLsV5ysLu/vuu3sw7ynP8/10uDkdFRo5uJ/bb7+9eGahNlA6mnSyEaTaEFKk2IBRdPmXjocNPcVT33PhYw5mSYWQjhAxuFwW1zNFXyBEEG6Q88M0LQihhRBy4BDFAEIIN4iyIYI4nktyUWDpLFUU9Pp47Zq21NesFeyHRhtp109+8pOF4JTdLHBgTSqkyjsVlvS91gOFQwWE0yY4UAb7s38Qcwj5LEKee9mgnbLzK0vXpiKtGQNNp/I1v6uaSqYQMh3OFYvG56m2t23b1t/pdM5uNptPTeG/lIs2gSkhYCGcEqwvF7pu3brTX3xE0006iIPujA0UGr3vfe972Y9//OPiQLogCg8bUC4RljbydDMqpCybDShFhKlOdXfYl6NF2VeFc+BaoNpYU1DhXCB4EHKIF+cJMpXIBhnXPZ4ue4WrxXZO50B8TpeASKlwlaV51a3sLH2oVUvhR1w4z09/+tOFIPL4yRyhpln/GCFU8WP9sH+Qq6/Q7fNhxOgf1JuO9Dr4fldinLLjcXqDokKYpm9V/Hjzw204Pzj5wcHBn+d5/vn99tvvxqVLl7am+N/JxZvAlBCwEE4J1pcL7XQ6lTvuuGN9nufvUnFiio/pSYzkxDqkcEdonCB66si0kWIDqKnJtHFMG3AVQrpA/tXULYVSU4RMg2lcLodFAcE+TGHyXHFOSLvCCcLtMA62s28Q27n8m066Ryw6wV2lAJVrWXXiePb7gStSoueee26xTZ00rkWnsKhbZIzUcfH6ecNBx6TTCigiLINTDHSdWNY50spYbDwtN72xoYCxXtNUuXJQ4eN+mvqlWPPa8J5TO/TcsY1PV3nqqad+W6lULsqy7Npmszk0xf9GLt4EppSAhXBK8b5UeF9f35G9vb2PaWOF7RQGDja55557CmeIxg0uihPy8Zfz2rRR00ZQhQ9llzklFTKOBNU0JM5HxZHnqA5WHZReA17T9dIVcnAMB4FwYAWEAKlSOE7Eh0PjCNO0721nji8VA3U3aaoYccAQ4vPOd74zO/PMM4sbDl4/Xba+V9FToaNAsz7TKS+aWuTXS0f0Ugg5WIbnhhhYVi3tH1Tnp32PLBvbVOD0BkldoYofhZp86UrJiDc2fC4j3qPOWq3W8NatW7/d1dW1fPny5c9Nw7+PQ5jAlBOwEE454gkxvKSnp2cZ77DRAMEBoVHkBG6I09VXX5099NBDE+lRNED4nEuP0Z1ReOgcUtekbkbFi08E4IAYPvwU+9AhsWHlIsc6SpRiSRdB0eV7CpA+Ugnb0MDywcHoF0SjijhIiaYT51NR1wEyFAI6JBV9iln6F8dTnJCO/chHPlI8ixAsVMR4bWXuTwUovQHBe8ZQ567pcM4Z5F/2EbLPFO+RIkdaFA5ZR8umdauil7LSmwFeB7cxtc7voAosB+3wOiDSXB4Nf0dGRlojIyO3VqvVzy5btuzRafq3cRgTmBYCFsJpwZxl/f393fV6/Zftdvt1dBR0VHyPv5hT+M1vfrNYYBjvmSJFg0m3oqlKNGZlKVI2lppi0waex3FaBNd2VIeoa6RSXNjos6xUiNGg0+3BCUL8mPZDeZy/iGtj36LG3JWwa3WpQOzKSYIH4iMFfc4552RHH330xCICFH6mhSkcZY5QueJ12SAlimHqwPCebhCceFPCgUdIi2LaBJeiS0WfjlrFT8UMbDRjwJsEulEVSR2Ahdd8r5kHTo5/7rnnHujp6fns6Ojo+maz6ccdTVOb4TDTR8BCOH2ss/Xr15/U3d19G0WI8+k4SpGT0LEo9y233FI8pBY/Kkhs3LSx1W1pvxoFLHVOaWqMg2V0HiGP0b49FW+KAGKgAUU6F0IDN4gf9stR6LjYNs4dI0y5oDbTcupc1dWl7i9NFaZVqNes6WDEQcyzzz47O+SQQ4rD9BrU7abOSlOI6ghZvopeesOB9xQbTjeg+OEzPo4I8wdxc6ACqNdOoWO9aGyNyXjcRrfOa6Lr43eAy9xRDHEDg9+BgYEnWq3WFxuNxn82m83hafxXcSgTmFYCFsJpxZ1la9asuabRaPwtxY2ryXACO/4iFXrllVdm999//yueQsG+Om2U6VC08U8byrRR5yWnzgflcn4h/nJUJQRap3ywfA6eQKPJuWR0rnQvFFE0thBJXB8be36G88Bx6up4jmnqr8wNUThUoOiS+RmuASvpvPnNb84+9KEPFX1xTEtSMFIhpCNMY7JMCrhy5HlrCpvCpFMmuMwaygI7pEP1+YM6hUPFUM+JAkdnSo6pK9T3fM0ULc8T9YPXGLy0cePGZ0dGRr649957/4cd4DQ3EA4XQsBCOM3YV65cOb+3t/fhdrt9CB/3Q4HjMmtsxK+44ors6aefLpwWU4yaOqTLSNOVbBhTEZnsUtP0WppyVAFmo6+NcJoiVEHDawoAyuFzCVmOnmPqhFI3VHb+PEYdZCqoFBUIDpZVw0AZrlxDUU/dYRp7MkbKKmXCmxSUReHjRHoKGsUY9QtHiHPl9Bm9NhXb1C2nzk/FTvsT6fhw7XDt3A83MuPTZTbt2LHjikaj8fVms/lSOsI/JrAHELAQBlTy6tWrj9lrr70earfbFabm0CjxKe5soDDt4PLLLy+cjKb4OMeMrospLm28Nc3I7SoQZenDtLFP+xlTJ5nGSwVIRUIFh2Keok/3T0VGy9DX6bWkgqpie9ppp2UnnXTSK1arYVlaF3puqaPW81KxoxDiWN6ksBwIDfaFGONXt3NpOYwWZZ1SmPXGQ8vH57wBYZoc29jvyG08V6Y/cY0QPn5nIIjbt28fGh4evqarq+uLzWZzc8C/hEOaQCgBC2EQ/jVr1vxTo9G4gG6LaTaOJKVzuuuuu7If/OAHRaPHRo5CoqlANnzqGMtSjWXio6lFFUMVAH2dimyZk9M4vEZtyPU8yxyOiuxkVVQm7GXii/04OvejH/1otmjRoj8oUl21pptV/PWcGKdMCLX/lty46DgfUMvVd3Be6LfkJHott8wRUgB5LlovGjdNh+qUDRw7Po9z8/Dw8FW1Wu3rF1988bNB/woOawLhBCyEQVWAUaR5nj9aqVQO5RB+DueHQ4Aw8nl0GDjT19c3cRdPt8Bl2FQk1R1pY5mOblTxoyNKHeFkDXHqoDj4IhUhdTXErKLJ/dMUbro9Pb9dVRnFAeWSEUarHnbYYcXUCfQPqtvleeqNRZnoka2Kn06RoNBTkOi68J6pUQgh+1HZL4p5lBgxiviaMi0TPa1TdYLcl31+OBeUz7Q03nOO4MDAwMDo6Oh3Go0GHODGXfH05yYw1wlYCANreNWqVYsWLFjw8NjYWDcbQZwOJ7VzQA3u3r/1rW9lP/vZzyae6A7x4RMctB8odYbauKq7KXOLqRDqiMo0PViWei1DqWKqgpYK8WRpUI1Ttg+2pdNHUiFEXKQATz/99Gzx4sUTi3pTdFJhp5tSMZxMGHclhBRDTEWAEPGRS7guvMcgGQgz6jx9/BPn9qn48XXqOvU9+wJ1VCgGKg0ODv5ucHDw2vnz53+j2WxuCPzqO7QJzCgCFsLg6ujr6/uHrq6uSyk6aCAhcGg44QzRwKGxRD8hRpJu2LBhYqIzR11yRCcEgKP/2GCqmKkrU1FUBCqG6iJVCFRAyspUwaOLKhNELXNn6dXUMeq+ZcfRaSlLxPr4xz+eHXnkkYVTouumaNKV4xiKW3pjkL5HmbovHSHdGPsJ6Qg5L499vKgrzh3k6GEKGleb0TLJkgLHzzgVgwLI7wDe4wYAAjgyMnLVggULvuanQgT/wzv8jCRgIQyulv7+/lq73f5JrVZ7Gxo/NrbpOphoqH/1q19l11xzTbHYMVOnOH32weE13QxXEVER0bSpOsWydGrqGLlP6gx35gJTN6dllB1XlhLdWfVwsIjuQyGhsKHPFUu5HXroodkHP/jB4okT+OFIUhVy9luyL1a5qNNOnSmZ61+mKNk3x+kKEDyyx7lhAj3XlGW52kep6VZ9zXrXaRBIu6JsCO64AG4YHh7+ygEHHHDVZz7zme3BX3WHN4EZS8BCOAOqpq+v74BarfZonuf7pBPi9SkEaDCfeOKJYhk2pEvR2DGllk56Z8OtaUI6sDJHpalKFYC00Z/MuWmK8v9bVlpmmQPUc09fq7OkyGk/HFi9+93vLlKj+OFzIOlc9a+6PC1XbwDKXqciqK4M8XVdUTo3uEGOFGUslq3cub8KJcrnU0GwnSvVoC8UDvDFdPsl8+fPv2rZsmXbZsBX3KdgAjOagIVwhlTP6tWr39Pb23szB3jQ0bGfkP1FGGF49913Z3iyPfp9+KBdHEcxpJAwNZemJ5napHgRgTq2sj5EOk4VKr7WdCn77LhtMvFUVzqZuKV9iZOdq14jbg4gEpi4D/cM17VkyZJiWTVeM3jSgaeuORW6MkFUwUpdG95TCLmSDKdMgA3XFcUE+rJ+2LTsVAiZCmUclD3+qKtfjo2NXXbggQdeed555708R2OGfMd9GiYwUwlYCGdQzfT19X2jXq9/gq6QosiGmKKHxhNPqrjhhhsmGlw25pomTRvoyS5VBTAdeJIeo05lZ+h0v7I0azpQha6Mx6VpUnWpqbPV8pnexP5YGQdrt5544onZKaecUizrBlfNPjaKEP9ScNSd8bWKO7myPzFNjVKgUB4HyUC8UAbTnhgpisct4XOKvV47z4XOnjdC7G+kIxwaGmoPDg4+UKlUrpw3b9537QBn0D+0T2XWELAQzqCqWrFiRdfChQt/Uq1Wj6O7o2CwT4tLscHt3HrrrdnatWsn0m64FF0FhpeWOkO95DKBoSilLi3dV51eOoBmMuFSR6diR6eWulW6IxU7LbvsnDhHD2VBaDB38E1velORhkz7+ji9AudFF6fCpPHpYDXtXNY/yFQlYsOtpX1+EGTUH+oK9UmRo8DSeXMSPvsb8TnLRFp8aGjomVardfYll1yyZgZ9jX0qJjDrCFgIZ1iV9fX17Ver1R6p1+sLtZHk4Bk0jhQ7NOIQwh/+8IeF+0H/EPu/OAWDYqYjGHnJ6dxCbk/76FJEaR+gOp3JHKSKporXZGnTsmrR49KBMhQsPsMRvLBo+VFHHVWkRZEe1adcUGzIkqKzszQpj1Eh1G04B7pAiiHqRGNgoQS4QYwE5jlD3HiDk6ZQKY4oB2XjMVIbN258sN1uf2PBggXfbzabgzPsK+zTMYFZR8BCOAOrbM2aNSf29vb2t9vtOh/Jw3SpihefGHHnnXdm1113XTFwBvPUdMSp7k8xVFdG95emIimgbOjpNne2fxlKdYoaIxVATc+m7m9XVaQCieuF2MAxgcP73//+om8Qfas8d/7Vc+PKL0yBUqSwL6djUJQoeIyrfXicxI6yKV68UcD+ePYiHCHL1QcGYz/2b0Ic8RpljD8NAinQJyqVyrJarbay2Ww+vysu/twETODVEbAQvjpO077X2rVrP9rT03MVAnOiNVJofJAu02V0Obfffnu2evXqotHUQSi6Lqk25EzX6Zy7ydxcur1sIE3q0FRI9TVToFomj03FkMJJMVZR10E6+JxzKTkABoNHjjjiiOy9731vMWVC5wmqEPLcKGY7c4SaBmU/I8+NPLmmJ57igF8ueoDtcIHsp+RKM/icD13mo6x4ThBDXMfmzZsf7XQ6l44/DumlZ1z5xwRMYLcRsBDuNpS7v6B169Z9qVarfYHpTjS2FDYVFPY1YV1SjCbFfrqwM0VCB3wwvccGnAKQjuQsu6q0X44Nd9mgGB6/qz7DMhFOXaO+T0er8mkS2I5rh/DgcUsQQ/YN6jXyNfsFKXIqxnSF6V91gHSH5InP+Egq3sRA4DBIB9MlKNTpTQmO4eR8COjg4ODY1q1bH+50Ol/df//9r/c8wN3//+USTYAELIQz+LuwYsWK6sKFC2/p6uo6hdMpdLg9BY6NOBr8/v7+ot8Qk8hV5NDwM/Wmzoav1XWpaFFwVSAmQ6b7UhzTstRx6QhVTZuWvVZBnfjyViqF++V14S/n7J1wwgnZySefXDgwriLDEaV0hJzKAOelzlDTo+Sizk/FD9s5nYGT5zlAhn1d2pcAABYOSURBVOWgnpASRT9uOhqU8wtRDtK544ty/3er1frHAw44YI2nQczgf1Cf2pwhYCGc4VWJ5xf29PTc2dXV9ec4Vab4mJqDE0I6FP1icBIYiPHwww9nK1aswBPGXyGGdI6TNe4pCnVQaZqSYqLbXy3KMkdZ5ghT8VPHyXSqiiA+BwPcEHz4wx8uHNjrX//6iQcCp44Qx0KIKIQUQ/JJnWB6A8H3TIfyWYMc0ETXx35Buk9s5754je0DAwMvDAwM3Fur1S668MILV75alt7PBEzgTydgIfzTGU55Cf39/QdVq9WfdnV1vY6NL90GV1CBQDIdioEhzzzzTHb99ddnv/jFLyYG0eiISgqZpgT19WSiqMKXukRNq/Kzsv7EMiFk2pPpQXW+dJqaDuU27IfrwrUzLfq+970vO/744ycW1+ZUFD13nqsuUUZ3qYJFMeT+dH9kxUE2EFOIMH4Qj9cBF4ibE54bU6goBw4Qx2zfvv2u7u7uzy1atOjuJUuWjE35F8oBTMAEXkHAQjhLvhD9/f2L8jy/Lc/zA+n+0KjiNUWB6VMKHhbqvummm7IHHnhgYgANBYaPeErFTyeVq1hOhintU1OxSge3aMqzrDyKDuOqQ+P+mm7kABSkEzEQZePGjdm73vWuYgI93CD65bAdYpNOncB5clkynT+I7XTbyobujoOUuA+2j4/qLI7T9DNe8zmDWAWIDhTns3nz5pEtW7b0d3d3XwrH32w227Pkq+jTNIE5R8BCOIuqFGL4Yn/hTyqVyn5wgHQdTOVxvhre8zMIAEaT3nvvvUW/IY5j6g6NPqdasKHnsSpKO3OBxFfm/BTtZCKYusoyt5gKJOfcwflyMjqu7fDDD88+8IEPFKlRDpDBsWVTTyBoXKsTPFR0GU8HFJWt9MJtEDad34njIcCvfe1rC5HE3D/UDfaDaG/ZsqWvVqt97sILL7yvUql0ZtFX0KdqAnOSgIVwllVrf3//W2u12vpOp7MPh+ZTxLhKCt/DGSL9Bnf04IMPZjfeeCOcyMSTKyiWdJBp6pGDbSi0Zf2BKlwqhmX7EnWaokxFSPvyUldIx4VzhpDhPUQQz/Q744wzsoMPPrhwydwPsejU6FA5n5JpTQoeBZB/Vfw0XcpJ85wzyCdKcF1YCDX6BbkGKOJu3bp1dPPmzevmzZt3UZZl9zabzRdm2VfPp2sCc5aAhXAWVu369euPrtVqP4IzLFs4muIBQYEzwaRsiAMe43TbbbdljzzySOFO0lGU+lxDHU2qDomimIqelqWCN9kcwTLsqfPEPoxDYWMclIvXXEDgrLPOyg455JDCCSIlCuHi9XAflsUBMhR6iqVeJ0Uw/Yt9+IBdiiP7ICGEEGjGH58S0fntb3/7YKPROP+CCy740Sz8uvmUTWDOE7AQztIq7uvrO7anp+dHnU7nNRzkQZHiyFL2pzEtB5cCh4g06fr16wsnhR8uCM05itifAqaukP1n6ZQLTY+mgqjH6346CIXbdV+6N14b9lcHjHPFqFhMjzjttNOKtCheQ/BxPVyRh4OJKJxMieoaoOSmA1nYF8i/uh4ohBXH45yYWsZ5YmAMRBDpT7BttVoPtVqtr+V5jqXQPBF+lv6v+bTnPgEL4Syu47Vr1x5Vq9VW1+v1g3VRbg6awaWpoKhQ/vrXvy4W7X700UeLxpxrbWJ/Tk5PxUrfM/2aukW6uJ31GU6WNqVYUfwo5LrOKvv7kOLFY4wWL16cHXfccYXzVUer1arizAnvOn+PjlBTpPgcHPVGAeKHxzohDgcpoWy+x3lu27atvWXLlkdeeOGF5RdddNHNs/jr5VM3gT2GgIVwllf1unXr3lipVG6pVCrHwPFhdKL2+VFUNMXIhh+NOZ5tiBVpIIwc8IG/7O9iv6NO20BZOoBFU4tMy/4xWPVJEBQviqaKMNK66BN8z3veU6wcg3PDwBn8pVDyOJbD6Q84lsvQUfyZ/mSqE+eOz/RzDoiB46PbxOcQYE7Y37Zt2+Mvbmu2Wq0bms3m8B/DwMeYgAlMPwEL4fQz3+0RV61atW+tVltVq9WOh7hRtNJBJwjMhbr5nDw04hjViBVp7rvvviLlx7l13F+nQehrvZCydKmKmDrEsv5EFSwtlyLLJ3EgtYtFtDFN4g1veEPhzCj8TIOqGLNcDnBBfykXtE4HwHCOIBlwPVAOCOK5kCHOqV6vtzdt2vTECy+88JWenp7veim03f71doEmMOUELIRTjnh6AvT393e32+2r6vX632ifIaOzMYdooIFHI841TNmnhnTjHXfckd1///3FABuUQ1dEh4hyODhEhTZNd6p4pAQmS5vSaVLIWCb79dAH95a3vCU76aSTiofaQgTxw/mUuqIL4zM2F7CmyHHQC8WNy6PhL/r42B8KAeV5kRnej7N7cmho6Mujo6PftgOcnu+5o5jAVBCwEE4F1aAysTbp/PnzL543b955lUqlm2Kg6UK6Jj7RgmKCfbkyDSam33PPPcVSbRj0ARGBEGIfDqyhGKYOkaIxmXOcrH9Q060UJwoihO7AAw8sJsofdthhxchQ9geybxT7cgRt6ghxzRB2OF/G52R6ul8OgKHwKzOUi/fjg5BGWq3WT8fGxr68zz77rFm6dOlLkxD9YwImMGsJWAhnbdVNfuJr1qw5qVqtrsDDfbXfjUdwVOh4am9iGoWulgJRxKhMrEqDOYgQEWzjVASUxbQjyuMAHcbj5H6WydgUPM7t44ovPJ4PqUU52Ia+v2OPPTZ729veVkxQRx8d+/tQJkfI6kAbFWvEGX+aQ+H0OBmfqVJ8xukUHBkK0ed+EE70A2ZZ9vuhoaHv5Hn+9UWLFj3ppdDm4D+OL2mPJWAhnKNVv27dugOzLLuuUqmciDQe06WcokChYjoR+3C0qK6oAqGBID722GPZ448/nm3YsKGYlM/J6MAHUaFDoxvT1KhOgUgFi9M0KKacIgHXd8wxxxQjQvF0eQgi+/bUdTJVS6enK+fgNZwgnlRPB8j1QCF6GFjEvlKcN0QWvxwslGXZwI4dO24fHR29plarYRm0zXP06+LLMoE9moCFcA5X/8qVKxvVavUr3d3d51Sr1QrTfbomJi6fYgQx1CXXNMWIY+CoMFjl2WefLQbWPPXUU4VTpAPjyE6mRfU9p0IgFsUXfX744aAUiBBGgeL30EMPLVbEwXFMeerKOXSkO6s+iBxEHL/8gTBywWu8pviNC2qn0+ls3bFjxwOjo6P/1mg0IH5b5vBXxJdmAiaA7JYpzH0Cq1ev/qtGo3F5tVp9A/u74KrgjiAAEEAVLS7ITZfHVCrdE0SRg2fQn/jkk08Wv3BYfB4g/zLFqZP2EY/CCDF84xvfWCyNht958+YV54LjkJKkg6TwsR+TKVHWno5QxTXi2jDnj/2COA7OsN1ud0ZHR3+f5/lwtVr9favV+uXzzz//cJZlWMP1/n333XfrsmXLts39b4Wv0ARMgAQshHvId2HlypX7V6vVq+v1+ql5nlchOJw/x7Qk06YyMGRiuoU+WR37U5C48gq2wTGmvxyMwtGX7H+DAGIlGKQ89fFQOu+RxzI2pzsw1Vs28IYjTOECIXzj8wY7w8PDG7Isu6LT6Vw3MjLy3KWXXvrSsjr+MQET2OMJWAj3oK9Af39/bXR09LRqtXpZo9E4jKlGThWg6+JgFE6r4NJrXEczHeGJ4yiOdH4cjMJ0rDo3ukGUQ4dKUePxXNmFfYa67Bv7J+kKtT8Sx23atKnox4RYj4yMPNNqtS7rdDrXNJvNl3Oke1C9+1JNwAR2TsBCuAd+Q/r7+1/barW+WqlUltTr9QaXC9OFqpkqBR6mJ1U4dUoBBQ378jj+VdFM1x3lJHxup8BRFLVfMZ2Ez0EydJo4H/Rf4oHEv/nNbzrtdvupdrv9lb322uu6T33qU+7n2wO/575kE3i1BCyEr5bUHNuv2Wzmxx9//F9Uq9VLGo3GCRg0wikDFES9ZAoR5xKy/5CT4zkKFe/1MxU/Ch9Tnpra1Anw3M6yKXbqWPEZR5EiHlwglonbsmXLz7Ms+5eenp7vn3/++XaAc+x768sxgakgYCGcCqqzqMwVK1Z0LViw4K9rtdoXxsbG/qynp6cGh8j+Q7o8vSS6MTq2tK8uFTIdyKLCSWFLy06Ph9BxPiJHuLIcuMjf/e53EMInu7q6Lh4bG7tp6dKlnuYwi76DPlUTiCZgIYyugRkSH4I4f/78M7u7uz+fZdmROC0IYtofSBGkiKVTJng56vBUTNPtukwb07Dcn59R/FLhhAAODAw8PTY29s/tdvv7Z599tlOgM+T75NMwgdlEwEI4m2prGs515cqV8/M8/1C9Xj83z/PDq9VqjalO7f/jEmtljnGy00ydXiqQOvhFhZZPlcA2PhV+cHDwyXa7/eVWq/VfS5Ys2TQNaBzCBExgjhKwEM7Riv1TLwt9iO94xzuWNBqNv8uy7Pgsy3o5v5Bl72zxbHWGqVhqKlWXaaMjTF0mR7GOL5j9NB511N3dfcPixYvdB/inVrSPNwET8IR6fwd2TeDWW289NM/zM/I8P7Nerx/VaDR6VMyYutRpDOr+0nQo3aQ6TJyFOk8OshkfWNMaHR19NM/zfx0bG7vllFNOcQp019XmPUzABF4lATvCVwnKu71EoK+vD/2HH6lWq+/L8xyva/V6vZIuq0YXSBHUvkCdWsHjONoUI0F37NiB6Q94PPyG0dHR9Xme//upp576U9eBCZiACUwFAQvhVFDdA8ocH236mmq1enKr1frL0dHRI2q12sJ6vb5vb2/vazgJH46OP5xioaNI8Xp8dZrfDwwMPJfn+f/UarXru7q6+oaHh7eefvrpftL7HvB98iWaQCQBC2Ek/TkYe9WqVftWKpW31mq10/M8P7pSqSzM87znxdVsFmBt27GxMazvOdrpdJ6vVqtY0/N/2+32ijzPHxoaGhq28M3BL4UvyQRmOAEL4QyvoNl+eljWbe+99/6D79m2bds6ixcvRvrTPyZgAiYQSsBCGIrfwU3ABEzABKIJWAija8DxTcAETMAEQglYCEPxO7gJmIAJmEA0AQthdA04vgmYgAmYQCgBC2Eofgc3ARMwAROIJmAhjK4BxzcBEzABEwglYCEMxe/gJmACJmAC0QQshNE14PgmYAImYAKhBCyEofgd3ARMwARMIJqAhTC6BhzfBEzABEwglICFMBS/g5uACZiACUQTsBBG14Djm4AJmIAJhBKwEIbid3ATMAETMIFoAhbC6BpwfBMwARMwgVACFsJQ/A5uAiZgAiYQTcBCGF0Djm8CJmACJhBKwEIYit/BTcAETMAEoglYCKNrwPFNwARMwARCCVgIQ/E7uAmYgAmYQDQBC2F0DTi+CZiACZhAKAELYSh+BzcBEzABE4gmYCGMrgHHNwETMAETCCVgIQzF7+AmYAImYALRBCyE0TXg+CZgAiZgAqEELISh+B3cBEzABEwgmoCFMLoGHN8ETMAETCCUgIUwFL+Dm4AJmIAJRBOwEEbXgOObgAmYgAmEErAQhuJ3cBMwARMwgWgCFsLoGnB8EzABEzCBUAIWwlD8Dm4CJmACJhBNwEIYXQOObwImYAImEErAQhiK38FNwARMwASiCVgIo2vA8U3ABEzABEIJWAhD8Tu4CZiACZhANAELYXQNOL4JmIAJmEAoAQthKH4HNwETMAETiCZgIYyuAcc3ARMwARMIJWAhDMXv4CZgAiZgAtEELITRNeD4JmACJmACoQQshKH4HdwETMAETCCagIUwugYc3wRMwARMIJSAhTAUv4ObgAmYgAlEE7AQRteA45uACZiACYQSsBCG4ndwEzABEzCBaAIWwugacHwTMAETMIFQAhbCUPwObgImYAImEE3AQhhdA45vAiZgAiYQSsBCGIrfwU3ABEzABKIJWAija8DxTcAETMAEQglYCEPxO7gJmIAJmEA0AQthdA04vgmYgAmYQCgBC2Eofgc3ARMwAROIJmAhjK4BxzcBEzABEwglYCEMxe/gJmACJmAC0QQshNE14PgmYAImYAKhBCyEofgd3ARMwARMIJqAhTC6BhzfBEzABEwglICFMBS/g5uACZiACUQTsBBG14Djm4AJmIAJhBKwEIbid3ATMAETMIFoAhbC6BpwfBMwARMwgVACFsJQ/A5uAiZgAiYQTcBCGF0Djm8CJmACJhBKwEIYit/BTcAETMAEoglYCKNrwPFNwARMwARCCVgIQ/E7uAmYgAmYQDQBC2F0DTi+CZiACZhAKAELYSh+BzcBEzABE4gmYCGMrgHHNwETMAETCCVgIQzF7+AmYAImYALRBCyE0TXg+CZgAiZgAqEELISh+B3cBEzABEwgmoCFMLoGHN8ETMAETCCUgIUwFL+Dm4AJmIAJRBOwEEbXgOObgAmYgAmEErAQhuJ3cBMwARMwgWgCFsLoGnB8EzABEzCBUAIWwlD8Dm4CJmACJhBNwEIYXQOObwImYAImEErAQhiK38FNwARMwASiCVgIo2vA8U3ABEzABEIJWAhD8Tu4CZiACZhANAELYXQNOL4JmIAJmEAoAQthKH4HNwETMAETiCZgIYyuAcc3ARMwARMIJWAhDMXv4CZgAiZgAtEELITRNeD4JmACJmACoQQshKH4HdwETMAETCCagIUwugYc3wRMwARMIJSAhTAUv4ObgAmYgAlEE7AQRteA45uACZiACYQSsBCG4ndwEzABEzCBaAIWwugacHwTMAETMIFQAhbCUPwObgImYAImEE3AQhhdA45vAiZgAiYQSsBCGIrfwU3ABEzABKIJWAija8DxTcAETMAEQglYCEPxO7gJmIAJmEA0AQthdA04vgmYgAmYQCgBC2Eofgc3ARMwAROIJmAhjK4BxzcBEzABEwglYCEMxe/gJmACJmAC0QQshNE14PgmYAImYAKhBCyEofgd3ARMwARMIJqAhTC6BhzfBEzABEwglICFMBS/g5uACZiACUQTsBBG14Djm4AJmIAJhBKwEIbid3ATMAETMIFoAhbC6BpwfBMwARMwgVACFsJQ/A5uAiZgAiYQTcBCGF0Djm8CJmACJhBKwEIYit/BTcAETMAEoglYCKNrwPFNwARMwARCCVgIQ/E7uAmYgAmYQDQBC2F0DTi+CZiACZhAKAELYSh+BzcBEzABE4gmYCGMrgHHNwETMAETCCVgIQzF7+AmYAImYALRBCyE0TXg+CZgAiZgAqEELISh+B3cBEzABEwgmoCFMLoGHN8ETMAETCCUgIUwFL+Dm4AJmIAJRBOwEEbXgOObgAmYgAmEErAQhuJ3cBMwARMwgWgCFsLoGnB8EzABEzCBUAIWwlD8Dm4CJmACJhBNwEIYXQOObwImYAImEErAQhiK38FNwARMwASiCVgIo2vA8U3ABEzABEIJWAhD8Tu4CZiACZhANAELYXQNOL4JmIAJmEAoAQthKH4HNwETMAETiCZgIYyuAcc3ARMwARMIJWAhDMXv4CZgAiZgAtEELITRNeD4JmACJmACoQQshKH4HdwETMAETCCawP8BFuvrFTose7EAAAAASUVORK5CYII=;" vertex="1" parent="1">
          <mxGeometry x="490" y="148" width="122.44" height="157" as="geometry" />
        </mxCell>
        <mxCell id="Z5jCUyBaBGFLvtda2WER-11" value="&lt;font style=&quot;font-size: 14px;&quot;&gt;&lt;b&gt;Оставить заявку&lt;/b&gt;&lt;/font&gt;" style="rounded=1;whiteSpace=wrap;html=1;arcSize=50;fillColor=#dae8fc;strokeColor=#6c8ebf;" vertex="1" parent="1">
          <mxGeometry x="205" y="260" width="210" height="30" as="geometry" />
        </mxCell>
        <mxCell id="Z5jCUyBaBGFLvtda2WER-12" value="" style="ellipse;whiteSpace=wrap;html=1;aspect=fixed;fillColor=#dae8fc;gradientColor=#7ea6e0;strokeColor=#6c8ebf;" vertex="1" parent="1">
          <mxGeometry x="380" y="265" width="20" height="20" as="geometry" />
        </mxCell>
        <mxCell id="Z5jCUyBaBGFLvtda2WER-33" value="" style="endArrow=classic;html=1;rounded=0;exitX=0;exitY=0;exitDx=0;exitDy=0;entryX=1;entryY=1;entryDx=0;entryDy=0;" edge="1" parent="1" source="Z5jCUyBaBGFLvtda2WER-12" target="Z5jCUyBaBGFLvtda2WER-12">
          <mxGeometry width="50" height="50" relative="1" as="geometry">
            <mxPoint x="310" y="380" as="sourcePoint" />
            <mxPoint x="360" y="330" as="targetPoint" />
          </mxGeometry>
        </mxCell>
      </root>
    </mxGraphModel>
  </diagram>
</mxfile>
